M48
; DRILL file {KiCad 9.0.4} date 2026-03-09T22:45:38-0700
; FORMAT={-:-/ absolute / metric / decimal}
; #@! TF.CreationDate,2026-03-09T22:45:38-07:00
; #@! TF.GenerationSoftware,Kicad,Pcbnew,9.0.4
; #@! TF.FileFunction,Plated,1,2,PTH
FMAT,2
METRIC
; #@! TA.AperFunction,Plated,PTH,ViaDrill
T1C0.178
; #@! TA.AperFunction,Plated,PTH,ComponentDrill
T2C0.200
; #@! TA.AperFunction,Plated,PTH,ViaDrill
T3C0.300
; #@! TA.AperFunction,Plated,PTH,ComponentDrill
T4C0.406
; #@! TA.AperFunction,Plated,PTH,ComponentDrill
T5C0.800
; #@! TA.AperFunction,Plated,PTH,ComponentDrill
T6C0.894
; #@! TA.AperFunction,Plated,PTH,ComponentDrill
T7C1.320
; #@! TA.AperFunction,Plated,PTH,ComponentDrill
T8C1.600
; #@! TA.AperFunction,Plated,PTH,ComponentDrill
T9C2.000
%
G90
G05
T1
X160.629Y-65.0
T2
X109.85Y-64.98
X109.85Y-66.38
X110.55Y-64.28
X110.55Y-65.68
X110.55Y-67.08
X111.25Y-64.98
X111.25Y-66.38
X111.95Y-64.28
X111.95Y-65.68
X111.95Y-67.08
X112.65Y-64.98
X112.65Y-66.38
T3
X87.0Y-48.5
X90.0Y-59.5
X91.0Y-107.5
X91.0Y-112.5
X94.5Y-112.027
X96.339Y-102.839
X96.5Y-59.0
X99.0Y-73.5
X99.5Y-63.0
X100.0Y-41.5
X100.872Y-72.372
X101.0Y-64.0
X102.0Y-64.5
X102.0Y-74.0
X103.401Y-86.901
X104.0Y-61.77
X105.5Y-66.5
X105.5Y-74.0
X106.0Y-57.0
X108.5Y-45.5
X110.0Y-77.66
X112.115Y-75.72
X113.0Y-69.5
X113.5Y-74.0
X114.0Y-62.309
X116.0Y-58.539
X116.036Y-62.31
X116.472Y-59.92
X117.5Y-62.0
X117.908Y-58.408
X119.383Y-63.691
X119.5Y-72.0
X119.59Y-58.756
X120.0Y-70.5
X120.0Y-73.5
X120.0Y-126.0
X121.0Y-52.0
X121.5Y-63.04
X124.0Y-58.5
X125.0Y-56.0
X125.0Y-78.123
X125.735Y-60.235
X126.0Y-110.744
X126.446Y-59.446
X126.5Y-61.5
X127.0Y-78.813
X128.5Y-60.809
X129.5Y-96.691
X129.842Y-81.5
X129.887Y-59.887
X130.056Y-117.0
X131.0Y-93.5
X132.5Y-60.441
X133.0Y-58.5
X137.5Y-89.0
X138.281Y-100.245
X138.5Y-92.0
X139.0Y-84.5
X140.0Y-78.813
X140.0Y-80.0
X140.0Y-126.0
X140.5Y-60.5
X140.671Y-66.505
X141.0Y-89.0
X141.0Y-103.581
X141.106Y-44.606
X141.5Y-84.0
X142.0Y-127.5
X142.5Y-35.0
X143.0Y-78.069
X143.464Y-92.964
X143.916Y-119.5
X143.916Y-121.0
X144.5Y-63.5
X144.809Y-42.5
X145.0Y-74.5
X145.5Y-73.0
X145.925Y-115.425
X146.0Y-80.0
X146.0Y-119.5
X146.5Y-76.5
X146.5Y-121.0
X146.69Y-60.5
X147.0Y-66.0
X147.0Y-67.5
X147.5Y-44.0
X147.5Y-57.352
X147.5Y-58.5
X147.5Y-107.0
X147.974Y-72.5
X148.0Y-49.0
X148.0Y-55.971
X148.0Y-78.5
X148.85Y-73.904
X148.985Y-52.985
X149.12Y-48.0
X149.802Y-40.825
X149.841Y-47.341
X150.0Y-74.0
X150.025Y-75.0
X150.55Y-52.5
X150.55Y-53.5
X150.568Y-55.432
X150.98Y-48.156
X151.676Y-84.676
X152.101Y-74.101
X152.5Y-44.5
X152.5Y-53.5
X156.5Y-91.5
X157.5Y-62.244
X157.715Y-78.283
X157.72Y-59.884
X158.0Y-76.688
X158.0Y-94.0
X158.5Y-57.687
X158.5Y-68.0
X159.5Y-42.0
X159.5Y-64.0
X159.5Y-66.0
X159.5Y-107.255
X160.0Y-67.5
X160.405Y-66.769
X160.5Y-53.5
X160.5Y-54.5
X160.5Y-91.0
X160.629Y-71.5
X161.0Y-38.309
X161.008Y-44.809
X161.148Y-78.157
X161.309Y-47.5
X161.5Y-57.5
X161.5Y-58.5
X161.5Y-102.0
X161.786Y-73.5
X161.809Y-74.917
X162.5Y-81.0
X163.0Y-40.5
X163.0Y-42.0
X163.112Y-76.5
X163.112Y-78.123
X163.741Y-61.476
X165.0Y-99.075
X165.19Y-68.0
X165.5Y-39.5
X165.5Y-112.5
X165.79Y-74.0
X165.9Y-66.0
X166.0Y-78.5
X166.5Y-76.0
X167.1Y-48.0
X168.0Y-82.5
X168.596Y-70.812
X169.501Y-96.239
X169.551Y-92.875
X170.0Y-55.5
X170.1Y-105.5
X171.255Y-70.0
X171.495Y-81.0
X171.5Y-105.5
X174.0Y-93.918
X174.491Y-92.776
X174.5Y-73.5
X175.404Y-70.812
X175.746Y-86.128
X177.5Y-88.0
X177.5Y-99.0
X178.0Y-64.5
X178.5Y-95.5
X179.0Y-76.5
T4
X93.125Y-38.28
X93.775Y-39.28
X94.425Y-38.28
X95.075Y-39.28
X95.725Y-38.28
T5
X150.38Y-86.96
X150.38Y-89.5
X150.38Y-99.0
X150.38Y-101.54
X152.92Y-86.96
X152.92Y-89.5
X152.92Y-99.0
X152.92Y-101.54
X155.46Y-86.96
X155.46Y-89.5
X155.46Y-99.0
X155.46Y-101.54
X158.0Y-86.96
X158.0Y-89.5
X158.0Y-99.0
X158.0Y-101.54
T6
X89.96Y-125.0
X90.5Y-117.5
X90.73Y-109.5
X92.5Y-125.0
X93.04Y-117.5
X93.27Y-109.5
X103.73Y-109.0
X106.27Y-109.0
X107.87Y-117.605
X109.73Y-125.5
X110.41Y-117.605
X112.27Y-125.5
X118.73Y-111.5
X119.96Y-103.5
X121.27Y-111.5
X122.5Y-103.5
X143.46Y-108.5
X146.0Y-108.5
T7
X89.75Y-86.5
X89.75Y-99.5
X112.25Y-86.5
X112.25Y-99.5
T8
X173.75Y-37.0
X173.75Y-43.0
X178.45Y-40.0
T9
X94.5Y-74.0
X123.0Y-86.0
X123.5Y-93.5
X132.0Y-110.0
X135.0Y-102.0
M30
