%TF.GenerationSoftware,KiCad,Pcbnew,9.0.4*%
%TF.CreationDate,2026-03-11T21:31:23-07:00*%
%TF.ProjectId,Individual subsystem,496e6469-7669-4647-9561-6c2073756273,rev?*%
%TF.SameCoordinates,Original*%
%TF.FileFunction,Legend,Top*%
%TF.FilePolarity,Positive*%
%FSLAX46Y46*%
G04 Gerber Fmt 4.6, Leading zero omitted, Abs format (unit mm)*
G04 Created by KiCad (PCBNEW 9.0.4) date 2026-03-11 21:31:23*
%MOMM*%
%LPD*%
G01*
G04 APERTURE LIST*
%ADD10C,0.150000*%
%ADD11C,0.000000*%
%ADD12C,0.200000*%
%ADD13C,0.120000*%
%ADD14C,0.127000*%
%ADD15C,0.160000*%
%ADD16C,0.152400*%
%ADD17C,0.508000*%
G04 APERTURE END LIST*
D10*
X141891133Y-114774619D02*
X141891133Y-113774619D01*
X141891133Y-113774619D02*
X142129228Y-113774619D01*
X142129228Y-113774619D02*
X142272085Y-113822238D01*
X142272085Y-113822238D02*
X142367323Y-113917476D01*
X142367323Y-113917476D02*
X142414942Y-114012714D01*
X142414942Y-114012714D02*
X142462561Y-114203190D01*
X142462561Y-114203190D02*
X142462561Y-114346047D01*
X142462561Y-114346047D02*
X142414942Y-114536523D01*
X142414942Y-114536523D02*
X142367323Y-114631761D01*
X142367323Y-114631761D02*
X142272085Y-114727000D01*
X142272085Y-114727000D02*
X142129228Y-114774619D01*
X142129228Y-114774619D02*
X141891133Y-114774619D01*
X143272085Y-114727000D02*
X143176847Y-114774619D01*
X143176847Y-114774619D02*
X142986371Y-114774619D01*
X142986371Y-114774619D02*
X142891133Y-114727000D01*
X142891133Y-114727000D02*
X142843514Y-114631761D01*
X142843514Y-114631761D02*
X142843514Y-114250809D01*
X142843514Y-114250809D02*
X142891133Y-114155571D01*
X142891133Y-114155571D02*
X142986371Y-114107952D01*
X142986371Y-114107952D02*
X143176847Y-114107952D01*
X143176847Y-114107952D02*
X143272085Y-114155571D01*
X143272085Y-114155571D02*
X143319704Y-114250809D01*
X143319704Y-114250809D02*
X143319704Y-114346047D01*
X143319704Y-114346047D02*
X142843514Y-114441285D01*
X143700657Y-114727000D02*
X143795895Y-114774619D01*
X143795895Y-114774619D02*
X143986371Y-114774619D01*
X143986371Y-114774619D02*
X144081609Y-114727000D01*
X144081609Y-114727000D02*
X144129228Y-114631761D01*
X144129228Y-114631761D02*
X144129228Y-114584142D01*
X144129228Y-114584142D02*
X144081609Y-114488904D01*
X144081609Y-114488904D02*
X143986371Y-114441285D01*
X143986371Y-114441285D02*
X143843514Y-114441285D01*
X143843514Y-114441285D02*
X143748276Y-114393666D01*
X143748276Y-114393666D02*
X143700657Y-114298428D01*
X143700657Y-114298428D02*
X143700657Y-114250809D01*
X143700657Y-114250809D02*
X143748276Y-114155571D01*
X143748276Y-114155571D02*
X143843514Y-114107952D01*
X143843514Y-114107952D02*
X143986371Y-114107952D01*
X143986371Y-114107952D02*
X144081609Y-114155571D01*
X144557800Y-114774619D02*
X144557800Y-114107952D01*
X144557800Y-113774619D02*
X144510181Y-113822238D01*
X144510181Y-113822238D02*
X144557800Y-113869857D01*
X144557800Y-113869857D02*
X144605419Y-113822238D01*
X144605419Y-113822238D02*
X144557800Y-113774619D01*
X144557800Y-113774619D02*
X144557800Y-113869857D01*
X145462561Y-114107952D02*
X145462561Y-114917476D01*
X145462561Y-114917476D02*
X145414942Y-115012714D01*
X145414942Y-115012714D02*
X145367323Y-115060333D01*
X145367323Y-115060333D02*
X145272085Y-115107952D01*
X145272085Y-115107952D02*
X145129228Y-115107952D01*
X145129228Y-115107952D02*
X145033990Y-115060333D01*
X145462561Y-114727000D02*
X145367323Y-114774619D01*
X145367323Y-114774619D02*
X145176847Y-114774619D01*
X145176847Y-114774619D02*
X145081609Y-114727000D01*
X145081609Y-114727000D02*
X145033990Y-114679380D01*
X145033990Y-114679380D02*
X144986371Y-114584142D01*
X144986371Y-114584142D02*
X144986371Y-114298428D01*
X144986371Y-114298428D02*
X145033990Y-114203190D01*
X145033990Y-114203190D02*
X145081609Y-114155571D01*
X145081609Y-114155571D02*
X145176847Y-114107952D01*
X145176847Y-114107952D02*
X145367323Y-114107952D01*
X145367323Y-114107952D02*
X145462561Y-114155571D01*
X145938752Y-114107952D02*
X145938752Y-114774619D01*
X145938752Y-114203190D02*
X145986371Y-114155571D01*
X145986371Y-114155571D02*
X146081609Y-114107952D01*
X146081609Y-114107952D02*
X146224466Y-114107952D01*
X146224466Y-114107952D02*
X146319704Y-114155571D01*
X146319704Y-114155571D02*
X146367323Y-114250809D01*
X146367323Y-114250809D02*
X146367323Y-114774619D01*
X147272085Y-114774619D02*
X147272085Y-114250809D01*
X147272085Y-114250809D02*
X147224466Y-114155571D01*
X147224466Y-114155571D02*
X147129228Y-114107952D01*
X147129228Y-114107952D02*
X146938752Y-114107952D01*
X146938752Y-114107952D02*
X146843514Y-114155571D01*
X147272085Y-114727000D02*
X147176847Y-114774619D01*
X147176847Y-114774619D02*
X146938752Y-114774619D01*
X146938752Y-114774619D02*
X146843514Y-114727000D01*
X146843514Y-114727000D02*
X146795895Y-114631761D01*
X146795895Y-114631761D02*
X146795895Y-114536523D01*
X146795895Y-114536523D02*
X146843514Y-114441285D01*
X146843514Y-114441285D02*
X146938752Y-114393666D01*
X146938752Y-114393666D02*
X147176847Y-114393666D01*
X147176847Y-114393666D02*
X147272085Y-114346047D01*
X147605419Y-114107952D02*
X147986371Y-114107952D01*
X147748276Y-113774619D02*
X147748276Y-114631761D01*
X147748276Y-114631761D02*
X147795895Y-114727000D01*
X147795895Y-114727000D02*
X147891133Y-114774619D01*
X147891133Y-114774619D02*
X147986371Y-114774619D01*
X148462562Y-114774619D02*
X148367324Y-114727000D01*
X148367324Y-114727000D02*
X148319705Y-114679380D01*
X148319705Y-114679380D02*
X148272086Y-114584142D01*
X148272086Y-114584142D02*
X148272086Y-114298428D01*
X148272086Y-114298428D02*
X148319705Y-114203190D01*
X148319705Y-114203190D02*
X148367324Y-114155571D01*
X148367324Y-114155571D02*
X148462562Y-114107952D01*
X148462562Y-114107952D02*
X148605419Y-114107952D01*
X148605419Y-114107952D02*
X148700657Y-114155571D01*
X148700657Y-114155571D02*
X148748276Y-114203190D01*
X148748276Y-114203190D02*
X148795895Y-114298428D01*
X148795895Y-114298428D02*
X148795895Y-114584142D01*
X148795895Y-114584142D02*
X148748276Y-114679380D01*
X148748276Y-114679380D02*
X148700657Y-114727000D01*
X148700657Y-114727000D02*
X148605419Y-114774619D01*
X148605419Y-114774619D02*
X148462562Y-114774619D01*
X149224467Y-114774619D02*
X149224467Y-114107952D01*
X149224467Y-114298428D02*
X149272086Y-114203190D01*
X149272086Y-114203190D02*
X149319705Y-114155571D01*
X149319705Y-114155571D02*
X149414943Y-114107952D01*
X149414943Y-114107952D02*
X149510181Y-114107952D01*
X150367324Y-114774619D02*
X149795896Y-114774619D01*
X150081610Y-114774619D02*
X150081610Y-113774619D01*
X150081610Y-113774619D02*
X149986372Y-113917476D01*
X149986372Y-113917476D02*
X149891134Y-114012714D01*
X149891134Y-114012714D02*
X149795896Y-114060333D01*
X150700658Y-113774619D02*
X151319705Y-113774619D01*
X151319705Y-113774619D02*
X150986372Y-114155571D01*
X150986372Y-114155571D02*
X151129229Y-114155571D01*
X151129229Y-114155571D02*
X151224467Y-114203190D01*
X151224467Y-114203190D02*
X151272086Y-114250809D01*
X151272086Y-114250809D02*
X151319705Y-114346047D01*
X151319705Y-114346047D02*
X151319705Y-114584142D01*
X151319705Y-114584142D02*
X151272086Y-114679380D01*
X151272086Y-114679380D02*
X151224467Y-114727000D01*
X151224467Y-114727000D02*
X151129229Y-114774619D01*
X151129229Y-114774619D02*
X150843515Y-114774619D01*
X150843515Y-114774619D02*
X150748277Y-114727000D01*
X150748277Y-114727000D02*
X150700658Y-114679380D01*
X151891134Y-114203190D02*
X151795896Y-114155571D01*
X151795896Y-114155571D02*
X151748277Y-114107952D01*
X151748277Y-114107952D02*
X151700658Y-114012714D01*
X151700658Y-114012714D02*
X151700658Y-113965095D01*
X151700658Y-113965095D02*
X151748277Y-113869857D01*
X151748277Y-113869857D02*
X151795896Y-113822238D01*
X151795896Y-113822238D02*
X151891134Y-113774619D01*
X151891134Y-113774619D02*
X152081610Y-113774619D01*
X152081610Y-113774619D02*
X152176848Y-113822238D01*
X152176848Y-113822238D02*
X152224467Y-113869857D01*
X152224467Y-113869857D02*
X152272086Y-113965095D01*
X152272086Y-113965095D02*
X152272086Y-114012714D01*
X152272086Y-114012714D02*
X152224467Y-114107952D01*
X152224467Y-114107952D02*
X152176848Y-114155571D01*
X152176848Y-114155571D02*
X152081610Y-114203190D01*
X152081610Y-114203190D02*
X151891134Y-114203190D01*
X151891134Y-114203190D02*
X151795896Y-114250809D01*
X151795896Y-114250809D02*
X151748277Y-114298428D01*
X151748277Y-114298428D02*
X151700658Y-114393666D01*
X151700658Y-114393666D02*
X151700658Y-114584142D01*
X151700658Y-114584142D02*
X151748277Y-114679380D01*
X151748277Y-114679380D02*
X151795896Y-114727000D01*
X151795896Y-114727000D02*
X151891134Y-114774619D01*
X151891134Y-114774619D02*
X152081610Y-114774619D01*
X152081610Y-114774619D02*
X152176848Y-114727000D01*
X152176848Y-114727000D02*
X152224467Y-114679380D01*
X152224467Y-114679380D02*
X152272086Y-114584142D01*
X152272086Y-114584142D02*
X152272086Y-114393666D01*
X152272086Y-114393666D02*
X152224467Y-114298428D01*
X152224467Y-114298428D02*
X152176848Y-114250809D01*
X152176848Y-114250809D02*
X152081610Y-114203190D01*
X108330476Y-115449819D02*
X108330476Y-116164104D01*
X108330476Y-116164104D02*
X108282857Y-116306961D01*
X108282857Y-116306961D02*
X108187619Y-116402200D01*
X108187619Y-116402200D02*
X108044762Y-116449819D01*
X108044762Y-116449819D02*
X107949524Y-116449819D01*
X109330476Y-116449819D02*
X108759048Y-116449819D01*
X109044762Y-116449819D02*
X109044762Y-115449819D01*
X109044762Y-115449819D02*
X108949524Y-115592676D01*
X108949524Y-115592676D02*
X108854286Y-115687914D01*
X108854286Y-115687914D02*
X108759048Y-115735533D01*
X109663810Y-115449819D02*
X110282857Y-115449819D01*
X110282857Y-115449819D02*
X109949524Y-115830771D01*
X109949524Y-115830771D02*
X110092381Y-115830771D01*
X110092381Y-115830771D02*
X110187619Y-115878390D01*
X110187619Y-115878390D02*
X110235238Y-115926009D01*
X110235238Y-115926009D02*
X110282857Y-116021247D01*
X110282857Y-116021247D02*
X110282857Y-116259342D01*
X110282857Y-116259342D02*
X110235238Y-116354580D01*
X110235238Y-116354580D02*
X110187619Y-116402200D01*
X110187619Y-116402200D02*
X110092381Y-116449819D01*
X110092381Y-116449819D02*
X109806667Y-116449819D01*
X109806667Y-116449819D02*
X109711429Y-116402200D01*
X109711429Y-116402200D02*
X109663810Y-116354580D01*
X91868333Y-121180866D02*
X91868333Y-122180866D01*
X91868333Y-122180866D02*
X91801666Y-122380866D01*
X91801666Y-122380866D02*
X91668333Y-122514200D01*
X91668333Y-122514200D02*
X91468333Y-122580866D01*
X91468333Y-122580866D02*
X91335000Y-122580866D01*
X93135000Y-121180866D02*
X92868333Y-121180866D01*
X92868333Y-121180866D02*
X92735000Y-121247533D01*
X92735000Y-121247533D02*
X92668333Y-121314200D01*
X92668333Y-121314200D02*
X92535000Y-121514200D01*
X92535000Y-121514200D02*
X92468333Y-121780866D01*
X92468333Y-121780866D02*
X92468333Y-122314200D01*
X92468333Y-122314200D02*
X92535000Y-122447533D01*
X92535000Y-122447533D02*
X92601667Y-122514200D01*
X92601667Y-122514200D02*
X92735000Y-122580866D01*
X92735000Y-122580866D02*
X93001667Y-122580866D01*
X93001667Y-122580866D02*
X93135000Y-122514200D01*
X93135000Y-122514200D02*
X93201667Y-122447533D01*
X93201667Y-122447533D02*
X93268333Y-122314200D01*
X93268333Y-122314200D02*
X93268333Y-121980866D01*
X93268333Y-121980866D02*
X93201667Y-121847533D01*
X93201667Y-121847533D02*
X93135000Y-121780866D01*
X93135000Y-121780866D02*
X93001667Y-121714200D01*
X93001667Y-121714200D02*
X92735000Y-121714200D01*
X92735000Y-121714200D02*
X92601667Y-121780866D01*
X92601667Y-121780866D02*
X92535000Y-121847533D01*
X92535000Y-121847533D02*
X92468333Y-121980866D01*
X92638333Y-105680866D02*
X92638333Y-106680866D01*
X92638333Y-106680866D02*
X92571666Y-106880866D01*
X92571666Y-106880866D02*
X92438333Y-107014200D01*
X92438333Y-107014200D02*
X92238333Y-107080866D01*
X92238333Y-107080866D02*
X92105000Y-107080866D01*
X93905000Y-106147533D02*
X93905000Y-107080866D01*
X93571667Y-105614200D02*
X93238333Y-106614200D01*
X93238333Y-106614200D02*
X94105000Y-106614200D01*
X178954819Y-45783333D02*
X179669104Y-45783333D01*
X179669104Y-45783333D02*
X179811961Y-45830952D01*
X179811961Y-45830952D02*
X179907200Y-45926190D01*
X179907200Y-45926190D02*
X179954819Y-46069047D01*
X179954819Y-46069047D02*
X179954819Y-46164285D01*
X179954819Y-44783333D02*
X179954819Y-45354761D01*
X179954819Y-45069047D02*
X178954819Y-45069047D01*
X178954819Y-45069047D02*
X179097676Y-45164285D01*
X179097676Y-45164285D02*
X179192914Y-45259523D01*
X179192914Y-45259523D02*
X179240533Y-45354761D01*
X95033333Y-115739866D02*
X95033333Y-116739866D01*
X95033333Y-116739866D02*
X94966666Y-116939866D01*
X94966666Y-116939866D02*
X94833333Y-117073200D01*
X94833333Y-117073200D02*
X94633333Y-117139866D01*
X94633333Y-117139866D02*
X94500000Y-117139866D01*
X96366667Y-115739866D02*
X95700000Y-115739866D01*
X95700000Y-115739866D02*
X95633333Y-116406533D01*
X95633333Y-116406533D02*
X95700000Y-116339866D01*
X95700000Y-116339866D02*
X95833333Y-116273200D01*
X95833333Y-116273200D02*
X96166667Y-116273200D01*
X96166667Y-116273200D02*
X96300000Y-116339866D01*
X96300000Y-116339866D02*
X96366667Y-116406533D01*
X96366667Y-116406533D02*
X96433333Y-116539866D01*
X96433333Y-116539866D02*
X96433333Y-116873200D01*
X96433333Y-116873200D02*
X96366667Y-117006533D01*
X96366667Y-117006533D02*
X96300000Y-117073200D01*
X96300000Y-117073200D02*
X96166667Y-117139866D01*
X96166667Y-117139866D02*
X95833333Y-117139866D01*
X95833333Y-117139866D02*
X95700000Y-117073200D01*
X95700000Y-117073200D02*
X95633333Y-117006533D01*
X93238095Y-70956819D02*
X93809523Y-70956819D01*
X93523809Y-71956819D02*
X93523809Y-70956819D01*
X94142857Y-71956819D02*
X94142857Y-70956819D01*
X94142857Y-70956819D02*
X94523809Y-70956819D01*
X94523809Y-70956819D02*
X94619047Y-71004438D01*
X94619047Y-71004438D02*
X94666666Y-71052057D01*
X94666666Y-71052057D02*
X94714285Y-71147295D01*
X94714285Y-71147295D02*
X94714285Y-71290152D01*
X94714285Y-71290152D02*
X94666666Y-71385390D01*
X94666666Y-71385390D02*
X94619047Y-71433009D01*
X94619047Y-71433009D02*
X94523809Y-71480628D01*
X94523809Y-71480628D02*
X94142857Y-71480628D01*
X95666666Y-71956819D02*
X95095238Y-71956819D01*
X95380952Y-71956819D02*
X95380952Y-70956819D01*
X95380952Y-70956819D02*
X95285714Y-71099676D01*
X95285714Y-71099676D02*
X95190476Y-71194914D01*
X95190476Y-71194914D02*
X95095238Y-71242533D01*
X107454819Y-72261904D02*
X108264342Y-72261904D01*
X108264342Y-72261904D02*
X108359580Y-72214285D01*
X108359580Y-72214285D02*
X108407200Y-72166666D01*
X108407200Y-72166666D02*
X108454819Y-72071428D01*
X108454819Y-72071428D02*
X108454819Y-71880952D01*
X108454819Y-71880952D02*
X108407200Y-71785714D01*
X108407200Y-71785714D02*
X108359580Y-71738095D01*
X108359580Y-71738095D02*
X108264342Y-71690476D01*
X108264342Y-71690476D02*
X107454819Y-71690476D01*
X107454819Y-70738095D02*
X107454819Y-71214285D01*
X107454819Y-71214285D02*
X107931009Y-71261904D01*
X107931009Y-71261904D02*
X107883390Y-71214285D01*
X107883390Y-71214285D02*
X107835771Y-71119047D01*
X107835771Y-71119047D02*
X107835771Y-70880952D01*
X107835771Y-70880952D02*
X107883390Y-70785714D01*
X107883390Y-70785714D02*
X107931009Y-70738095D01*
X107931009Y-70738095D02*
X108026247Y-70690476D01*
X108026247Y-70690476D02*
X108264342Y-70690476D01*
X108264342Y-70690476D02*
X108359580Y-70738095D01*
X108359580Y-70738095D02*
X108407200Y-70785714D01*
X108407200Y-70785714D02*
X108454819Y-70880952D01*
X108454819Y-70880952D02*
X108454819Y-71119047D01*
X108454819Y-71119047D02*
X108407200Y-71214285D01*
X108407200Y-71214285D02*
X108359580Y-71261904D01*
X130738095Y-106956819D02*
X131309523Y-106956819D01*
X131023809Y-107956819D02*
X131023809Y-106956819D01*
X131642857Y-107956819D02*
X131642857Y-106956819D01*
X131642857Y-106956819D02*
X132023809Y-106956819D01*
X132023809Y-106956819D02*
X132119047Y-107004438D01*
X132119047Y-107004438D02*
X132166666Y-107052057D01*
X132166666Y-107052057D02*
X132214285Y-107147295D01*
X132214285Y-107147295D02*
X132214285Y-107290152D01*
X132214285Y-107290152D02*
X132166666Y-107385390D01*
X132166666Y-107385390D02*
X132119047Y-107433009D01*
X132119047Y-107433009D02*
X132023809Y-107480628D01*
X132023809Y-107480628D02*
X131642857Y-107480628D01*
X133119047Y-106956819D02*
X132642857Y-106956819D01*
X132642857Y-106956819D02*
X132595238Y-107433009D01*
X132595238Y-107433009D02*
X132642857Y-107385390D01*
X132642857Y-107385390D02*
X132738095Y-107337771D01*
X132738095Y-107337771D02*
X132976190Y-107337771D01*
X132976190Y-107337771D02*
X133071428Y-107385390D01*
X133071428Y-107385390D02*
X133119047Y-107433009D01*
X133119047Y-107433009D02*
X133166666Y-107528247D01*
X133166666Y-107528247D02*
X133166666Y-107766342D01*
X133166666Y-107766342D02*
X133119047Y-107861580D01*
X133119047Y-107861580D02*
X133071428Y-107909200D01*
X133071428Y-107909200D02*
X132976190Y-107956819D01*
X132976190Y-107956819D02*
X132738095Y-107956819D01*
X132738095Y-107956819D02*
X132642857Y-107909200D01*
X132642857Y-107909200D02*
X132595238Y-107861580D01*
X133738095Y-98956819D02*
X134309523Y-98956819D01*
X134023809Y-99956819D02*
X134023809Y-98956819D01*
X134642857Y-99956819D02*
X134642857Y-98956819D01*
X134642857Y-98956819D02*
X135023809Y-98956819D01*
X135023809Y-98956819D02*
X135119047Y-99004438D01*
X135119047Y-99004438D02*
X135166666Y-99052057D01*
X135166666Y-99052057D02*
X135214285Y-99147295D01*
X135214285Y-99147295D02*
X135214285Y-99290152D01*
X135214285Y-99290152D02*
X135166666Y-99385390D01*
X135166666Y-99385390D02*
X135119047Y-99433009D01*
X135119047Y-99433009D02*
X135023809Y-99480628D01*
X135023809Y-99480628D02*
X134642857Y-99480628D01*
X136071428Y-99290152D02*
X136071428Y-99956819D01*
X135833333Y-98909200D02*
X135595238Y-99623485D01*
X135595238Y-99623485D02*
X136214285Y-99623485D01*
X149142857Y-57454819D02*
X149714285Y-57454819D01*
X149428571Y-58454819D02*
X149428571Y-57454819D01*
X150523809Y-58454819D02*
X150047619Y-58454819D01*
X150047619Y-58454819D02*
X150047619Y-57454819D01*
X150857143Y-57931009D02*
X151190476Y-57931009D01*
X151333333Y-58454819D02*
X150857143Y-58454819D01*
X150857143Y-58454819D02*
X150857143Y-57454819D01*
X150857143Y-57454819D02*
X151333333Y-57454819D01*
X151809524Y-58454819D02*
X152000000Y-58454819D01*
X152000000Y-58454819D02*
X152095238Y-58407200D01*
X152095238Y-58407200D02*
X152142857Y-58359580D01*
X152142857Y-58359580D02*
X152238095Y-58216723D01*
X152238095Y-58216723D02*
X152285714Y-58026247D01*
X152285714Y-58026247D02*
X152285714Y-57645295D01*
X152285714Y-57645295D02*
X152238095Y-57550057D01*
X152238095Y-57550057D02*
X152190476Y-57502438D01*
X152190476Y-57502438D02*
X152095238Y-57454819D01*
X152095238Y-57454819D02*
X151904762Y-57454819D01*
X151904762Y-57454819D02*
X151809524Y-57502438D01*
X151809524Y-57502438D02*
X151761905Y-57550057D01*
X151761905Y-57550057D02*
X151714286Y-57645295D01*
X151714286Y-57645295D02*
X151714286Y-57883390D01*
X151714286Y-57883390D02*
X151761905Y-57978628D01*
X151761905Y-57978628D02*
X151809524Y-58026247D01*
X151809524Y-58026247D02*
X151904762Y-58073866D01*
X151904762Y-58073866D02*
X152095238Y-58073866D01*
X152095238Y-58073866D02*
X152190476Y-58026247D01*
X152190476Y-58026247D02*
X152238095Y-57978628D01*
X152238095Y-57978628D02*
X152285714Y-57883390D01*
X152666667Y-57550057D02*
X152714286Y-57502438D01*
X152714286Y-57502438D02*
X152809524Y-57454819D01*
X152809524Y-57454819D02*
X153047619Y-57454819D01*
X153047619Y-57454819D02*
X153142857Y-57502438D01*
X153142857Y-57502438D02*
X153190476Y-57550057D01*
X153190476Y-57550057D02*
X153238095Y-57645295D01*
X153238095Y-57645295D02*
X153238095Y-57740533D01*
X153238095Y-57740533D02*
X153190476Y-57883390D01*
X153190476Y-57883390D02*
X152619048Y-58454819D01*
X152619048Y-58454819D02*
X153238095Y-58454819D01*
X153857143Y-57454819D02*
X153952381Y-57454819D01*
X153952381Y-57454819D02*
X154047619Y-57502438D01*
X154047619Y-57502438D02*
X154095238Y-57550057D01*
X154095238Y-57550057D02*
X154142857Y-57645295D01*
X154142857Y-57645295D02*
X154190476Y-57835771D01*
X154190476Y-57835771D02*
X154190476Y-58073866D01*
X154190476Y-58073866D02*
X154142857Y-58264342D01*
X154142857Y-58264342D02*
X154095238Y-58359580D01*
X154095238Y-58359580D02*
X154047619Y-58407200D01*
X154047619Y-58407200D02*
X153952381Y-58454819D01*
X153952381Y-58454819D02*
X153857143Y-58454819D01*
X153857143Y-58454819D02*
X153761905Y-58407200D01*
X153761905Y-58407200D02*
X153714286Y-58359580D01*
X153714286Y-58359580D02*
X153666667Y-58264342D01*
X153666667Y-58264342D02*
X153619048Y-58073866D01*
X153619048Y-58073866D02*
X153619048Y-57835771D01*
X153619048Y-57835771D02*
X153666667Y-57645295D01*
X153666667Y-57645295D02*
X153714286Y-57550057D01*
X153714286Y-57550057D02*
X153761905Y-57502438D01*
X153761905Y-57502438D02*
X153857143Y-57454819D01*
X155142857Y-58454819D02*
X154571429Y-58454819D01*
X154857143Y-58454819D02*
X154857143Y-57454819D01*
X154857143Y-57454819D02*
X154761905Y-57597676D01*
X154761905Y-57597676D02*
X154666667Y-57692914D01*
X154666667Y-57692914D02*
X154571429Y-57740533D01*
X155523810Y-58407200D02*
X155666667Y-58454819D01*
X155666667Y-58454819D02*
X155904762Y-58454819D01*
X155904762Y-58454819D02*
X156000000Y-58407200D01*
X156000000Y-58407200D02*
X156047619Y-58359580D01*
X156047619Y-58359580D02*
X156095238Y-58264342D01*
X156095238Y-58264342D02*
X156095238Y-58169104D01*
X156095238Y-58169104D02*
X156047619Y-58073866D01*
X156047619Y-58073866D02*
X156000000Y-58026247D01*
X156000000Y-58026247D02*
X155904762Y-57978628D01*
X155904762Y-57978628D02*
X155714286Y-57931009D01*
X155714286Y-57931009D02*
X155619048Y-57883390D01*
X155619048Y-57883390D02*
X155571429Y-57835771D01*
X155571429Y-57835771D02*
X155523810Y-57740533D01*
X155523810Y-57740533D02*
X155523810Y-57645295D01*
X155523810Y-57645295D02*
X155571429Y-57550057D01*
X155571429Y-57550057D02*
X155619048Y-57502438D01*
X155619048Y-57502438D02*
X155714286Y-57454819D01*
X155714286Y-57454819D02*
X155952381Y-57454819D01*
X155952381Y-57454819D02*
X156095238Y-57502438D01*
X157047619Y-57502438D02*
X156952381Y-57454819D01*
X156952381Y-57454819D02*
X156809524Y-57454819D01*
X156809524Y-57454819D02*
X156666667Y-57502438D01*
X156666667Y-57502438D02*
X156571429Y-57597676D01*
X156571429Y-57597676D02*
X156523810Y-57692914D01*
X156523810Y-57692914D02*
X156476191Y-57883390D01*
X156476191Y-57883390D02*
X156476191Y-58026247D01*
X156476191Y-58026247D02*
X156523810Y-58216723D01*
X156523810Y-58216723D02*
X156571429Y-58311961D01*
X156571429Y-58311961D02*
X156666667Y-58407200D01*
X156666667Y-58407200D02*
X156809524Y-58454819D01*
X156809524Y-58454819D02*
X156904762Y-58454819D01*
X156904762Y-58454819D02*
X157047619Y-58407200D01*
X157047619Y-58407200D02*
X157095238Y-58359580D01*
X157095238Y-58359580D02*
X157095238Y-58026247D01*
X157095238Y-58026247D02*
X156904762Y-58026247D01*
X158047619Y-58454819D02*
X157476191Y-58454819D01*
X157761905Y-58454819D02*
X157761905Y-57454819D01*
X157761905Y-57454819D02*
X157666667Y-57597676D01*
X157666667Y-57597676D02*
X157571429Y-57692914D01*
X157571429Y-57692914D02*
X157476191Y-57740533D01*
X158238096Y-58550057D02*
X159000000Y-58550057D01*
X159142858Y-57454819D02*
X159761905Y-57454819D01*
X159761905Y-57454819D02*
X159428572Y-57835771D01*
X159428572Y-57835771D02*
X159571429Y-57835771D01*
X159571429Y-57835771D02*
X159666667Y-57883390D01*
X159666667Y-57883390D02*
X159714286Y-57931009D01*
X159714286Y-57931009D02*
X159761905Y-58026247D01*
X159761905Y-58026247D02*
X159761905Y-58264342D01*
X159761905Y-58264342D02*
X159714286Y-58359580D01*
X159714286Y-58359580D02*
X159666667Y-58407200D01*
X159666667Y-58407200D02*
X159571429Y-58454819D01*
X159571429Y-58454819D02*
X159285715Y-58454819D01*
X159285715Y-58454819D02*
X159190477Y-58407200D01*
X159190477Y-58407200D02*
X159142858Y-58359580D01*
X146442857Y-33869819D02*
X147014285Y-33869819D01*
X146728571Y-34869819D02*
X146728571Y-33869819D01*
X147823809Y-34869819D02*
X147347619Y-34869819D01*
X147347619Y-34869819D02*
X147347619Y-33869819D01*
X148157143Y-34346009D02*
X148490476Y-34346009D01*
X148633333Y-34869819D02*
X148157143Y-34869819D01*
X148157143Y-34869819D02*
X148157143Y-33869819D01*
X148157143Y-33869819D02*
X148633333Y-33869819D01*
X149109524Y-34869819D02*
X149300000Y-34869819D01*
X149300000Y-34869819D02*
X149395238Y-34822200D01*
X149395238Y-34822200D02*
X149442857Y-34774580D01*
X149442857Y-34774580D02*
X149538095Y-34631723D01*
X149538095Y-34631723D02*
X149585714Y-34441247D01*
X149585714Y-34441247D02*
X149585714Y-34060295D01*
X149585714Y-34060295D02*
X149538095Y-33965057D01*
X149538095Y-33965057D02*
X149490476Y-33917438D01*
X149490476Y-33917438D02*
X149395238Y-33869819D01*
X149395238Y-33869819D02*
X149204762Y-33869819D01*
X149204762Y-33869819D02*
X149109524Y-33917438D01*
X149109524Y-33917438D02*
X149061905Y-33965057D01*
X149061905Y-33965057D02*
X149014286Y-34060295D01*
X149014286Y-34060295D02*
X149014286Y-34298390D01*
X149014286Y-34298390D02*
X149061905Y-34393628D01*
X149061905Y-34393628D02*
X149109524Y-34441247D01*
X149109524Y-34441247D02*
X149204762Y-34488866D01*
X149204762Y-34488866D02*
X149395238Y-34488866D01*
X149395238Y-34488866D02*
X149490476Y-34441247D01*
X149490476Y-34441247D02*
X149538095Y-34393628D01*
X149538095Y-34393628D02*
X149585714Y-34298390D01*
X149966667Y-33965057D02*
X150014286Y-33917438D01*
X150014286Y-33917438D02*
X150109524Y-33869819D01*
X150109524Y-33869819D02*
X150347619Y-33869819D01*
X150347619Y-33869819D02*
X150442857Y-33917438D01*
X150442857Y-33917438D02*
X150490476Y-33965057D01*
X150490476Y-33965057D02*
X150538095Y-34060295D01*
X150538095Y-34060295D02*
X150538095Y-34155533D01*
X150538095Y-34155533D02*
X150490476Y-34298390D01*
X150490476Y-34298390D02*
X149919048Y-34869819D01*
X149919048Y-34869819D02*
X150538095Y-34869819D01*
X151157143Y-33869819D02*
X151252381Y-33869819D01*
X151252381Y-33869819D02*
X151347619Y-33917438D01*
X151347619Y-33917438D02*
X151395238Y-33965057D01*
X151395238Y-33965057D02*
X151442857Y-34060295D01*
X151442857Y-34060295D02*
X151490476Y-34250771D01*
X151490476Y-34250771D02*
X151490476Y-34488866D01*
X151490476Y-34488866D02*
X151442857Y-34679342D01*
X151442857Y-34679342D02*
X151395238Y-34774580D01*
X151395238Y-34774580D02*
X151347619Y-34822200D01*
X151347619Y-34822200D02*
X151252381Y-34869819D01*
X151252381Y-34869819D02*
X151157143Y-34869819D01*
X151157143Y-34869819D02*
X151061905Y-34822200D01*
X151061905Y-34822200D02*
X151014286Y-34774580D01*
X151014286Y-34774580D02*
X150966667Y-34679342D01*
X150966667Y-34679342D02*
X150919048Y-34488866D01*
X150919048Y-34488866D02*
X150919048Y-34250771D01*
X150919048Y-34250771D02*
X150966667Y-34060295D01*
X150966667Y-34060295D02*
X151014286Y-33965057D01*
X151014286Y-33965057D02*
X151061905Y-33917438D01*
X151061905Y-33917438D02*
X151157143Y-33869819D01*
X152442857Y-34869819D02*
X151871429Y-34869819D01*
X152157143Y-34869819D02*
X152157143Y-33869819D01*
X152157143Y-33869819D02*
X152061905Y-34012676D01*
X152061905Y-34012676D02*
X151966667Y-34107914D01*
X151966667Y-34107914D02*
X151871429Y-34155533D01*
X152823810Y-34822200D02*
X152966667Y-34869819D01*
X152966667Y-34869819D02*
X153204762Y-34869819D01*
X153204762Y-34869819D02*
X153300000Y-34822200D01*
X153300000Y-34822200D02*
X153347619Y-34774580D01*
X153347619Y-34774580D02*
X153395238Y-34679342D01*
X153395238Y-34679342D02*
X153395238Y-34584104D01*
X153395238Y-34584104D02*
X153347619Y-34488866D01*
X153347619Y-34488866D02*
X153300000Y-34441247D01*
X153300000Y-34441247D02*
X153204762Y-34393628D01*
X153204762Y-34393628D02*
X153014286Y-34346009D01*
X153014286Y-34346009D02*
X152919048Y-34298390D01*
X152919048Y-34298390D02*
X152871429Y-34250771D01*
X152871429Y-34250771D02*
X152823810Y-34155533D01*
X152823810Y-34155533D02*
X152823810Y-34060295D01*
X152823810Y-34060295D02*
X152871429Y-33965057D01*
X152871429Y-33965057D02*
X152919048Y-33917438D01*
X152919048Y-33917438D02*
X153014286Y-33869819D01*
X153014286Y-33869819D02*
X153252381Y-33869819D01*
X153252381Y-33869819D02*
X153395238Y-33917438D01*
X154347619Y-33917438D02*
X154252381Y-33869819D01*
X154252381Y-33869819D02*
X154109524Y-33869819D01*
X154109524Y-33869819D02*
X153966667Y-33917438D01*
X153966667Y-33917438D02*
X153871429Y-34012676D01*
X153871429Y-34012676D02*
X153823810Y-34107914D01*
X153823810Y-34107914D02*
X153776191Y-34298390D01*
X153776191Y-34298390D02*
X153776191Y-34441247D01*
X153776191Y-34441247D02*
X153823810Y-34631723D01*
X153823810Y-34631723D02*
X153871429Y-34726961D01*
X153871429Y-34726961D02*
X153966667Y-34822200D01*
X153966667Y-34822200D02*
X154109524Y-34869819D01*
X154109524Y-34869819D02*
X154204762Y-34869819D01*
X154204762Y-34869819D02*
X154347619Y-34822200D01*
X154347619Y-34822200D02*
X154395238Y-34774580D01*
X154395238Y-34774580D02*
X154395238Y-34441247D01*
X154395238Y-34441247D02*
X154204762Y-34441247D01*
X155347619Y-34869819D02*
X154776191Y-34869819D01*
X155061905Y-34869819D02*
X155061905Y-33869819D01*
X155061905Y-33869819D02*
X154966667Y-34012676D01*
X154966667Y-34012676D02*
X154871429Y-34107914D01*
X154871429Y-34107914D02*
X154776191Y-34155533D01*
X155538096Y-34965057D02*
X156300000Y-34965057D01*
X157061905Y-34869819D02*
X156490477Y-34869819D01*
X156776191Y-34869819D02*
X156776191Y-33869819D01*
X156776191Y-33869819D02*
X156680953Y-34012676D01*
X156680953Y-34012676D02*
X156585715Y-34107914D01*
X156585715Y-34107914D02*
X156490477Y-34155533D01*
X150642857Y-45954819D02*
X151214285Y-45954819D01*
X150928571Y-46954819D02*
X150928571Y-45954819D01*
X152023809Y-46954819D02*
X151547619Y-46954819D01*
X151547619Y-46954819D02*
X151547619Y-45954819D01*
X152357143Y-46431009D02*
X152690476Y-46431009D01*
X152833333Y-46954819D02*
X152357143Y-46954819D01*
X152357143Y-46954819D02*
X152357143Y-45954819D01*
X152357143Y-45954819D02*
X152833333Y-45954819D01*
X153309524Y-46954819D02*
X153500000Y-46954819D01*
X153500000Y-46954819D02*
X153595238Y-46907200D01*
X153595238Y-46907200D02*
X153642857Y-46859580D01*
X153642857Y-46859580D02*
X153738095Y-46716723D01*
X153738095Y-46716723D02*
X153785714Y-46526247D01*
X153785714Y-46526247D02*
X153785714Y-46145295D01*
X153785714Y-46145295D02*
X153738095Y-46050057D01*
X153738095Y-46050057D02*
X153690476Y-46002438D01*
X153690476Y-46002438D02*
X153595238Y-45954819D01*
X153595238Y-45954819D02*
X153404762Y-45954819D01*
X153404762Y-45954819D02*
X153309524Y-46002438D01*
X153309524Y-46002438D02*
X153261905Y-46050057D01*
X153261905Y-46050057D02*
X153214286Y-46145295D01*
X153214286Y-46145295D02*
X153214286Y-46383390D01*
X153214286Y-46383390D02*
X153261905Y-46478628D01*
X153261905Y-46478628D02*
X153309524Y-46526247D01*
X153309524Y-46526247D02*
X153404762Y-46573866D01*
X153404762Y-46573866D02*
X153595238Y-46573866D01*
X153595238Y-46573866D02*
X153690476Y-46526247D01*
X153690476Y-46526247D02*
X153738095Y-46478628D01*
X153738095Y-46478628D02*
X153785714Y-46383390D01*
X154166667Y-46050057D02*
X154214286Y-46002438D01*
X154214286Y-46002438D02*
X154309524Y-45954819D01*
X154309524Y-45954819D02*
X154547619Y-45954819D01*
X154547619Y-45954819D02*
X154642857Y-46002438D01*
X154642857Y-46002438D02*
X154690476Y-46050057D01*
X154690476Y-46050057D02*
X154738095Y-46145295D01*
X154738095Y-46145295D02*
X154738095Y-46240533D01*
X154738095Y-46240533D02*
X154690476Y-46383390D01*
X154690476Y-46383390D02*
X154119048Y-46954819D01*
X154119048Y-46954819D02*
X154738095Y-46954819D01*
X155357143Y-45954819D02*
X155452381Y-45954819D01*
X155452381Y-45954819D02*
X155547619Y-46002438D01*
X155547619Y-46002438D02*
X155595238Y-46050057D01*
X155595238Y-46050057D02*
X155642857Y-46145295D01*
X155642857Y-46145295D02*
X155690476Y-46335771D01*
X155690476Y-46335771D02*
X155690476Y-46573866D01*
X155690476Y-46573866D02*
X155642857Y-46764342D01*
X155642857Y-46764342D02*
X155595238Y-46859580D01*
X155595238Y-46859580D02*
X155547619Y-46907200D01*
X155547619Y-46907200D02*
X155452381Y-46954819D01*
X155452381Y-46954819D02*
X155357143Y-46954819D01*
X155357143Y-46954819D02*
X155261905Y-46907200D01*
X155261905Y-46907200D02*
X155214286Y-46859580D01*
X155214286Y-46859580D02*
X155166667Y-46764342D01*
X155166667Y-46764342D02*
X155119048Y-46573866D01*
X155119048Y-46573866D02*
X155119048Y-46335771D01*
X155119048Y-46335771D02*
X155166667Y-46145295D01*
X155166667Y-46145295D02*
X155214286Y-46050057D01*
X155214286Y-46050057D02*
X155261905Y-46002438D01*
X155261905Y-46002438D02*
X155357143Y-45954819D01*
X156642857Y-46954819D02*
X156071429Y-46954819D01*
X156357143Y-46954819D02*
X156357143Y-45954819D01*
X156357143Y-45954819D02*
X156261905Y-46097676D01*
X156261905Y-46097676D02*
X156166667Y-46192914D01*
X156166667Y-46192914D02*
X156071429Y-46240533D01*
X157023810Y-46907200D02*
X157166667Y-46954819D01*
X157166667Y-46954819D02*
X157404762Y-46954819D01*
X157404762Y-46954819D02*
X157500000Y-46907200D01*
X157500000Y-46907200D02*
X157547619Y-46859580D01*
X157547619Y-46859580D02*
X157595238Y-46764342D01*
X157595238Y-46764342D02*
X157595238Y-46669104D01*
X157595238Y-46669104D02*
X157547619Y-46573866D01*
X157547619Y-46573866D02*
X157500000Y-46526247D01*
X157500000Y-46526247D02*
X157404762Y-46478628D01*
X157404762Y-46478628D02*
X157214286Y-46431009D01*
X157214286Y-46431009D02*
X157119048Y-46383390D01*
X157119048Y-46383390D02*
X157071429Y-46335771D01*
X157071429Y-46335771D02*
X157023810Y-46240533D01*
X157023810Y-46240533D02*
X157023810Y-46145295D01*
X157023810Y-46145295D02*
X157071429Y-46050057D01*
X157071429Y-46050057D02*
X157119048Y-46002438D01*
X157119048Y-46002438D02*
X157214286Y-45954819D01*
X157214286Y-45954819D02*
X157452381Y-45954819D01*
X157452381Y-45954819D02*
X157595238Y-46002438D01*
X158547619Y-46002438D02*
X158452381Y-45954819D01*
X158452381Y-45954819D02*
X158309524Y-45954819D01*
X158309524Y-45954819D02*
X158166667Y-46002438D01*
X158166667Y-46002438D02*
X158071429Y-46097676D01*
X158071429Y-46097676D02*
X158023810Y-46192914D01*
X158023810Y-46192914D02*
X157976191Y-46383390D01*
X157976191Y-46383390D02*
X157976191Y-46526247D01*
X157976191Y-46526247D02*
X158023810Y-46716723D01*
X158023810Y-46716723D02*
X158071429Y-46811961D01*
X158071429Y-46811961D02*
X158166667Y-46907200D01*
X158166667Y-46907200D02*
X158309524Y-46954819D01*
X158309524Y-46954819D02*
X158404762Y-46954819D01*
X158404762Y-46954819D02*
X158547619Y-46907200D01*
X158547619Y-46907200D02*
X158595238Y-46859580D01*
X158595238Y-46859580D02*
X158595238Y-46526247D01*
X158595238Y-46526247D02*
X158404762Y-46526247D01*
X159547619Y-46954819D02*
X158976191Y-46954819D01*
X159261905Y-46954819D02*
X159261905Y-45954819D01*
X159261905Y-45954819D02*
X159166667Y-46097676D01*
X159166667Y-46097676D02*
X159071429Y-46192914D01*
X159071429Y-46192914D02*
X158976191Y-46240533D01*
X159738096Y-47050057D02*
X160500000Y-47050057D01*
X160690477Y-46050057D02*
X160738096Y-46002438D01*
X160738096Y-46002438D02*
X160833334Y-45954819D01*
X160833334Y-45954819D02*
X161071429Y-45954819D01*
X161071429Y-45954819D02*
X161166667Y-46002438D01*
X161166667Y-46002438D02*
X161214286Y-46050057D01*
X161214286Y-46050057D02*
X161261905Y-46145295D01*
X161261905Y-46145295D02*
X161261905Y-46240533D01*
X161261905Y-46240533D02*
X161214286Y-46383390D01*
X161214286Y-46383390D02*
X160642858Y-46954819D01*
X160642858Y-46954819D02*
X161261905Y-46954819D01*
X154046666Y-84454819D02*
X154046666Y-85169104D01*
X154046666Y-85169104D02*
X153999047Y-85311961D01*
X153999047Y-85311961D02*
X153903809Y-85407200D01*
X153903809Y-85407200D02*
X153760952Y-85454819D01*
X153760952Y-85454819D02*
X153665714Y-85454819D01*
X154475238Y-84550057D02*
X154522857Y-84502438D01*
X154522857Y-84502438D02*
X154618095Y-84454819D01*
X154618095Y-84454819D02*
X154856190Y-84454819D01*
X154856190Y-84454819D02*
X154951428Y-84502438D01*
X154951428Y-84502438D02*
X154999047Y-84550057D01*
X154999047Y-84550057D02*
X155046666Y-84645295D01*
X155046666Y-84645295D02*
X155046666Y-84740533D01*
X155046666Y-84740533D02*
X154999047Y-84883390D01*
X154999047Y-84883390D02*
X154427619Y-85454819D01*
X154427619Y-85454819D02*
X155046666Y-85454819D01*
X154046666Y-96494819D02*
X154046666Y-97209104D01*
X154046666Y-97209104D02*
X153999047Y-97351961D01*
X153999047Y-97351961D02*
X153903809Y-97447200D01*
X153903809Y-97447200D02*
X153760952Y-97494819D01*
X153760952Y-97494819D02*
X153665714Y-97494819D01*
X154427619Y-96494819D02*
X155046666Y-96494819D01*
X155046666Y-96494819D02*
X154713333Y-96875771D01*
X154713333Y-96875771D02*
X154856190Y-96875771D01*
X154856190Y-96875771D02*
X154951428Y-96923390D01*
X154951428Y-96923390D02*
X154999047Y-96971009D01*
X154999047Y-96971009D02*
X155046666Y-97066247D01*
X155046666Y-97066247D02*
X155046666Y-97304342D01*
X155046666Y-97304342D02*
X154999047Y-97399580D01*
X154999047Y-97399580D02*
X154951428Y-97447200D01*
X154951428Y-97447200D02*
X154856190Y-97494819D01*
X154856190Y-97494819D02*
X154570476Y-97494819D01*
X154570476Y-97494819D02*
X154475238Y-97447200D01*
X154475238Y-97447200D02*
X154427619Y-97399580D01*
X178238095Y-58454819D02*
X178238095Y-59264342D01*
X178238095Y-59264342D02*
X178285714Y-59359580D01*
X178285714Y-59359580D02*
X178333333Y-59407200D01*
X178333333Y-59407200D02*
X178428571Y-59454819D01*
X178428571Y-59454819D02*
X178619047Y-59454819D01*
X178619047Y-59454819D02*
X178714285Y-59407200D01*
X178714285Y-59407200D02*
X178761904Y-59359580D01*
X178761904Y-59359580D02*
X178809523Y-59264342D01*
X178809523Y-59264342D02*
X178809523Y-58454819D01*
X179190476Y-58454819D02*
X179809523Y-58454819D01*
X179809523Y-58454819D02*
X179476190Y-58835771D01*
X179476190Y-58835771D02*
X179619047Y-58835771D01*
X179619047Y-58835771D02*
X179714285Y-58883390D01*
X179714285Y-58883390D02*
X179761904Y-58931009D01*
X179761904Y-58931009D02*
X179809523Y-59026247D01*
X179809523Y-59026247D02*
X179809523Y-59264342D01*
X179809523Y-59264342D02*
X179761904Y-59359580D01*
X179761904Y-59359580D02*
X179714285Y-59407200D01*
X179714285Y-59407200D02*
X179619047Y-59454819D01*
X179619047Y-59454819D02*
X179333333Y-59454819D01*
X179333333Y-59454819D02*
X179238095Y-59407200D01*
X179238095Y-59407200D02*
X179190476Y-59359580D01*
X155641667Y-107572200D02*
X155784524Y-107619819D01*
X155784524Y-107619819D02*
X156022619Y-107619819D01*
X156022619Y-107619819D02*
X156117857Y-107572200D01*
X156117857Y-107572200D02*
X156165476Y-107524580D01*
X156165476Y-107524580D02*
X156213095Y-107429342D01*
X156213095Y-107429342D02*
X156213095Y-107334104D01*
X156213095Y-107334104D02*
X156165476Y-107238866D01*
X156165476Y-107238866D02*
X156117857Y-107191247D01*
X156117857Y-107191247D02*
X156022619Y-107143628D01*
X156022619Y-107143628D02*
X155832143Y-107096009D01*
X155832143Y-107096009D02*
X155736905Y-107048390D01*
X155736905Y-107048390D02*
X155689286Y-107000771D01*
X155689286Y-107000771D02*
X155641667Y-106905533D01*
X155641667Y-106905533D02*
X155641667Y-106810295D01*
X155641667Y-106810295D02*
X155689286Y-106715057D01*
X155689286Y-106715057D02*
X155736905Y-106667438D01*
X155736905Y-106667438D02*
X155832143Y-106619819D01*
X155832143Y-106619819D02*
X156070238Y-106619819D01*
X156070238Y-106619819D02*
X156213095Y-106667438D01*
X156546429Y-106619819D02*
X156784524Y-107619819D01*
X156784524Y-107619819D02*
X156975000Y-106905533D01*
X156975000Y-106905533D02*
X157165476Y-107619819D01*
X157165476Y-107619819D02*
X157403572Y-106619819D01*
X158308333Y-107619819D02*
X157736905Y-107619819D01*
X158022619Y-107619819D02*
X158022619Y-106619819D01*
X158022619Y-106619819D02*
X157927381Y-106762676D01*
X157927381Y-106762676D02*
X157832143Y-106857914D01*
X157832143Y-106857914D02*
X157736905Y-106905533D01*
X146917857Y-70869819D02*
X147489285Y-70869819D01*
X147203571Y-71869819D02*
X147203571Y-70869819D01*
X148298809Y-71869819D02*
X147822619Y-71869819D01*
X147822619Y-71869819D02*
X147822619Y-70869819D01*
X148632143Y-71346009D02*
X148965476Y-71346009D01*
X149108333Y-71869819D02*
X148632143Y-71869819D01*
X148632143Y-71869819D02*
X148632143Y-70869819D01*
X148632143Y-70869819D02*
X149108333Y-70869819D01*
X149584524Y-71869819D02*
X149775000Y-71869819D01*
X149775000Y-71869819D02*
X149870238Y-71822200D01*
X149870238Y-71822200D02*
X149917857Y-71774580D01*
X149917857Y-71774580D02*
X150013095Y-71631723D01*
X150013095Y-71631723D02*
X150060714Y-71441247D01*
X150060714Y-71441247D02*
X150060714Y-71060295D01*
X150060714Y-71060295D02*
X150013095Y-70965057D01*
X150013095Y-70965057D02*
X149965476Y-70917438D01*
X149965476Y-70917438D02*
X149870238Y-70869819D01*
X149870238Y-70869819D02*
X149679762Y-70869819D01*
X149679762Y-70869819D02*
X149584524Y-70917438D01*
X149584524Y-70917438D02*
X149536905Y-70965057D01*
X149536905Y-70965057D02*
X149489286Y-71060295D01*
X149489286Y-71060295D02*
X149489286Y-71298390D01*
X149489286Y-71298390D02*
X149536905Y-71393628D01*
X149536905Y-71393628D02*
X149584524Y-71441247D01*
X149584524Y-71441247D02*
X149679762Y-71488866D01*
X149679762Y-71488866D02*
X149870238Y-71488866D01*
X149870238Y-71488866D02*
X149965476Y-71441247D01*
X149965476Y-71441247D02*
X150013095Y-71393628D01*
X150013095Y-71393628D02*
X150060714Y-71298390D01*
X150441667Y-70965057D02*
X150489286Y-70917438D01*
X150489286Y-70917438D02*
X150584524Y-70869819D01*
X150584524Y-70869819D02*
X150822619Y-70869819D01*
X150822619Y-70869819D02*
X150917857Y-70917438D01*
X150917857Y-70917438D02*
X150965476Y-70965057D01*
X150965476Y-70965057D02*
X151013095Y-71060295D01*
X151013095Y-71060295D02*
X151013095Y-71155533D01*
X151013095Y-71155533D02*
X150965476Y-71298390D01*
X150965476Y-71298390D02*
X150394048Y-71869819D01*
X150394048Y-71869819D02*
X151013095Y-71869819D01*
X151632143Y-70869819D02*
X151727381Y-70869819D01*
X151727381Y-70869819D02*
X151822619Y-70917438D01*
X151822619Y-70917438D02*
X151870238Y-70965057D01*
X151870238Y-70965057D02*
X151917857Y-71060295D01*
X151917857Y-71060295D02*
X151965476Y-71250771D01*
X151965476Y-71250771D02*
X151965476Y-71488866D01*
X151965476Y-71488866D02*
X151917857Y-71679342D01*
X151917857Y-71679342D02*
X151870238Y-71774580D01*
X151870238Y-71774580D02*
X151822619Y-71822200D01*
X151822619Y-71822200D02*
X151727381Y-71869819D01*
X151727381Y-71869819D02*
X151632143Y-71869819D01*
X151632143Y-71869819D02*
X151536905Y-71822200D01*
X151536905Y-71822200D02*
X151489286Y-71774580D01*
X151489286Y-71774580D02*
X151441667Y-71679342D01*
X151441667Y-71679342D02*
X151394048Y-71488866D01*
X151394048Y-71488866D02*
X151394048Y-71250771D01*
X151394048Y-71250771D02*
X151441667Y-71060295D01*
X151441667Y-71060295D02*
X151489286Y-70965057D01*
X151489286Y-70965057D02*
X151536905Y-70917438D01*
X151536905Y-70917438D02*
X151632143Y-70869819D01*
X152917857Y-71869819D02*
X152346429Y-71869819D01*
X152632143Y-71869819D02*
X152632143Y-70869819D01*
X152632143Y-70869819D02*
X152536905Y-71012676D01*
X152536905Y-71012676D02*
X152441667Y-71107914D01*
X152441667Y-71107914D02*
X152346429Y-71155533D01*
X153298810Y-71822200D02*
X153441667Y-71869819D01*
X153441667Y-71869819D02*
X153679762Y-71869819D01*
X153679762Y-71869819D02*
X153775000Y-71822200D01*
X153775000Y-71822200D02*
X153822619Y-71774580D01*
X153822619Y-71774580D02*
X153870238Y-71679342D01*
X153870238Y-71679342D02*
X153870238Y-71584104D01*
X153870238Y-71584104D02*
X153822619Y-71488866D01*
X153822619Y-71488866D02*
X153775000Y-71441247D01*
X153775000Y-71441247D02*
X153679762Y-71393628D01*
X153679762Y-71393628D02*
X153489286Y-71346009D01*
X153489286Y-71346009D02*
X153394048Y-71298390D01*
X153394048Y-71298390D02*
X153346429Y-71250771D01*
X153346429Y-71250771D02*
X153298810Y-71155533D01*
X153298810Y-71155533D02*
X153298810Y-71060295D01*
X153298810Y-71060295D02*
X153346429Y-70965057D01*
X153346429Y-70965057D02*
X153394048Y-70917438D01*
X153394048Y-70917438D02*
X153489286Y-70869819D01*
X153489286Y-70869819D02*
X153727381Y-70869819D01*
X153727381Y-70869819D02*
X153870238Y-70917438D01*
X154822619Y-70917438D02*
X154727381Y-70869819D01*
X154727381Y-70869819D02*
X154584524Y-70869819D01*
X154584524Y-70869819D02*
X154441667Y-70917438D01*
X154441667Y-70917438D02*
X154346429Y-71012676D01*
X154346429Y-71012676D02*
X154298810Y-71107914D01*
X154298810Y-71107914D02*
X154251191Y-71298390D01*
X154251191Y-71298390D02*
X154251191Y-71441247D01*
X154251191Y-71441247D02*
X154298810Y-71631723D01*
X154298810Y-71631723D02*
X154346429Y-71726961D01*
X154346429Y-71726961D02*
X154441667Y-71822200D01*
X154441667Y-71822200D02*
X154584524Y-71869819D01*
X154584524Y-71869819D02*
X154679762Y-71869819D01*
X154679762Y-71869819D02*
X154822619Y-71822200D01*
X154822619Y-71822200D02*
X154870238Y-71774580D01*
X154870238Y-71774580D02*
X154870238Y-71441247D01*
X154870238Y-71441247D02*
X154679762Y-71441247D01*
X155822619Y-71869819D02*
X155251191Y-71869819D01*
X155536905Y-71869819D02*
X155536905Y-70869819D01*
X155536905Y-70869819D02*
X155441667Y-71012676D01*
X155441667Y-71012676D02*
X155346429Y-71107914D01*
X155346429Y-71107914D02*
X155251191Y-71155533D01*
X156013096Y-71965057D02*
X156775000Y-71965057D01*
X157441667Y-71203152D02*
X157441667Y-71869819D01*
X157203572Y-70822200D02*
X156965477Y-71536485D01*
X156965477Y-71536485D02*
X157584524Y-71536485D01*
X121738095Y-82956819D02*
X122309523Y-82956819D01*
X122023809Y-83956819D02*
X122023809Y-82956819D01*
X122642857Y-83956819D02*
X122642857Y-82956819D01*
X122642857Y-82956819D02*
X123023809Y-82956819D01*
X123023809Y-82956819D02*
X123119047Y-83004438D01*
X123119047Y-83004438D02*
X123166666Y-83052057D01*
X123166666Y-83052057D02*
X123214285Y-83147295D01*
X123214285Y-83147295D02*
X123214285Y-83290152D01*
X123214285Y-83290152D02*
X123166666Y-83385390D01*
X123166666Y-83385390D02*
X123119047Y-83433009D01*
X123119047Y-83433009D02*
X123023809Y-83480628D01*
X123023809Y-83480628D02*
X122642857Y-83480628D01*
X123595238Y-83052057D02*
X123642857Y-83004438D01*
X123642857Y-83004438D02*
X123738095Y-82956819D01*
X123738095Y-82956819D02*
X123976190Y-82956819D01*
X123976190Y-82956819D02*
X124071428Y-83004438D01*
X124071428Y-83004438D02*
X124119047Y-83052057D01*
X124119047Y-83052057D02*
X124166666Y-83147295D01*
X124166666Y-83147295D02*
X124166666Y-83242533D01*
X124166666Y-83242533D02*
X124119047Y-83385390D01*
X124119047Y-83385390D02*
X123547619Y-83956819D01*
X123547619Y-83956819D02*
X124166666Y-83956819D01*
X122238095Y-90456819D02*
X122809523Y-90456819D01*
X122523809Y-91456819D02*
X122523809Y-90456819D01*
X123142857Y-91456819D02*
X123142857Y-90456819D01*
X123142857Y-90456819D02*
X123523809Y-90456819D01*
X123523809Y-90456819D02*
X123619047Y-90504438D01*
X123619047Y-90504438D02*
X123666666Y-90552057D01*
X123666666Y-90552057D02*
X123714285Y-90647295D01*
X123714285Y-90647295D02*
X123714285Y-90790152D01*
X123714285Y-90790152D02*
X123666666Y-90885390D01*
X123666666Y-90885390D02*
X123619047Y-90933009D01*
X123619047Y-90933009D02*
X123523809Y-90980628D01*
X123523809Y-90980628D02*
X123142857Y-90980628D01*
X124047619Y-90456819D02*
X124666666Y-90456819D01*
X124666666Y-90456819D02*
X124333333Y-90837771D01*
X124333333Y-90837771D02*
X124476190Y-90837771D01*
X124476190Y-90837771D02*
X124571428Y-90885390D01*
X124571428Y-90885390D02*
X124619047Y-90933009D01*
X124619047Y-90933009D02*
X124666666Y-91028247D01*
X124666666Y-91028247D02*
X124666666Y-91266342D01*
X124666666Y-91266342D02*
X124619047Y-91361580D01*
X124619047Y-91361580D02*
X124571428Y-91409200D01*
X124571428Y-91409200D02*
X124476190Y-91456819D01*
X124476190Y-91456819D02*
X124190476Y-91456819D01*
X124190476Y-91456819D02*
X124095238Y-91409200D01*
X124095238Y-91409200D02*
X124047619Y-91361580D01*
X170061905Y-104654819D02*
X170061905Y-103654819D01*
X170061905Y-103654819D02*
X170300000Y-103654819D01*
X170300000Y-103654819D02*
X170442857Y-103702438D01*
X170442857Y-103702438D02*
X170538095Y-103797676D01*
X170538095Y-103797676D02*
X170585714Y-103892914D01*
X170585714Y-103892914D02*
X170633333Y-104083390D01*
X170633333Y-104083390D02*
X170633333Y-104226247D01*
X170633333Y-104226247D02*
X170585714Y-104416723D01*
X170585714Y-104416723D02*
X170538095Y-104511961D01*
X170538095Y-104511961D02*
X170442857Y-104607200D01*
X170442857Y-104607200D02*
X170300000Y-104654819D01*
X170300000Y-104654819D02*
X170061905Y-104654819D01*
X171490476Y-103988152D02*
X171490476Y-104654819D01*
X171252381Y-103607200D02*
X171014286Y-104321485D01*
X171014286Y-104321485D02*
X171633333Y-104321485D01*
X133141667Y-125572200D02*
X133284524Y-125619819D01*
X133284524Y-125619819D02*
X133522619Y-125619819D01*
X133522619Y-125619819D02*
X133617857Y-125572200D01*
X133617857Y-125572200D02*
X133665476Y-125524580D01*
X133665476Y-125524580D02*
X133713095Y-125429342D01*
X133713095Y-125429342D02*
X133713095Y-125334104D01*
X133713095Y-125334104D02*
X133665476Y-125238866D01*
X133665476Y-125238866D02*
X133617857Y-125191247D01*
X133617857Y-125191247D02*
X133522619Y-125143628D01*
X133522619Y-125143628D02*
X133332143Y-125096009D01*
X133332143Y-125096009D02*
X133236905Y-125048390D01*
X133236905Y-125048390D02*
X133189286Y-125000771D01*
X133189286Y-125000771D02*
X133141667Y-124905533D01*
X133141667Y-124905533D02*
X133141667Y-124810295D01*
X133141667Y-124810295D02*
X133189286Y-124715057D01*
X133189286Y-124715057D02*
X133236905Y-124667438D01*
X133236905Y-124667438D02*
X133332143Y-124619819D01*
X133332143Y-124619819D02*
X133570238Y-124619819D01*
X133570238Y-124619819D02*
X133713095Y-124667438D01*
X134046429Y-124619819D02*
X134284524Y-125619819D01*
X134284524Y-125619819D02*
X134475000Y-124905533D01*
X134475000Y-124905533D02*
X134665476Y-125619819D01*
X134665476Y-125619819D02*
X134903572Y-124619819D01*
X135236905Y-124715057D02*
X135284524Y-124667438D01*
X135284524Y-124667438D02*
X135379762Y-124619819D01*
X135379762Y-124619819D02*
X135617857Y-124619819D01*
X135617857Y-124619819D02*
X135713095Y-124667438D01*
X135713095Y-124667438D02*
X135760714Y-124715057D01*
X135760714Y-124715057D02*
X135808333Y-124810295D01*
X135808333Y-124810295D02*
X135808333Y-124905533D01*
X135808333Y-124905533D02*
X135760714Y-125048390D01*
X135760714Y-125048390D02*
X135189286Y-125619819D01*
X135189286Y-125619819D02*
X135808333Y-125619819D01*
X105638333Y-105180866D02*
X105638333Y-106180866D01*
X105638333Y-106180866D02*
X105571666Y-106380866D01*
X105571666Y-106380866D02*
X105438333Y-106514200D01*
X105438333Y-106514200D02*
X105238333Y-106580866D01*
X105238333Y-106580866D02*
X105105000Y-106580866D01*
X106171667Y-105180866D02*
X107105000Y-105180866D01*
X107105000Y-105180866D02*
X106505000Y-106580866D01*
D11*
%TO.C,U1*%
G36*
X151180803Y-116799998D02*
G01*
X150480802Y-116799998D01*
X150480802Y-116199997D01*
X151180803Y-116199997D01*
X151180803Y-116799998D01*
G37*
D12*
X163500000Y-116000000D02*
X163500000Y-126000000D01*
X159380800Y-126200000D02*
X163500000Y-126000000D01*
X159380800Y-115800000D02*
X163500000Y-116000000D01*
X151180801Y-126200000D02*
X159380800Y-126200000D01*
X151180801Y-126200000D02*
X151180801Y-124800000D01*
X151180801Y-123999999D02*
X151180801Y-123100001D01*
X151180801Y-122300000D02*
X151180801Y-121399999D01*
X151180801Y-120600001D02*
X151180801Y-119700000D01*
X151180801Y-118899999D02*
X151180801Y-118000001D01*
X151180801Y-117200000D02*
X151180801Y-115800000D01*
X151180801Y-115800000D02*
X159380800Y-115800000D01*
X148780800Y-124800000D02*
X151180801Y-124800000D01*
X148780800Y-123999999D02*
X151180801Y-123999999D01*
X148780800Y-123100001D02*
X151180801Y-123100001D01*
X148780800Y-122300000D02*
X151180801Y-122300000D01*
X148780800Y-121399999D02*
X151180801Y-121399999D01*
X148780800Y-120600001D02*
X151180801Y-120600001D01*
X148780800Y-119700000D02*
X151180801Y-119700000D01*
X148780800Y-118899999D02*
X151180801Y-118899999D01*
X148780800Y-118000001D02*
X151180801Y-118000001D01*
X148780800Y-117200000D02*
X151180801Y-117200000D01*
D13*
%TO.C,J13*%
X108395000Y-116870000D02*
X109140000Y-116870000D01*
X108395000Y-117605000D02*
X108395000Y-116870000D01*
X108395000Y-118340000D02*
X108395000Y-118215000D01*
X108395000Y-118340000D02*
X108454435Y-118340000D01*
X108395000Y-118340000D02*
X109885000Y-118340000D01*
X109825565Y-118340000D02*
X109885000Y-118340000D01*
X109885000Y-118340000D02*
X109885000Y-118215000D01*
D14*
%TO.C,J6*%
X88890000Y-123830000D02*
X93570000Y-123830000D01*
X88890000Y-126170000D02*
X88890000Y-123830000D01*
X93570000Y-123830000D02*
X93570000Y-126170000D01*
X93570000Y-126170000D02*
X88890000Y-126170000D01*
%TO.C,J4*%
X89660000Y-108330000D02*
X94340000Y-108330000D01*
X89660000Y-110670000D02*
X89660000Y-108330000D01*
X94340000Y-108330000D02*
X94340000Y-110670000D01*
X94340000Y-110670000D02*
X89660000Y-110670000D01*
D15*
%TO.C,J1*%
X168910000Y-35960000D02*
X170650000Y-35960000D01*
X168910000Y-37700000D02*
X168910000Y-35960000D01*
X169150000Y-36200000D02*
X171950000Y-36200000D01*
X169150000Y-50800000D02*
X169150000Y-36200000D01*
X175550000Y-36200000D02*
X178350000Y-36200000D01*
X178350000Y-36200000D02*
X178350000Y-38200000D01*
X178350000Y-41800000D02*
X178350000Y-50800000D01*
X178350000Y-50800000D02*
X169150000Y-50800000D01*
D16*
%TO.C,C1*%
X130118500Y-61118500D02*
X130118500Y-64367160D01*
X130118500Y-66632840D02*
X130118500Y-69881500D01*
X130118500Y-69881500D02*
X138881500Y-69881500D01*
X138881500Y-61118500D02*
X130118500Y-61118500D01*
X138881500Y-64367160D02*
X138881500Y-61118500D01*
X138881500Y-69881500D02*
X138881500Y-66632840D01*
X128099200Y-65500000D02*
G75*
G02*
X127946800Y-65500000I-76200J0D01*
G01*
X127946800Y-65500000D02*
G75*
G02*
X128099200Y-65500000I76200J0D01*
G01*
%TO.C,L1*%
X128430200Y-116365000D02*
X128430200Y-117635000D01*
X128430200Y-117000000D02*
X129192200Y-116365000D01*
X128430200Y-117000000D02*
X129192200Y-116492000D01*
X128430200Y-117000000D02*
X129192200Y-116619000D01*
X128430200Y-117000000D02*
X129192200Y-116746000D01*
X128430200Y-117000000D02*
X129192200Y-116873000D01*
X128430200Y-117000000D02*
X129192200Y-117127000D01*
X128430200Y-117000000D02*
X129192200Y-117254000D01*
X128430200Y-117000000D02*
X129192200Y-117381000D01*
X128430200Y-117000000D02*
X129192200Y-117508000D01*
X128430200Y-117000000D02*
X129192200Y-117635000D01*
X129192200Y-116365000D02*
X129192200Y-117635000D01*
X129367460Y-117000000D02*
X128176200Y-117000000D01*
X130718950Y-117749300D02*
X131399250Y-117749300D01*
X131399250Y-116250700D02*
X130718950Y-116250700D01*
%TO.C,F1*%
X100520150Y-87516000D02*
X101479850Y-87516000D01*
X101479850Y-85484000D02*
X100520150Y-85484000D01*
%TO.C,D3*%
X174737200Y-99854200D02*
X174737200Y-101124200D01*
X174737200Y-100489200D02*
X175499200Y-99854200D01*
X174737200Y-100489200D02*
X175499200Y-99981200D01*
X174737200Y-100489200D02*
X175499200Y-100108200D01*
X174737200Y-100489200D02*
X175499200Y-100235200D01*
X174737200Y-100489200D02*
X175499200Y-100362200D01*
X174737200Y-100489200D02*
X175499200Y-100616200D01*
X174737200Y-100489200D02*
X175499200Y-100743200D01*
X174737200Y-100489200D02*
X175499200Y-100870200D01*
X174737200Y-100489200D02*
X175499200Y-100997200D01*
X175499200Y-99854200D02*
X175499200Y-101124200D01*
X175572860Y-100489200D02*
X174483200Y-100489200D01*
X177136849Y-101238500D02*
X177798551Y-101238500D01*
X177798551Y-99739900D02*
X177136849Y-99739900D01*
D14*
%TO.C,J5*%
X89430000Y-116330000D02*
X94110000Y-116330000D01*
X89430000Y-118670000D02*
X89430000Y-116330000D01*
X94110000Y-116330000D02*
X94110000Y-118670000D01*
X94110000Y-118670000D02*
X89430000Y-118670000D01*
D16*
%TO.C,R5*%
X170393150Y-100655300D02*
X171606850Y-100655300D01*
X171606850Y-98648700D02*
X170393150Y-98648700D01*
%TO.C,R4*%
X170393150Y-97242300D02*
X171606850Y-97242300D01*
X171606850Y-95235700D02*
X170393150Y-95235700D01*
%TO.C,F2*%
X102020150Y-104016000D02*
X102979850Y-104016000D01*
X102979850Y-101984000D02*
X102020150Y-101984000D01*
D13*
%TO.C,TP1*%
X96200000Y-74000000D02*
G75*
G02*
X92800000Y-74000000I-1700000J0D01*
G01*
X92800000Y-74000000D02*
G75*
G02*
X96200000Y-74000000I1700000J0D01*
G01*
D16*
%TO.C,L2*%
X140871100Y-127865000D02*
X140871100Y-129135000D01*
X140871100Y-128500000D02*
X141633100Y-127865000D01*
X140871100Y-128500000D02*
X141633100Y-127992000D01*
X140871100Y-128500000D02*
X141633100Y-128119000D01*
X140871100Y-128500000D02*
X141633100Y-128246000D01*
X140871100Y-128500000D02*
X141633100Y-128373000D01*
X140871100Y-128500000D02*
X141633100Y-128627000D01*
X140871100Y-128500000D02*
X141633100Y-128754000D01*
X140871100Y-128500000D02*
X141633100Y-128881000D01*
X140871100Y-128500000D02*
X141633100Y-129008000D01*
X140871100Y-128500000D02*
X141633100Y-129135000D01*
X141633100Y-127865000D02*
X141633100Y-129135000D01*
X141808360Y-128500000D02*
X140617100Y-128500000D01*
X143159850Y-129249300D02*
X143840150Y-129249300D01*
X143840150Y-127750700D02*
X143159850Y-127750700D01*
D13*
%TO.C,U5*%
X103550000Y-50320000D02*
X103550000Y-56520000D01*
X103550000Y-50320000D02*
X121950000Y-50320000D01*
X103550000Y-75170000D02*
X103550000Y-76170000D01*
X103550000Y-76170000D02*
X105050000Y-76170000D01*
X121950000Y-50320000D02*
X121950000Y-56520000D01*
X121950000Y-76170000D02*
X120450000Y-76170000D01*
X121950000Y-76170000D02*
X121950000Y-75170000D01*
X103550000Y-57195000D02*
X103050000Y-57195000D01*
X103550000Y-56695000D01*
X103550000Y-57195000D01*
G36*
X103550000Y-57195000D02*
G01*
X103050000Y-57195000D01*
X103550000Y-56695000D01*
X103550000Y-57195000D01*
G37*
D16*
%TO.C,R2*%
X170393150Y-90416300D02*
X171606850Y-90416300D01*
X171606850Y-88409700D02*
X170393150Y-88409700D01*
D13*
%TO.C,TP5*%
X133700000Y-110000000D02*
G75*
G02*
X130300000Y-110000000I-1700000J0D01*
G01*
X130300000Y-110000000D02*
G75*
G02*
X133700000Y-110000000I1700000J0D01*
G01*
D16*
%TO.C,D2*%
X174737200Y-96390400D02*
X174737200Y-97660400D01*
X174737200Y-97025400D02*
X175499200Y-96390400D01*
X174737200Y-97025400D02*
X175499200Y-96517400D01*
X174737200Y-97025400D02*
X175499200Y-96644400D01*
X174737200Y-97025400D02*
X175499200Y-96771400D01*
X174737200Y-97025400D02*
X175499200Y-96898400D01*
X174737200Y-97025400D02*
X175499200Y-97152400D01*
X174737200Y-97025400D02*
X175499200Y-97279400D01*
X174737200Y-97025400D02*
X175499200Y-97406400D01*
X174737200Y-97025400D02*
X175499200Y-97533400D01*
X175499200Y-96390400D02*
X175499200Y-97660400D01*
X175572860Y-97025400D02*
X174483200Y-97025400D01*
X177136849Y-97774700D02*
X177798551Y-97774700D01*
X177798551Y-96276100D02*
X177136849Y-96276100D01*
D13*
%TO.C,TP4*%
X136700000Y-102000000D02*
G75*
G02*
X133300000Y-102000000I-1700000J0D01*
G01*
X133300000Y-102000000D02*
G75*
G02*
X136700000Y-102000000I1700000J0D01*
G01*
D16*
%TO.C,C6*%
X130469400Y-89969400D02*
X130469400Y-92532260D01*
X130469400Y-94467740D02*
X130469400Y-97030600D01*
X130469400Y-97030600D02*
X137530600Y-97030600D01*
X137530600Y-89969400D02*
X130469400Y-89969400D01*
X137530600Y-92532260D02*
X137530600Y-89969400D01*
X137530600Y-97030600D02*
X137530600Y-94467740D01*
D14*
%TO.C,JP6*%
X91390000Y-92330000D02*
X96070000Y-92330000D01*
X91390000Y-94670000D02*
X91390000Y-92330000D01*
X96070000Y-92330000D02*
X96070000Y-94670000D01*
X96070000Y-94670000D02*
X91390000Y-94670000D01*
D16*
%TO.C,R1*%
X170393150Y-87003300D02*
X171606850Y-87003300D01*
X171606850Y-84996700D02*
X170393150Y-84996700D01*
D14*
%TO.C,JP1*%
X91390000Y-84550000D02*
X96070000Y-84550000D01*
X91390000Y-86890000D02*
X91390000Y-84550000D01*
X96070000Y-84550000D02*
X96070000Y-86890000D01*
X96070000Y-86890000D02*
X91390000Y-86890000D01*
%TO.C,TLE9201SG1_3*%
X150775000Y-60300000D02*
X153305000Y-60300000D01*
X150775000Y-66700000D02*
X150775000Y-60300000D01*
X150775000Y-66700000D02*
X153305000Y-66700000D01*
X155745000Y-60300000D02*
X158275000Y-60300000D01*
X155745000Y-66700000D02*
X158275000Y-66700000D01*
X158275000Y-66700000D02*
X158275000Y-60300000D01*
D12*
X147975000Y-61000000D02*
G75*
G02*
X147775000Y-61000000I-100000J0D01*
G01*
X147775000Y-61000000D02*
G75*
G02*
X147975000Y-61000000I100000J0D01*
G01*
D14*
%TO.C,TLE9201SG1_1*%
X150775000Y-36300000D02*
X153305000Y-36300000D01*
X150775000Y-42700000D02*
X150775000Y-36300000D01*
X150775000Y-42700000D02*
X153305000Y-42700000D01*
X155745000Y-36300000D02*
X158275000Y-36300000D01*
X155745000Y-42700000D02*
X158275000Y-42700000D01*
X158275000Y-42700000D02*
X158275000Y-36300000D01*
D12*
X147975000Y-37000000D02*
G75*
G02*
X147775000Y-37000000I-100000J0D01*
G01*
X147775000Y-37000000D02*
G75*
G02*
X147975000Y-37000000I100000J0D01*
G01*
D16*
%TO.C,C7*%
X129118500Y-77118500D02*
X129118500Y-80367160D01*
X129118500Y-82632840D02*
X129118500Y-85881500D01*
X129118500Y-85881500D02*
X137881500Y-85881500D01*
X137881500Y-77118500D02*
X129118500Y-77118500D01*
X137881500Y-80367160D02*
X137881500Y-77118500D01*
X137881500Y-85881500D02*
X137881500Y-82632840D01*
X127099200Y-81500000D02*
G75*
G02*
X126946800Y-81500000I-76200J0D01*
G01*
X126946800Y-81500000D02*
G75*
G02*
X127099200Y-81500000I76200J0D01*
G01*
%TO.C,R3*%
X170393150Y-93829300D02*
X171606850Y-93829300D01*
X171606850Y-91822700D02*
X170393150Y-91822700D01*
D14*
%TO.C,TLE9201SG1_2*%
X151775000Y-48800000D02*
X154305000Y-48800000D01*
X151775000Y-55200000D02*
X151775000Y-48800000D01*
X151775000Y-55200000D02*
X154305000Y-55200000D01*
X156745000Y-48800000D02*
X159275000Y-48800000D01*
X156745000Y-55200000D02*
X159275000Y-55200000D01*
X159275000Y-55200000D02*
X159275000Y-48800000D01*
D12*
X148975000Y-49500000D02*
G75*
G02*
X148775000Y-49500000I-100000J0D01*
G01*
X148775000Y-49500000D02*
G75*
G02*
X148975000Y-49500000I100000J0D01*
G01*
D16*
%TO.C,J9*%
X90322901Y-36968001D02*
X90322901Y-37441738D01*
X90322901Y-39558262D02*
X90322901Y-40117601D01*
X90322901Y-40117601D02*
X98527101Y-40117601D01*
X98527101Y-36968001D02*
X90322901Y-36968001D01*
X98527101Y-37441738D02*
X98527101Y-36968001D01*
X98527101Y-40117601D02*
X98527101Y-39558262D01*
D17*
X88925901Y-38280001D02*
G75*
G02*
X88163901Y-38280001I-381000J0D01*
G01*
X88163901Y-38280001D02*
G75*
G02*
X88925901Y-38280001I381000J0D01*
G01*
D15*
%TO.C,J2*%
X145173000Y-83658000D02*
X145173000Y-92802000D01*
X145173000Y-92802000D02*
X163207000Y-92802000D01*
X163207000Y-83658000D02*
X145173000Y-83658000D01*
X163207000Y-92802000D02*
X163207000Y-83658000D01*
%TO.C,J3*%
X145173000Y-95698000D02*
X145173000Y-104842000D01*
X145173000Y-104842000D02*
X163207000Y-104842000D01*
X163207000Y-95698000D02*
X145173000Y-95698000D01*
X163207000Y-104842000D02*
X163207000Y-95698000D01*
D16*
%TO.C,U3*%
X168139200Y-66951100D02*
X168139200Y-69262500D01*
X169053600Y-66951100D02*
X169053600Y-69262500D01*
X169841000Y-66951100D02*
X169841000Y-69262500D01*
X170755400Y-66951100D02*
X170755400Y-69262500D01*
X171542800Y-66951100D02*
X171542800Y-69262500D01*
X172457200Y-66951100D02*
X172457200Y-69262500D01*
X173244600Y-66951100D02*
X173244600Y-69262500D01*
X174159000Y-66951100D02*
X174159000Y-69262500D01*
X174946400Y-66951100D02*
X174946400Y-69262500D01*
X175860800Y-66951100D02*
X175860800Y-69262500D01*
D14*
%TO.C,SW1*%
X155000000Y-108250000D02*
X158000000Y-108250000D01*
X155000000Y-110750000D02*
X158000000Y-110750000D01*
D12*
X153900000Y-109300000D02*
G75*
G02*
X153700000Y-109300000I-100000J0D01*
G01*
X153700000Y-109300000D02*
G75*
G02*
X153900000Y-109300000I100000J0D01*
G01*
D14*
%TO.C,JP2*%
X91390000Y-88440000D02*
X96070000Y-88440000D01*
X91390000Y-90780000D02*
X91390000Y-88440000D01*
X96070000Y-88440000D02*
X96070000Y-90780000D01*
X96070000Y-90780000D02*
X91390000Y-90780000D01*
%TO.C,TLE9201SG1_4*%
X151250000Y-73300000D02*
X153780000Y-73300000D01*
X151250000Y-79700000D02*
X151250000Y-73300000D01*
X151250000Y-79700000D02*
X153780000Y-79700000D01*
X156220000Y-73300000D02*
X158750000Y-73300000D01*
X156220000Y-79700000D02*
X158750000Y-79700000D01*
X158750000Y-79700000D02*
X158750000Y-73300000D01*
D12*
X148450000Y-74000000D02*
G75*
G02*
X148250000Y-74000000I-100000J0D01*
G01*
X148250000Y-74000000D02*
G75*
G02*
X148450000Y-74000000I100000J0D01*
G01*
D13*
%TO.C,TP2*%
X124700000Y-86000000D02*
G75*
G02*
X121300000Y-86000000I-1700000J0D01*
G01*
X121300000Y-86000000D02*
G75*
G02*
X124700000Y-86000000I1700000J0D01*
G01*
%TO.C,TP3*%
X125200000Y-93500000D02*
G75*
G02*
X121800000Y-93500000I-1700000J0D01*
G01*
X121800000Y-93500000D02*
G75*
G02*
X125200000Y-93500000I1700000J0D01*
G01*
D14*
%TO.C,D5*%
X171075000Y-124650000D02*
X173925000Y-124650000D01*
X173925000Y-126350000D02*
X171075000Y-126350000D01*
D12*
X169600000Y-125500000D02*
G75*
G02*
X169400000Y-125500000I-100000J0D01*
G01*
X169400000Y-125500000D02*
G75*
G02*
X169600000Y-125500000I100000J0D01*
G01*
D14*
%TO.C,D1*%
X170575000Y-117150000D02*
X173425000Y-117150000D01*
X173425000Y-118850000D02*
X170575000Y-118850000D01*
D12*
X169100000Y-118000000D02*
G75*
G02*
X168900000Y-118000000I-100000J0D01*
G01*
X168900000Y-118000000D02*
G75*
G02*
X169100000Y-118000000I100000J0D01*
G01*
D13*
%TO.C,D4*%
X169540000Y-104900000D02*
X169540000Y-106100000D01*
X171500000Y-104900000D02*
X169540000Y-104900000D01*
X171500000Y-106100000D02*
X169540000Y-106100000D01*
D14*
%TO.C,SW2*%
X132500000Y-126250000D02*
X135500000Y-126250000D01*
X132500000Y-128750000D02*
X135500000Y-128750000D01*
D12*
X131400000Y-127300000D02*
G75*
G02*
X131200000Y-127300000I-100000J0D01*
G01*
X131200000Y-127300000D02*
G75*
G02*
X131400000Y-127300000I100000J0D01*
G01*
D14*
%TO.C,J7*%
X102660000Y-107830000D02*
X107340000Y-107830000D01*
X102660000Y-110170000D02*
X102660000Y-107830000D01*
X107340000Y-107830000D02*
X107340000Y-110170000D01*
X107340000Y-110170000D02*
X102660000Y-110170000D01*
%TD*%
M02*
