%TF.GenerationSoftware,KiCad,Pcbnew,9.0.4*%
%TF.CreationDate,2026-03-09T21:51:10-07:00*%
%TF.ProjectId,Individual subsystem,496e6469-7669-4647-9561-6c2073756273,rev?*%
%TF.SameCoordinates,Original*%
%TF.FileFunction,Soldermask,Top*%
%TF.FilePolarity,Negative*%
%FSLAX46Y46*%
G04 Gerber Fmt 4.6, Leading zero omitted, Abs format (unit mm)*
G04 Created by KiCad (PCBNEW 9.0.4) date 2026-03-09 21:51:10*
%MOMM*%
%LPD*%
G01*
G04 APERTURE LIST*
G04 Aperture macros list*
%AMRoundRect*
0 Rectangle with rounded corners*
0 $1 Rounding radius*
0 $2 $3 $4 $5 $6 $7 $8 $9 X,Y pos of 4 corners*
0 Add a 4 corners polygon primitive as box body*
4,1,4,$2,$3,$4,$5,$6,$7,$8,$9,$2,$3,0*
0 Add four circle primitives for the rounded corners*
1,1,$1+$1,$2,$3*
1,1,$1+$1,$4,$5*
1,1,$1+$1,$6,$7*
1,1,$1+$1,$8,$9*
0 Add four rect primitives between the rounded corners*
20,1,$1+$1,$2,$3,$4,$5,0*
20,1,$1+$1,$4,$5,$6,$7,0*
20,1,$1+$1,$6,$7,$8,$9,0*
20,1,$1+$1,$8,$9,$2,$3,0*%
G04 Aperture macros list end*
%ADD10C,0.010000*%
%ADD11RoundRect,0.102000X-0.701000X-0.701000X0.701000X-0.701000X0.701000X0.701000X-0.701000X0.701000X0*%
%ADD12C,1.606000*%
%ADD13R,2.600000X2.600000*%
%ADD14C,2.600000*%
%ADD15R,4.114800X1.600200*%
%ADD16R,0.711200X1.244600*%
%ADD17C,2.184000*%
%ADD18R,0.914400X1.295400*%
%ADD19R,1.168400X1.752600*%
%ADD20C,3.000000*%
%ADD21R,1.500000X0.900000*%
%ADD22R,0.900000X1.500000*%
%ADD23C,0.600000*%
%ADD24R,3.900000X3.900000*%
%ADD25R,1.508798X1.500797*%
%ADD26R,3.302000X1.270000*%
%ADD27R,2.160001X1.070000*%
%ADD28R,6.990001X8.330001*%
%ADD29RoundRect,0.102000X-0.675000X-0.325000X0.675000X-0.325000X0.675000X0.325000X-0.675000X0.325000X0*%
%ADD30O,0.863600X1.854200*%
%ADD31C,0.914400*%
%ADD32C,1.701800*%
%ADD33R,0.914400X2.387600*%
%ADD34R,10.033000X9.601200*%
%ADD35RoundRect,0.102000X-0.400000X-0.850000X0.400000X-0.850000X0.400000X0.850000X-0.400000X0.850000X0*%
%ADD36RoundRect,0.102000X-0.605000X-0.365000X0.605000X-0.365000X0.605000X0.365000X-0.605000X0.365000X0*%
%ADD37RoundRect,0.150000X0.150000X0.200000X-0.150000X0.200000X-0.150000X-0.200000X0.150000X-0.200000X0*%
G04 APERTURE END LIST*
D10*
%TO.C,TLE9201SG1_3*%
X155525000Y-60850000D02*
X156825000Y-60850000D01*
X156825000Y-66150000D01*
X155525000Y-66150000D01*
X155525000Y-67500000D01*
X153525000Y-67500000D01*
X153525000Y-66150000D01*
X152225000Y-66150000D01*
X152225000Y-60850000D01*
X153525000Y-60850000D01*
X153525000Y-59500000D01*
X155525000Y-59500000D01*
X155525000Y-60850000D01*
G36*
X155525000Y-60850000D02*
G01*
X156825000Y-60850000D01*
X156825000Y-66150000D01*
X155525000Y-66150000D01*
X155525000Y-67500000D01*
X153525000Y-67500000D01*
X153525000Y-66150000D01*
X152225000Y-66150000D01*
X152225000Y-60850000D01*
X153525000Y-60850000D01*
X153525000Y-59500000D01*
X155525000Y-59500000D01*
X155525000Y-60850000D01*
G37*
%TO.C,TLE9201SG1_1*%
X155525000Y-36850000D02*
X156825000Y-36850000D01*
X156825000Y-42150000D01*
X155525000Y-42150000D01*
X155525000Y-43500000D01*
X153525000Y-43500000D01*
X153525000Y-42150000D01*
X152225000Y-42150000D01*
X152225000Y-36850000D01*
X153525000Y-36850000D01*
X153525000Y-35500000D01*
X155525000Y-35500000D01*
X155525000Y-36850000D01*
G36*
X155525000Y-36850000D02*
G01*
X156825000Y-36850000D01*
X156825000Y-42150000D01*
X155525000Y-42150000D01*
X155525000Y-43500000D01*
X153525000Y-43500000D01*
X153525000Y-42150000D01*
X152225000Y-42150000D01*
X152225000Y-36850000D01*
X153525000Y-36850000D01*
X153525000Y-35500000D01*
X155525000Y-35500000D01*
X155525000Y-36850000D01*
G37*
%TO.C,TLE9201SG1_2*%
X156525000Y-49350000D02*
X157825000Y-49350000D01*
X157825000Y-54650000D01*
X156525000Y-54650000D01*
X156525000Y-56000000D01*
X154525000Y-56000000D01*
X154525000Y-54650000D01*
X153225000Y-54650000D01*
X153225000Y-49350000D01*
X154525000Y-49350000D01*
X154525000Y-48000000D01*
X156525000Y-48000000D01*
X156525000Y-49350000D01*
G36*
X156525000Y-49350000D02*
G01*
X157825000Y-49350000D01*
X157825000Y-54650000D01*
X156525000Y-54650000D01*
X156525000Y-56000000D01*
X154525000Y-56000000D01*
X154525000Y-54650000D01*
X153225000Y-54650000D01*
X153225000Y-49350000D01*
X154525000Y-49350000D01*
X154525000Y-48000000D01*
X156525000Y-48000000D01*
X156525000Y-49350000D01*
G37*
%TO.C,TLE9201SG1_4*%
X156000000Y-73850000D02*
X157300000Y-73850000D01*
X157300000Y-79150000D01*
X156000000Y-79150000D01*
X156000000Y-80500000D01*
X154000000Y-80500000D01*
X154000000Y-79150000D01*
X152700000Y-79150000D01*
X152700000Y-73850000D01*
X154000000Y-73850000D01*
X154000000Y-72500000D01*
X156000000Y-72500000D01*
X156000000Y-73850000D01*
G36*
X156000000Y-73850000D02*
G01*
X157300000Y-73850000D01*
X157300000Y-79150000D01*
X156000000Y-79150000D01*
X156000000Y-80500000D01*
X154000000Y-80500000D01*
X154000000Y-79150000D01*
X152700000Y-79150000D01*
X152700000Y-73850000D01*
X154000000Y-73850000D01*
X154000000Y-72500000D01*
X156000000Y-72500000D01*
X156000000Y-73850000D01*
G37*
%TD*%
D11*
%TO.C,J6*%
X89960000Y-125000000D03*
D12*
X92500000Y-125000000D03*
%TD*%
D11*
%TO.C,J4*%
X90730000Y-109500000D03*
D12*
X93270000Y-109500000D03*
%TD*%
D11*
%TO.C,J13*%
X107870000Y-117605000D03*
D12*
X110410000Y-117605000D03*
%TD*%
D13*
%TO.C,J1*%
X173750000Y-37000000D03*
D14*
X173750000Y-43000000D03*
X178450000Y-40000000D03*
%TD*%
D15*
%TO.C,C1*%
X130842400Y-65500000D03*
X138157600Y-65500000D03*
%TD*%
D16*
%TO.C,L1*%
X130055800Y-117000000D03*
X132062400Y-117000000D03*
%TD*%
D11*
%TO.C,J8*%
X143460000Y-108500000D03*
D12*
X146000000Y-108500000D03*
%TD*%
D17*
%TO.C,F1*%
X89750000Y-86500000D03*
X112250000Y-86500000D03*
%TD*%
D18*
%TO.C,D3*%
X176362800Y-100489200D03*
X178572600Y-100489200D03*
%TD*%
D11*
%TO.C,J5*%
X90500000Y-117500000D03*
D12*
X93040000Y-117500000D03*
%TD*%
D19*
%TO.C,R5*%
X169501400Y-99652000D03*
X172498600Y-99652000D03*
%TD*%
%TO.C,R4*%
X169501400Y-96239000D03*
X172498600Y-96239000D03*
%TD*%
D17*
%TO.C,F2*%
X89750000Y-99500000D03*
X112250000Y-99500000D03*
%TD*%
D20*
%TO.C,TP1*%
X94500000Y-74000000D03*
%TD*%
D16*
%TO.C,L2*%
X140996700Y-129000000D03*
X143003300Y-129000000D03*
%TD*%
D21*
%TO.C,U5*%
X104000000Y-57960000D03*
X104000000Y-59230000D03*
X104000000Y-60500000D03*
X104000000Y-61770000D03*
X104000000Y-63040000D03*
X104000000Y-64310000D03*
X104000000Y-65580000D03*
X104000000Y-66850000D03*
X104000000Y-68120000D03*
X104000000Y-69390000D03*
X104000000Y-70660000D03*
X104000000Y-71930000D03*
X104000000Y-73200000D03*
X104000000Y-74470000D03*
D22*
X105765000Y-75720000D03*
X107035000Y-75720000D03*
X108305000Y-75720000D03*
X109575000Y-75720000D03*
X110845000Y-75720000D03*
X112115000Y-75720000D03*
X113385000Y-75720000D03*
X114655000Y-75720000D03*
X115925000Y-75720000D03*
X117195000Y-75720000D03*
X118465000Y-75720000D03*
X119735000Y-75720000D03*
D21*
X121500000Y-74470000D03*
X121500000Y-73200000D03*
X121500000Y-71930000D03*
X121500000Y-70660000D03*
X121500000Y-69390000D03*
X121500000Y-68120000D03*
X121500000Y-66850000D03*
X121500000Y-65580000D03*
X121500000Y-64310000D03*
X121500000Y-63040000D03*
X121500000Y-61770000D03*
X121500000Y-60500000D03*
X121500000Y-59230000D03*
X121500000Y-57960000D03*
D23*
X109850000Y-64980000D03*
X109850000Y-66380000D03*
X110550000Y-64280000D03*
X110550000Y-65680000D03*
X110550000Y-67080000D03*
X111250000Y-64980000D03*
D24*
X111250000Y-65680000D03*
D23*
X111250000Y-66380000D03*
X111950000Y-64280000D03*
X111950000Y-65680000D03*
X111950000Y-67080000D03*
X112650000Y-64980000D03*
X112650000Y-66380000D03*
%TD*%
D19*
%TO.C,R2*%
X169501400Y-89413000D03*
X172498600Y-89413000D03*
%TD*%
D20*
%TO.C,TP5*%
X132000000Y-110000000D03*
%TD*%
D18*
%TO.C,D2*%
X176362800Y-97025400D03*
X178572600Y-97025400D03*
%TD*%
D20*
%TO.C,TP4*%
X135000000Y-102000000D03*
%TD*%
D25*
%TO.C,C5*%
X175745599Y-93466495D03*
X177554397Y-93466495D03*
%TD*%
D26*
%TO.C,C6*%
X131040900Y-93500000D03*
X136959100Y-93500000D03*
%TD*%
D27*
%TO.C,U1*%
X147443300Y-117600002D03*
X147443300Y-119300003D03*
X147443300Y-121005004D03*
X147443300Y-122700002D03*
X147443300Y-124400003D03*
D28*
X158118300Y-121000003D03*
%TD*%
D19*
%TO.C,R1*%
X169501400Y-86000000D03*
X172498600Y-86000000D03*
%TD*%
D29*
%TO.C,TLE9201SG1_3*%
X149550000Y-61000000D03*
X149550000Y-62000000D03*
X149550000Y-63000000D03*
X149550000Y-64000000D03*
X149550000Y-65000000D03*
X149550000Y-66000000D03*
X159500000Y-66000000D03*
X159500000Y-65000000D03*
X159500000Y-64000000D03*
X159500000Y-63000000D03*
X159500000Y-62000000D03*
X159500000Y-61000000D03*
%TD*%
%TO.C,TLE9201SG1_1*%
X149550000Y-37000000D03*
X149550000Y-38000000D03*
X149550000Y-39000000D03*
X149550000Y-40000000D03*
X149550000Y-41000000D03*
X149550000Y-42000000D03*
X159500000Y-42000000D03*
X159500000Y-41000000D03*
X159500000Y-40000000D03*
X159500000Y-39000000D03*
X159500000Y-38000000D03*
X159500000Y-37000000D03*
%TD*%
D15*
%TO.C,C7*%
X129842400Y-81500000D03*
X137157600Y-81500000D03*
%TD*%
D19*
%TO.C,R3*%
X169501400Y-92826000D03*
X172498600Y-92826000D03*
%TD*%
D11*
%TO.C,J10*%
X109730000Y-125500000D03*
D12*
X112270000Y-125500000D03*
%TD*%
D29*
%TO.C,TLE9201SG1_2*%
X150550000Y-49500000D03*
X150550000Y-50500000D03*
X150550000Y-51500000D03*
X150550000Y-52500000D03*
X150550000Y-53500000D03*
X150550000Y-54500000D03*
X160500000Y-54500000D03*
X160500000Y-53500000D03*
X160500000Y-52500000D03*
X160500000Y-51500000D03*
X160500000Y-50500000D03*
X160500000Y-49500000D03*
%TD*%
D30*
%TO.C,J9*%
X90850002Y-38500000D03*
X98000000Y-38500000D03*
D31*
X93125001Y-38280001D03*
X93775002Y-39280001D03*
X94425001Y-38280001D03*
X95075000Y-39280001D03*
X95725001Y-38280001D03*
%TD*%
D32*
%TO.C,J2*%
X150380000Y-89500000D03*
X150380000Y-86960000D03*
X152920000Y-89500000D03*
X152920000Y-86960000D03*
X155460000Y-89500000D03*
X155460000Y-86960000D03*
X158000000Y-89500000D03*
X158000000Y-86960000D03*
%TD*%
%TO.C,J3*%
X150380000Y-101540000D03*
X150380000Y-99000000D03*
X152920000Y-101540000D03*
X152920000Y-99000000D03*
X155460000Y-101540000D03*
X155460000Y-99000000D03*
X158000000Y-101540000D03*
X158000000Y-99000000D03*
%TD*%
D33*
%TO.C,U3*%
X168596400Y-70811900D03*
X170298200Y-70811900D03*
X172000000Y-70811900D03*
X173701800Y-70811900D03*
X175403600Y-70811900D03*
D34*
X172000000Y-61794900D03*
%TD*%
D25*
%TO.C,C4*%
X175745599Y-89797297D03*
X177554397Y-89797297D03*
%TD*%
D35*
%TO.C,SW1*%
X154800000Y-109500000D03*
X158200000Y-109500000D03*
%TD*%
D29*
%TO.C,TLE9201SG1_4*%
X150025000Y-74000000D03*
X150025000Y-75000000D03*
X150025000Y-76000000D03*
X150025000Y-77000000D03*
X150025000Y-78000000D03*
X150025000Y-79000000D03*
X159975000Y-79000000D03*
X159975000Y-78000000D03*
X159975000Y-77000000D03*
X159975000Y-76000000D03*
X159975000Y-75000000D03*
X159975000Y-74000000D03*
%TD*%
D20*
%TO.C,TP2*%
X123000000Y-86000000D03*
%TD*%
%TO.C,TP3*%
X123500000Y-93500000D03*
%TD*%
D36*
%TO.C,D5*%
X174680000Y-123000000D03*
X171320000Y-123000000D03*
%TD*%
%TO.C,D1*%
X174500000Y-116500000D03*
X171140000Y-116500000D03*
%TD*%
D37*
%TO.C,D4*%
X170100000Y-105500000D03*
X171500000Y-105500000D03*
%TD*%
D11*
%TO.C,J12*%
X118730000Y-111500000D03*
D12*
X121270000Y-111500000D03*
%TD*%
D11*
%TO.C,J11*%
X119960000Y-103500000D03*
D12*
X122500000Y-103500000D03*
%TD*%
D25*
%TO.C,C3*%
X175745599Y-86128099D03*
X177554397Y-86128099D03*
%TD*%
D35*
%TO.C,SW2*%
X132300000Y-127500000D03*
X135700000Y-127500000D03*
%TD*%
D11*
%TO.C,J7*%
X103730000Y-109000000D03*
D12*
X106270000Y-109000000D03*
%TD*%
M02*
