%TF.GenerationSoftware,KiCad,Pcbnew,9.0.4*%
%TF.CreationDate,2026-03-09T21:51:17-07:00*%
%TF.ProjectId,Individual subsystem,496e6469-7669-4647-9561-6c2073756273,rev?*%
%TF.SameCoordinates,Original*%
%TF.FileFunction,Drillmap*%
%TF.FilePolarity,Positive*%
%FSLAX45Y45*%
G04 Gerber Fmt 4.5, Leading zero omitted, Abs format (unit mm)*
G04 Created by KiCad (PCBNEW 9.0.4) date 2026-03-09 21:51:17*
%MOMM*%
%LPD*%
G01*
G04 APERTURE LIST*
%ADD10C,0.050000*%
%ADD11C,0.200000*%
%ADD12C,0.100000*%
%ADD13C,0.132000*%
%ADD14C,0.160000*%
G04 APERTURE END LIST*
D10*
X8400000Y-3250000D02*
X18300000Y-3250000D01*
X18300000Y-13050000D01*
X8400000Y-13050000D01*
X8400000Y-3250000D01*
D11*
D12*
X10975000Y-6488000D02*
X10995000Y-6508000D01*
X10995000Y-6488000D02*
X10975000Y-6508000D01*
X10975000Y-6628000D02*
X10995000Y-6648000D01*
X10995000Y-6628000D02*
X10975000Y-6648000D01*
X11045000Y-6418000D02*
X11065000Y-6438000D01*
X11065000Y-6418000D02*
X11045000Y-6438000D01*
X11045000Y-6558000D02*
X11065000Y-6578000D01*
X11065000Y-6558000D02*
X11045000Y-6578000D01*
X11045000Y-6698000D02*
X11065000Y-6718000D01*
X11065000Y-6698000D02*
X11045000Y-6718000D01*
X11115000Y-6488000D02*
X11135000Y-6508000D01*
X11135000Y-6488000D02*
X11115000Y-6508000D01*
X11115000Y-6628000D02*
X11135000Y-6648000D01*
X11135000Y-6628000D02*
X11115000Y-6648000D01*
X11185000Y-6418000D02*
X11205000Y-6438000D01*
X11205000Y-6418000D02*
X11185000Y-6438000D01*
X11185000Y-6558000D02*
X11205000Y-6578000D01*
X11205000Y-6558000D02*
X11185000Y-6578000D01*
X11185000Y-6698000D02*
X11205000Y-6718000D01*
X11205000Y-6698000D02*
X11185000Y-6718000D01*
X11255000Y-6488000D02*
X11275000Y-6508000D01*
X11275000Y-6488000D02*
X11255000Y-6508000D01*
X11255000Y-6628000D02*
X11275000Y-6648000D01*
X11275000Y-6628000D02*
X11255000Y-6648000D01*
X8715000Y-4850000D02*
G75*
G02*
X8685000Y-4850000I-15000J0D01*
G01*
X8685000Y-4850000D02*
G75*
G02*
X8715000Y-4850000I15000J0D01*
G01*
X9015000Y-5950000D02*
G75*
G02*
X8985000Y-5950000I-15000J0D01*
G01*
X8985000Y-5950000D02*
G75*
G02*
X9015000Y-5950000I15000J0D01*
G01*
X9115000Y-10750000D02*
G75*
G02*
X9085000Y-10750000I-15000J0D01*
G01*
X9085000Y-10750000D02*
G75*
G02*
X9115000Y-10750000I15000J0D01*
G01*
X9115000Y-11250000D02*
G75*
G02*
X9085000Y-11250000I-15000J0D01*
G01*
X9085000Y-11250000D02*
G75*
G02*
X9115000Y-11250000I15000J0D01*
G01*
X9465000Y-11202700D02*
G75*
G02*
X9435000Y-11202700I-15000J0D01*
G01*
X9435000Y-11202700D02*
G75*
G02*
X9465000Y-11202700I15000J0D01*
G01*
X9648856Y-10283856D02*
G75*
G02*
X9618856Y-10283856I-15000J0D01*
G01*
X9618856Y-10283856D02*
G75*
G02*
X9648856Y-10283856I15000J0D01*
G01*
X9665000Y-5900000D02*
G75*
G02*
X9635000Y-5900000I-15000J0D01*
G01*
X9635000Y-5900000D02*
G75*
G02*
X9665000Y-5900000I15000J0D01*
G01*
X9915000Y-7350000D02*
G75*
G02*
X9885000Y-7350000I-15000J0D01*
G01*
X9885000Y-7350000D02*
G75*
G02*
X9915000Y-7350000I15000J0D01*
G01*
X9965000Y-6300000D02*
G75*
G02*
X9935000Y-6300000I-15000J0D01*
G01*
X9935000Y-6300000D02*
G75*
G02*
X9965000Y-6300000I15000J0D01*
G01*
X10015000Y-4150000D02*
G75*
G02*
X9985000Y-4150000I-15000J0D01*
G01*
X9985000Y-4150000D02*
G75*
G02*
X10015000Y-4150000I15000J0D01*
G01*
X10102169Y-7237169D02*
G75*
G02*
X10072169Y-7237169I-15000J0D01*
G01*
X10072169Y-7237169D02*
G75*
G02*
X10102169Y-7237169I15000J0D01*
G01*
X10115000Y-6400000D02*
G75*
G02*
X10085000Y-6400000I-15000J0D01*
G01*
X10085000Y-6400000D02*
G75*
G02*
X10115000Y-6400000I15000J0D01*
G01*
X10215000Y-6450000D02*
G75*
G02*
X10185000Y-6450000I-15000J0D01*
G01*
X10185000Y-6450000D02*
G75*
G02*
X10215000Y-6450000I15000J0D01*
G01*
X10215000Y-7400000D02*
G75*
G02*
X10185000Y-7400000I-15000J0D01*
G01*
X10185000Y-7400000D02*
G75*
G02*
X10215000Y-7400000I15000J0D01*
G01*
X10355144Y-8690144D02*
G75*
G02*
X10325144Y-8690144I-15000J0D01*
G01*
X10325144Y-8690144D02*
G75*
G02*
X10355144Y-8690144I15000J0D01*
G01*
X10415000Y-6177000D02*
G75*
G02*
X10385000Y-6177000I-15000J0D01*
G01*
X10385000Y-6177000D02*
G75*
G02*
X10415000Y-6177000I15000J0D01*
G01*
X10565000Y-6650000D02*
G75*
G02*
X10535000Y-6650000I-15000J0D01*
G01*
X10535000Y-6650000D02*
G75*
G02*
X10565000Y-6650000I15000J0D01*
G01*
X10565000Y-7400000D02*
G75*
G02*
X10535000Y-7400000I-15000J0D01*
G01*
X10535000Y-7400000D02*
G75*
G02*
X10565000Y-7400000I15000J0D01*
G01*
X10615000Y-5700000D02*
G75*
G02*
X10585000Y-5700000I-15000J0D01*
G01*
X10585000Y-5700000D02*
G75*
G02*
X10615000Y-5700000I15000J0D01*
G01*
X10865000Y-4550000D02*
G75*
G02*
X10835000Y-4550000I-15000J0D01*
G01*
X10835000Y-4550000D02*
G75*
G02*
X10865000Y-4550000I15000J0D01*
G01*
X11015000Y-7766000D02*
G75*
G02*
X10985000Y-7766000I-15000J0D01*
G01*
X10985000Y-7766000D02*
G75*
G02*
X11015000Y-7766000I15000J0D01*
G01*
X11226500Y-7572000D02*
G75*
G02*
X11196500Y-7572000I-15000J0D01*
G01*
X11196500Y-7572000D02*
G75*
G02*
X11226500Y-7572000I15000J0D01*
G01*
X11315000Y-6950000D02*
G75*
G02*
X11285000Y-6950000I-15000J0D01*
G01*
X11285000Y-6950000D02*
G75*
G02*
X11315000Y-6950000I15000J0D01*
G01*
X11365000Y-7400000D02*
G75*
G02*
X11335000Y-7400000I-15000J0D01*
G01*
X11335000Y-7400000D02*
G75*
G02*
X11365000Y-7400000I15000J0D01*
G01*
X11415000Y-6230950D02*
G75*
G02*
X11385000Y-6230950I-15000J0D01*
G01*
X11385000Y-6230950D02*
G75*
G02*
X11415000Y-6230950I15000J0D01*
G01*
X11615000Y-5853950D02*
G75*
G02*
X11585000Y-5853950I-15000J0D01*
G01*
X11585000Y-5853950D02*
G75*
G02*
X11615000Y-5853950I15000J0D01*
G01*
X11618601Y-6230950D02*
G75*
G02*
X11588601Y-6230950I-15000J0D01*
G01*
X11588601Y-6230950D02*
G75*
G02*
X11618601Y-6230950I15000J0D01*
G01*
X11662199Y-5992050D02*
G75*
G02*
X11632199Y-5992050I-15000J0D01*
G01*
X11632199Y-5992050D02*
G75*
G02*
X11662199Y-5992050I15000J0D01*
G01*
X11765000Y-6200000D02*
G75*
G02*
X11735000Y-6200000I-15000J0D01*
G01*
X11735000Y-6200000D02*
G75*
G02*
X11765000Y-6200000I15000J0D01*
G01*
X11805806Y-5840806D02*
G75*
G02*
X11775806Y-5840806I-15000J0D01*
G01*
X11775806Y-5840806D02*
G75*
G02*
X11805806Y-5840806I15000J0D01*
G01*
X11953350Y-6369050D02*
G75*
G02*
X11923350Y-6369050I-15000J0D01*
G01*
X11923350Y-6369050D02*
G75*
G02*
X11953350Y-6369050I15000J0D01*
G01*
X11965000Y-7200000D02*
G75*
G02*
X11935000Y-7200000I-15000J0D01*
G01*
X11935000Y-7200000D02*
G75*
G02*
X11965000Y-7200000I15000J0D01*
G01*
X11973960Y-5875591D02*
G75*
G02*
X11943960Y-5875591I-15000J0D01*
G01*
X11943960Y-5875591D02*
G75*
G02*
X11973960Y-5875591I15000J0D01*
G01*
X12015000Y-7050000D02*
G75*
G02*
X11985000Y-7050000I-15000J0D01*
G01*
X11985000Y-7050000D02*
G75*
G02*
X12015000Y-7050000I15000J0D01*
G01*
X12015000Y-7350000D02*
G75*
G02*
X11985000Y-7350000I-15000J0D01*
G01*
X11985000Y-7350000D02*
G75*
G02*
X12015000Y-7350000I15000J0D01*
G01*
X12015000Y-12600000D02*
G75*
G02*
X11985000Y-12600000I-15000J0D01*
G01*
X11985000Y-12600000D02*
G75*
G02*
X12015000Y-12600000I15000J0D01*
G01*
X12115000Y-5200000D02*
G75*
G02*
X12085000Y-5200000I-15000J0D01*
G01*
X12085000Y-5200000D02*
G75*
G02*
X12115000Y-5200000I15000J0D01*
G01*
X12115000Y-7550000D02*
G75*
G02*
X12085000Y-7550000I-15000J0D01*
G01*
X12085000Y-7550000D02*
G75*
G02*
X12115000Y-7550000I15000J0D01*
G01*
X12165000Y-6304000D02*
G75*
G02*
X12135000Y-6304000I-15000J0D01*
G01*
X12135000Y-6304000D02*
G75*
G02*
X12165000Y-6304000I15000J0D01*
G01*
X12415000Y-5850000D02*
G75*
G02*
X12385000Y-5850000I-15000J0D01*
G01*
X12385000Y-5850000D02*
G75*
G02*
X12415000Y-5850000I15000J0D01*
G01*
X12515000Y-5600000D02*
G75*
G02*
X12485000Y-5600000I-15000J0D01*
G01*
X12485000Y-5600000D02*
G75*
G02*
X12515000Y-5600000I15000J0D01*
G01*
X12515000Y-7812300D02*
G75*
G02*
X12485000Y-7812300I-15000J0D01*
G01*
X12485000Y-7812300D02*
G75*
G02*
X12515000Y-7812300I15000J0D01*
G01*
X12588459Y-6023459D02*
G75*
G02*
X12558459Y-6023459I-15000J0D01*
G01*
X12558459Y-6023459D02*
G75*
G02*
X12588459Y-6023459I15000J0D01*
G01*
X12615000Y-11074450D02*
G75*
G02*
X12585000Y-11074450I-15000J0D01*
G01*
X12585000Y-11074450D02*
G75*
G02*
X12615000Y-11074450I15000J0D01*
G01*
X12659641Y-5944641D02*
G75*
G02*
X12629641Y-5944641I-15000J0D01*
G01*
X12629641Y-5944641D02*
G75*
G02*
X12659641Y-5944641I15000J0D01*
G01*
X12665000Y-6150000D02*
G75*
G02*
X12635000Y-6150000I-15000J0D01*
G01*
X12635000Y-6150000D02*
G75*
G02*
X12665000Y-6150000I15000J0D01*
G01*
X12715000Y-7881350D02*
G75*
G02*
X12685000Y-7881350I-15000J0D01*
G01*
X12685000Y-7881350D02*
G75*
G02*
X12715000Y-7881350I15000J0D01*
G01*
X12865000Y-6080950D02*
G75*
G02*
X12835000Y-6080950I-15000J0D01*
G01*
X12835000Y-6080950D02*
G75*
G02*
X12865000Y-6080950I15000J0D01*
G01*
X12965000Y-9669050D02*
G75*
G02*
X12935000Y-9669050I-15000J0D01*
G01*
X12935000Y-9669050D02*
G75*
G02*
X12965000Y-9669050I15000J0D01*
G01*
X12999240Y-8150000D02*
G75*
G02*
X12969240Y-8150000I-15000J0D01*
G01*
X12969240Y-8150000D02*
G75*
G02*
X12999240Y-8150000I15000J0D01*
G01*
X13020580Y-11700000D02*
G75*
G02*
X12990580Y-11700000I-15000J0D01*
G01*
X12990580Y-11700000D02*
G75*
G02*
X13020580Y-11700000I15000J0D01*
G01*
X13115000Y-9350000D02*
G75*
G02*
X13085000Y-9350000I-15000J0D01*
G01*
X13085000Y-9350000D02*
G75*
G02*
X13115000Y-9350000I15000J0D01*
G01*
X13265000Y-6080950D02*
G75*
G02*
X13235000Y-6080950I-15000J0D01*
G01*
X13235000Y-6080950D02*
G75*
G02*
X13265000Y-6080950I15000J0D01*
G01*
X13265000Y-6080950D02*
G75*
G02*
X13235000Y-6080950I-15000J0D01*
G01*
X13235000Y-6080950D02*
G75*
G02*
X13265000Y-6080950I15000J0D01*
G01*
X13315000Y-5850000D02*
G75*
G02*
X13285000Y-5850000I-15000J0D01*
G01*
X13285000Y-5850000D02*
G75*
G02*
X13315000Y-5850000I15000J0D01*
G01*
X13765000Y-8900000D02*
G75*
G02*
X13735000Y-8900000I-15000J0D01*
G01*
X13735000Y-8900000D02*
G75*
G02*
X13765000Y-8900000I15000J0D01*
G01*
X13843123Y-10024450D02*
G75*
G02*
X13813123Y-10024450I-15000J0D01*
G01*
X13813123Y-10024450D02*
G75*
G02*
X13843123Y-10024450I15000J0D01*
G01*
X13865000Y-9200000D02*
G75*
G02*
X13835000Y-9200000I-15000J0D01*
G01*
X13835000Y-9200000D02*
G75*
G02*
X13865000Y-9200000I15000J0D01*
G01*
X13915000Y-8450000D02*
G75*
G02*
X13885000Y-8450000I-15000J0D01*
G01*
X13885000Y-8450000D02*
G75*
G02*
X13915000Y-8450000I15000J0D01*
G01*
X14015000Y-7881350D02*
G75*
G02*
X13985000Y-7881350I-15000J0D01*
G01*
X13985000Y-7881350D02*
G75*
G02*
X14015000Y-7881350I15000J0D01*
G01*
X14015000Y-8000000D02*
G75*
G02*
X13985000Y-8000000I-15000J0D01*
G01*
X13985000Y-8000000D02*
G75*
G02*
X14015000Y-8000000I15000J0D01*
G01*
X14015000Y-12600000D02*
G75*
G02*
X13985000Y-12600000I-15000J0D01*
G01*
X13985000Y-12600000D02*
G75*
G02*
X14015000Y-12600000I15000J0D01*
G01*
X14065000Y-6050000D02*
G75*
G02*
X14035000Y-6050000I-15000J0D01*
G01*
X14035000Y-6050000D02*
G75*
G02*
X14065000Y-6050000I15000J0D01*
G01*
X14082118Y-6650479D02*
G75*
G02*
X14052118Y-6650479I-15000J0D01*
G01*
X14052118Y-6650479D02*
G75*
G02*
X14082118Y-6650479I15000J0D01*
G01*
X14115000Y-8900000D02*
G75*
G02*
X14085000Y-8900000I-15000J0D01*
G01*
X14085000Y-8900000D02*
G75*
G02*
X14115000Y-8900000I15000J0D01*
G01*
X14115000Y-10358090D02*
G75*
G02*
X14085000Y-10358090I-15000J0D01*
G01*
X14085000Y-10358090D02*
G75*
G02*
X14115000Y-10358090I15000J0D01*
G01*
X14125594Y-4460594D02*
G75*
G02*
X14095594Y-4460594I-15000J0D01*
G01*
X14095594Y-4460594D02*
G75*
G02*
X14125594Y-4460594I15000J0D01*
G01*
X14165000Y-8400000D02*
G75*
G02*
X14135000Y-8400000I-15000J0D01*
G01*
X14135000Y-8400000D02*
G75*
G02*
X14165000Y-8400000I15000J0D01*
G01*
X14215000Y-12750000D02*
G75*
G02*
X14185000Y-12750000I-15000J0D01*
G01*
X14185000Y-12750000D02*
G75*
G02*
X14215000Y-12750000I15000J0D01*
G01*
X14265000Y-3500000D02*
G75*
G02*
X14235000Y-3500000I-15000J0D01*
G01*
X14235000Y-3500000D02*
G75*
G02*
X14265000Y-3500000I15000J0D01*
G01*
X14315000Y-7806900D02*
G75*
G02*
X14285000Y-7806900I-15000J0D01*
G01*
X14285000Y-7806900D02*
G75*
G02*
X14315000Y-7806900I15000J0D01*
G01*
X14361437Y-9296437D02*
G75*
G02*
X14331437Y-9296437I-15000J0D01*
G01*
X14331437Y-9296437D02*
G75*
G02*
X14361437Y-9296437I15000J0D01*
G01*
X14406600Y-11950000D02*
G75*
G02*
X14376600Y-11950000I-15000J0D01*
G01*
X14376600Y-11950000D02*
G75*
G02*
X14406600Y-11950000I15000J0D01*
G01*
X14406600Y-12100000D02*
G75*
G02*
X14376600Y-12100000I-15000J0D01*
G01*
X14376600Y-12100000D02*
G75*
G02*
X14406600Y-12100000I15000J0D01*
G01*
X14465000Y-6350000D02*
G75*
G02*
X14435000Y-6350000I-15000J0D01*
G01*
X14435000Y-6350000D02*
G75*
G02*
X14465000Y-6350000I15000J0D01*
G01*
X14495950Y-4250000D02*
G75*
G02*
X14465950Y-4250000I-15000J0D01*
G01*
X14465950Y-4250000D02*
G75*
G02*
X14495950Y-4250000I15000J0D01*
G01*
X14515000Y-7450000D02*
G75*
G02*
X14485000Y-7450000I-15000J0D01*
G01*
X14485000Y-7450000D02*
G75*
G02*
X14515000Y-7450000I15000J0D01*
G01*
X14550100Y-11600000D02*
G75*
G02*
X14520100Y-11600000I-15000J0D01*
G01*
X14520100Y-11600000D02*
G75*
G02*
X14550100Y-11600000I15000J0D01*
G01*
X14565000Y-7300000D02*
G75*
G02*
X14535000Y-7300000I-15000J0D01*
G01*
X14535000Y-7300000D02*
G75*
G02*
X14565000Y-7300000I15000J0D01*
G01*
X14615000Y-8000000D02*
G75*
G02*
X14585000Y-8000000I-15000J0D01*
G01*
X14585000Y-8000000D02*
G75*
G02*
X14615000Y-8000000I15000J0D01*
G01*
X14615000Y-11950000D02*
G75*
G02*
X14585000Y-11950000I-15000J0D01*
G01*
X14585000Y-11950000D02*
G75*
G02*
X14615000Y-11950000I15000J0D01*
G01*
X14665000Y-7650000D02*
G75*
G02*
X14635000Y-7650000I-15000J0D01*
G01*
X14635000Y-7650000D02*
G75*
G02*
X14665000Y-7650000I15000J0D01*
G01*
X14665000Y-12100000D02*
G75*
G02*
X14635000Y-12100000I-15000J0D01*
G01*
X14635000Y-12100000D02*
G75*
G02*
X14665000Y-12100000I15000J0D01*
G01*
X14684050Y-7329900D02*
G75*
G02*
X14654050Y-7329900I-15000J0D01*
G01*
X14654050Y-7329900D02*
G75*
G02*
X14684050Y-7329900I15000J0D01*
G01*
X14715000Y-6600000D02*
G75*
G02*
X14685000Y-6600000I-15000J0D01*
G01*
X14685000Y-6600000D02*
G75*
G02*
X14715000Y-6600000I15000J0D01*
G01*
X14715000Y-6750000D02*
G75*
G02*
X14685000Y-6750000I-15000J0D01*
G01*
X14685000Y-6750000D02*
G75*
G02*
X14715000Y-6750000I15000J0D01*
G01*
X14765000Y-4400000D02*
G75*
G02*
X14735000Y-4400000I-15000J0D01*
G01*
X14735000Y-4400000D02*
G75*
G02*
X14765000Y-4400000I15000J0D01*
G01*
X14765000Y-5735200D02*
G75*
G02*
X14735000Y-5735200I-15000J0D01*
G01*
X14735000Y-5735200D02*
G75*
G02*
X14765000Y-5735200I15000J0D01*
G01*
X14765000Y-5850000D02*
G75*
G02*
X14735000Y-5850000I-15000J0D01*
G01*
X14735000Y-5850000D02*
G75*
G02*
X14765000Y-5850000I15000J0D01*
G01*
X14765000Y-5850000D02*
G75*
G02*
X14735000Y-5850000I-15000J0D01*
G01*
X14735000Y-5850000D02*
G75*
G02*
X14765000Y-5850000I15000J0D01*
G01*
X14765000Y-10700000D02*
G75*
G02*
X14735000Y-10700000I-15000J0D01*
G01*
X14735000Y-10700000D02*
G75*
G02*
X14765000Y-10700000I15000J0D01*
G01*
X14815000Y-4900000D02*
G75*
G02*
X14785000Y-4900000I-15000J0D01*
G01*
X14785000Y-4900000D02*
G75*
G02*
X14815000Y-4900000I15000J0D01*
G01*
X14815000Y-5597100D02*
G75*
G02*
X14785000Y-5597100I-15000J0D01*
G01*
X14785000Y-5597100D02*
G75*
G02*
X14815000Y-5597100I15000J0D01*
G01*
X14815000Y-7850000D02*
G75*
G02*
X14785000Y-7850000I-15000J0D01*
G01*
X14785000Y-7850000D02*
G75*
G02*
X14815000Y-7850000I15000J0D01*
G01*
X14900000Y-7390448D02*
G75*
G02*
X14870000Y-7390448I-15000J0D01*
G01*
X14870000Y-7390448D02*
G75*
G02*
X14900000Y-7390448I15000J0D01*
G01*
X14913526Y-5298526D02*
G75*
G02*
X14883526Y-5298526I-15000J0D01*
G01*
X14883526Y-5298526D02*
G75*
G02*
X14913526Y-5298526I15000J0D01*
G01*
X14927000Y-4800000D02*
G75*
G02*
X14897000Y-4800000I-15000J0D01*
G01*
X14897000Y-4800000D02*
G75*
G02*
X14927000Y-4800000I15000J0D01*
G01*
X14986047Y-5229716D02*
G75*
G02*
X14956047Y-5229716I-15000J0D01*
G01*
X14956047Y-5229716D02*
G75*
G02*
X14986047Y-5229716I15000J0D01*
G01*
X14995151Y-4082500D02*
G75*
G02*
X14965151Y-4082500I-15000J0D01*
G01*
X14965151Y-4082500D02*
G75*
G02*
X14995151Y-4082500I15000J0D01*
G01*
X14999124Y-4734124D02*
G75*
G02*
X14969124Y-4734124I-15000J0D01*
G01*
X14969124Y-4734124D02*
G75*
G02*
X14999124Y-4734124I15000J0D01*
G01*
X15015000Y-7400000D02*
G75*
G02*
X14985000Y-7400000I-15000J0D01*
G01*
X14985000Y-7400000D02*
G75*
G02*
X15015000Y-7400000I15000J0D01*
G01*
X15017500Y-7500000D02*
G75*
G02*
X14987500Y-7500000I-15000J0D01*
G01*
X14987500Y-7500000D02*
G75*
G02*
X15017500Y-7500000I15000J0D01*
G01*
X15070000Y-5350000D02*
G75*
G02*
X15040000Y-5350000I-15000J0D01*
G01*
X15040000Y-5350000D02*
G75*
G02*
X15070000Y-5350000I15000J0D01*
G01*
X15071776Y-4856776D02*
G75*
G02*
X15041776Y-4856776I-15000J0D01*
G01*
X15041776Y-4856776D02*
G75*
G02*
X15071776Y-4856776I15000J0D01*
G01*
X15071776Y-5543224D02*
G75*
G02*
X15041776Y-5543224I-15000J0D01*
G01*
X15041776Y-5543224D02*
G75*
G02*
X15071776Y-5543224I15000J0D01*
G01*
X15113000Y-4900000D02*
G75*
G02*
X15083000Y-4900000I-15000J0D01*
G01*
X15083000Y-4900000D02*
G75*
G02*
X15113000Y-4900000I15000J0D01*
G01*
X15182619Y-8467619D02*
G75*
G02*
X15152619Y-8467619I-15000J0D01*
G01*
X15152619Y-8467619D02*
G75*
G02*
X15182619Y-8467619I15000J0D01*
G01*
X15225144Y-7410144D02*
G75*
G02*
X15195144Y-7410144I-15000J0D01*
G01*
X15195144Y-7410144D02*
G75*
G02*
X15225144Y-7410144I15000J0D01*
G01*
X15265000Y-4450000D02*
G75*
G02*
X15235000Y-4450000I-15000J0D01*
G01*
X15235000Y-4450000D02*
G75*
G02*
X15265000Y-4450000I15000J0D01*
G01*
X15265000Y-5350000D02*
G75*
G02*
X15235000Y-5350000I-15000J0D01*
G01*
X15235000Y-5350000D02*
G75*
G02*
X15265000Y-5350000I15000J0D01*
G01*
X15665000Y-9150000D02*
G75*
G02*
X15635000Y-9150000I-15000J0D01*
G01*
X15635000Y-9150000D02*
G75*
G02*
X15665000Y-9150000I15000J0D01*
G01*
X15765000Y-6224450D02*
G75*
G02*
X15735000Y-6224450I-15000J0D01*
G01*
X15735000Y-6224450D02*
G75*
G02*
X15765000Y-6224450I15000J0D01*
G01*
X15786500Y-7828349D02*
G75*
G02*
X15756500Y-7828349I-15000J0D01*
G01*
X15756500Y-7828349D02*
G75*
G02*
X15786500Y-7828349I15000J0D01*
G01*
X15787002Y-5988400D02*
G75*
G02*
X15757002Y-5988400I-15000J0D01*
G01*
X15757002Y-5988400D02*
G75*
G02*
X15787002Y-5988400I15000J0D01*
G01*
X15815000Y-7668800D02*
G75*
G02*
X15785000Y-7668800I-15000J0D01*
G01*
X15785000Y-7668800D02*
G75*
G02*
X15815000Y-7668800I15000J0D01*
G01*
X15815000Y-9400000D02*
G75*
G02*
X15785000Y-9400000I-15000J0D01*
G01*
X15785000Y-9400000D02*
G75*
G02*
X15815000Y-9400000I15000J0D01*
G01*
X15865000Y-6800000D02*
G75*
G02*
X15835000Y-6800000I-15000J0D01*
G01*
X15835000Y-6800000D02*
G75*
G02*
X15865000Y-6800000I15000J0D01*
G01*
X15965000Y-4200000D02*
G75*
G02*
X15935000Y-4200000I-15000J0D01*
G01*
X15935000Y-4200000D02*
G75*
G02*
X15965000Y-4200000I15000J0D01*
G01*
X15965000Y-6400000D02*
G75*
G02*
X15935000Y-6400000I-15000J0D01*
G01*
X15935000Y-6400000D02*
G75*
G02*
X15965000Y-6400000I15000J0D01*
G01*
X15965000Y-6600000D02*
G75*
G02*
X15935000Y-6600000I-15000J0D01*
G01*
X15935000Y-6600000D02*
G75*
G02*
X15965000Y-6600000I15000J0D01*
G01*
X15965000Y-7250000D02*
G75*
G02*
X15935000Y-7250000I-15000J0D01*
G01*
X15935000Y-7250000D02*
G75*
G02*
X15965000Y-7250000I15000J0D01*
G01*
X15965000Y-7250000D02*
G75*
G02*
X15935000Y-7250000I-15000J0D01*
G01*
X15935000Y-7250000D02*
G75*
G02*
X15965000Y-7250000I15000J0D01*
G01*
X15965000Y-10725550D02*
G75*
G02*
X15935000Y-10725550I-15000J0D01*
G01*
X15935000Y-10725550D02*
G75*
G02*
X15965000Y-10725550I15000J0D01*
G01*
X16015000Y-6750000D02*
G75*
G02*
X15985000Y-6750000I-15000J0D01*
G01*
X15985000Y-6750000D02*
G75*
G02*
X16015000Y-6750000I15000J0D01*
G01*
X16028154Y-5844900D02*
G75*
G02*
X15998154Y-5844900I-15000J0D01*
G01*
X15998154Y-5844900D02*
G75*
G02*
X16028154Y-5844900I15000J0D01*
G01*
X16050100Y-6500000D02*
G75*
G02*
X16020100Y-6500000I-15000J0D01*
G01*
X16020100Y-6500000D02*
G75*
G02*
X16050100Y-6500000I15000J0D01*
G01*
X16055500Y-6676896D02*
G75*
G02*
X16025500Y-6676896I-15000J0D01*
G01*
X16025500Y-6676896D02*
G75*
G02*
X16055500Y-6676896I15000J0D01*
G01*
X16065000Y-5350000D02*
G75*
G02*
X16035000Y-5350000I-15000J0D01*
G01*
X16035000Y-5350000D02*
G75*
G02*
X16065000Y-5350000I15000J0D01*
G01*
X16065000Y-5450000D02*
G75*
G02*
X16035000Y-5450000I-15000J0D01*
G01*
X16035000Y-5450000D02*
G75*
G02*
X16065000Y-5450000I15000J0D01*
G01*
X16065000Y-9100000D02*
G75*
G02*
X16035000Y-9100000I-15000J0D01*
G01*
X16035000Y-9100000D02*
G75*
G02*
X16065000Y-9100000I15000J0D01*
G01*
X16069027Y-5804027D02*
G75*
G02*
X16039027Y-5804027I-15000J0D01*
G01*
X16039027Y-5804027D02*
G75*
G02*
X16069027Y-5804027I15000J0D01*
G01*
X16129800Y-7815722D02*
G75*
G02*
X16099800Y-7815722I-15000J0D01*
G01*
X16099800Y-7815722D02*
G75*
G02*
X16129800Y-7815722I15000J0D01*
G01*
X16145950Y-4750000D02*
G75*
G02*
X16115950Y-4750000I-15000J0D01*
G01*
X16115950Y-4750000D02*
G75*
G02*
X16145950Y-4750000I15000J0D01*
G01*
X16165000Y-5850000D02*
G75*
G02*
X16135000Y-5850000I-15000J0D01*
G01*
X16135000Y-5850000D02*
G75*
G02*
X16165000Y-5850000I15000J0D01*
G01*
X16165000Y-10200000D02*
G75*
G02*
X16135000Y-10200000I-15000J0D01*
G01*
X16135000Y-10200000D02*
G75*
G02*
X16165000Y-10200000I15000J0D01*
G01*
X16193600Y-7350000D02*
G75*
G02*
X16163600Y-7350000I-15000J0D01*
G01*
X16163600Y-7350000D02*
G75*
G02*
X16193600Y-7350000I15000J0D01*
G01*
X16195950Y-7491724D02*
G75*
G02*
X16165950Y-7491724I-15000J0D01*
G01*
X16165950Y-7491724D02*
G75*
G02*
X16195950Y-7491724I15000J0D01*
G01*
X16265000Y-8100000D02*
G75*
G02*
X16235000Y-8100000I-15000J0D01*
G01*
X16235000Y-8100000D02*
G75*
G02*
X16265000Y-8100000I15000J0D01*
G01*
X16315000Y-4050000D02*
G75*
G02*
X16285000Y-4050000I-15000J0D01*
G01*
X16285000Y-4050000D02*
G75*
G02*
X16315000Y-4050000I15000J0D01*
G01*
X16315000Y-4200000D02*
G75*
G02*
X16285000Y-4200000I-15000J0D01*
G01*
X16285000Y-4200000D02*
G75*
G02*
X16315000Y-4200000I15000J0D01*
G01*
X16326200Y-7650000D02*
G75*
G02*
X16296200Y-7650000I-15000J0D01*
G01*
X16296200Y-7650000D02*
G75*
G02*
X16326200Y-7650000I15000J0D01*
G01*
X16326200Y-7812300D02*
G75*
G02*
X16296200Y-7812300I-15000J0D01*
G01*
X16296200Y-7812300D02*
G75*
G02*
X16326200Y-7812300I15000J0D01*
G01*
X16384050Y-4800000D02*
G75*
G02*
X16354050Y-4800000I-15000J0D01*
G01*
X16354050Y-4800000D02*
G75*
G02*
X16384050Y-4800000I15000J0D01*
G01*
X16384050Y-4800000D02*
G75*
G02*
X16354050Y-4800000I-15000J0D01*
G01*
X16354050Y-4800000D02*
G75*
G02*
X16384050Y-4800000I15000J0D01*
G01*
X16389063Y-6147577D02*
G75*
G02*
X16359063Y-6147577I-15000J0D01*
G01*
X16359063Y-6147577D02*
G75*
G02*
X16389063Y-6147577I15000J0D01*
G01*
X16515000Y-9907470D02*
G75*
G02*
X16485000Y-9907470I-15000J0D01*
G01*
X16485000Y-9907470D02*
G75*
G02*
X16515000Y-9907470I15000J0D01*
G01*
X16534050Y-6800000D02*
G75*
G02*
X16504050Y-6800000I-15000J0D01*
G01*
X16504050Y-6800000D02*
G75*
G02*
X16534050Y-6800000I15000J0D01*
G01*
X16565000Y-3950000D02*
G75*
G02*
X16535000Y-3950000I-15000J0D01*
G01*
X16535000Y-3950000D02*
G75*
G02*
X16565000Y-3950000I15000J0D01*
G01*
X16565000Y-11250000D02*
G75*
G02*
X16535000Y-11250000I-15000J0D01*
G01*
X16535000Y-11250000D02*
G75*
G02*
X16565000Y-11250000I15000J0D01*
G01*
X16594050Y-7400000D02*
G75*
G02*
X16564050Y-7400000I-15000J0D01*
G01*
X16564050Y-7400000D02*
G75*
G02*
X16594050Y-7400000I15000J0D01*
G01*
X16605000Y-6600000D02*
G75*
G02*
X16575000Y-6600000I-15000J0D01*
G01*
X16575000Y-6600000D02*
G75*
G02*
X16605000Y-6600000I15000J0D01*
G01*
X16615000Y-7850000D02*
G75*
G02*
X16585000Y-7850000I-15000J0D01*
G01*
X16585000Y-7850000D02*
G75*
G02*
X16615000Y-7850000I15000J0D01*
G01*
X16665000Y-7600000D02*
G75*
G02*
X16635000Y-7600000I-15000J0D01*
G01*
X16635000Y-7600000D02*
G75*
G02*
X16665000Y-7600000I15000J0D01*
G01*
X16725000Y-4800000D02*
G75*
G02*
X16695000Y-4800000I-15000J0D01*
G01*
X16695000Y-4800000D02*
G75*
G02*
X16725000Y-4800000I15000J0D01*
G01*
X16815000Y-8250000D02*
G75*
G02*
X16785000Y-8250000I-15000J0D01*
G01*
X16785000Y-8250000D02*
G75*
G02*
X16815000Y-8250000I15000J0D01*
G01*
X16874640Y-7081190D02*
G75*
G02*
X16844640Y-7081190I-15000J0D01*
G01*
X16844640Y-7081190D02*
G75*
G02*
X16874640Y-7081190I15000J0D01*
G01*
X16965140Y-9623900D02*
G75*
G02*
X16935140Y-9623900I-15000J0D01*
G01*
X16935140Y-9623900D02*
G75*
G02*
X16965140Y-9623900I15000J0D01*
G01*
X16970084Y-9287543D02*
G75*
G02*
X16940084Y-9287543I-15000J0D01*
G01*
X16940084Y-9287543D02*
G75*
G02*
X16970084Y-9287543I15000J0D01*
G01*
X17015000Y-5550000D02*
G75*
G02*
X16985000Y-5550000I-15000J0D01*
G01*
X16985000Y-5550000D02*
G75*
G02*
X17015000Y-5550000I15000J0D01*
G01*
X17025000Y-10550000D02*
G75*
G02*
X16995000Y-10550000I-15000J0D01*
G01*
X16995000Y-10550000D02*
G75*
G02*
X17025000Y-10550000I15000J0D01*
G01*
X17140540Y-7000000D02*
G75*
G02*
X17110540Y-7000000I-15000J0D01*
G01*
X17110540Y-7000000D02*
G75*
G02*
X17140540Y-7000000I15000J0D01*
G01*
X17154064Y-9395150D02*
G75*
G02*
X17124064Y-9395150I-15000J0D01*
G01*
X17124064Y-9395150D02*
G75*
G02*
X17154064Y-9395150I15000J0D01*
G01*
X17164500Y-8100000D02*
G75*
G02*
X17134500Y-8100000I-15000J0D01*
G01*
X17134500Y-8100000D02*
G75*
G02*
X17164500Y-8100000I15000J0D01*
G01*
X17165000Y-10550000D02*
G75*
G02*
X17135000Y-10550000I-15000J0D01*
G01*
X17135000Y-10550000D02*
G75*
G02*
X17165000Y-10550000I15000J0D01*
G01*
X17415000Y-9391789D02*
G75*
G02*
X17385000Y-9391789I-15000J0D01*
G01*
X17385000Y-9391789D02*
G75*
G02*
X17415000Y-9391789I15000J0D01*
G01*
X17465000Y-7350000D02*
G75*
G02*
X17435000Y-7350000I-15000J0D01*
G01*
X17435000Y-7350000D02*
G75*
G02*
X17465000Y-7350000I15000J0D01*
G01*
X17555360Y-7081190D02*
G75*
G02*
X17525360Y-7081190I-15000J0D01*
G01*
X17525360Y-7081190D02*
G75*
G02*
X17555360Y-7081190I15000J0D01*
G01*
X17589560Y-8612810D02*
G75*
G02*
X17559560Y-8612810I-15000J0D01*
G01*
X17559560Y-8612810D02*
G75*
G02*
X17589560Y-8612810I15000J0D01*
G01*
X17765000Y-8800000D02*
G75*
G02*
X17735000Y-8800000I-15000J0D01*
G01*
X17735000Y-8800000D02*
G75*
G02*
X17765000Y-8800000I15000J0D01*
G01*
X17765000Y-9900000D02*
G75*
G02*
X17735000Y-9900000I-15000J0D01*
G01*
X17735000Y-9900000D02*
G75*
G02*
X17765000Y-9900000I15000J0D01*
G01*
X17815000Y-6450000D02*
G75*
G02*
X17785000Y-6450000I-15000J0D01*
G01*
X17785000Y-6450000D02*
G75*
G02*
X17815000Y-6450000I15000J0D01*
G01*
X17865000Y-9550000D02*
G75*
G02*
X17835000Y-9550000I-15000J0D01*
G01*
X17835000Y-9550000D02*
G75*
G02*
X17865000Y-9550000I15000J0D01*
G01*
X17915000Y-7650000D02*
G75*
G02*
X17885000Y-7650000I-15000J0D01*
G01*
X17885000Y-7650000D02*
G75*
G02*
X17915000Y-7650000I15000J0D01*
G01*
X9312500Y-3807680D02*
X9312500Y-3848320D01*
X9292180Y-3828000D02*
X9332820Y-3828000D01*
X9377500Y-3907680D02*
X9377500Y-3948320D01*
X9357180Y-3928000D02*
X9397820Y-3928000D01*
X9442500Y-3807680D02*
X9442500Y-3848320D01*
X9422180Y-3828000D02*
X9462820Y-3828000D01*
X9507500Y-3907680D02*
X9507500Y-3948320D01*
X9487180Y-3928000D02*
X9527820Y-3928000D01*
X9572500Y-3807680D02*
X9572500Y-3848320D01*
X9552180Y-3828000D02*
X9592820Y-3828000D01*
X15066284Y-8724285D02*
X15066284Y-8667716D01*
X15009715Y-8667716D01*
X15009715Y-8724285D01*
X15066284Y-8724285D01*
X15066284Y-8978285D02*
X15066284Y-8921716D01*
X15009715Y-8921716D01*
X15009715Y-8978285D01*
X15066284Y-8978285D01*
X15066284Y-9928285D02*
X15066284Y-9871716D01*
X15009715Y-9871716D01*
X15009715Y-9928285D01*
X15066284Y-9928285D01*
X15066284Y-10182285D02*
X15066284Y-10125716D01*
X15009715Y-10125716D01*
X15009715Y-10182285D01*
X15066284Y-10182285D01*
X15320284Y-8724285D02*
X15320284Y-8667716D01*
X15263715Y-8667716D01*
X15263715Y-8724285D01*
X15320284Y-8724285D01*
X15320284Y-8978285D02*
X15320284Y-8921716D01*
X15263715Y-8921716D01*
X15263715Y-8978285D01*
X15320284Y-8978285D01*
X15320284Y-9928285D02*
X15320284Y-9871716D01*
X15263715Y-9871716D01*
X15263715Y-9928285D01*
X15320284Y-9928285D01*
X15320284Y-10182285D02*
X15320284Y-10125716D01*
X15263715Y-10125716D01*
X15263715Y-10182285D01*
X15320284Y-10182285D01*
X15574284Y-8724285D02*
X15574284Y-8667716D01*
X15517715Y-8667716D01*
X15517715Y-8724285D01*
X15574284Y-8724285D01*
X15574284Y-8978285D02*
X15574284Y-8921716D01*
X15517715Y-8921716D01*
X15517715Y-8978285D01*
X15574284Y-8978285D01*
X15574284Y-9928285D02*
X15574284Y-9871716D01*
X15517715Y-9871716D01*
X15517715Y-9928285D01*
X15574284Y-9928285D01*
X15574284Y-10182285D02*
X15574284Y-10125716D01*
X15517715Y-10125716D01*
X15517715Y-10182285D01*
X15574284Y-10182285D01*
X15828284Y-8724285D02*
X15828284Y-8667716D01*
X15771715Y-8667716D01*
X15771715Y-8724285D01*
X15828284Y-8724285D01*
X15828284Y-8978285D02*
X15828284Y-8921716D01*
X15771715Y-8921716D01*
X15771715Y-8978285D01*
X15828284Y-8978285D01*
X15828284Y-9928285D02*
X15828284Y-9871716D01*
X15771715Y-9871716D01*
X15771715Y-9928285D01*
X15828284Y-9928285D01*
X15828284Y-10182285D02*
X15828284Y-10125716D01*
X15771715Y-10125716D01*
X15771715Y-10182285D01*
X15828284Y-10182285D01*
X8996000Y-12544700D02*
X9040700Y-12500000D01*
X8996000Y-12455300D01*
X8951300Y-12500000D01*
X8996000Y-12544700D01*
X9050000Y-11794700D02*
X9094700Y-11750000D01*
X9050000Y-11705300D01*
X9005300Y-11750000D01*
X9050000Y-11794700D01*
X9073000Y-10994700D02*
X9117700Y-10950000D01*
X9073000Y-10905300D01*
X9028300Y-10950000D01*
X9073000Y-10994700D01*
X9250000Y-12544700D02*
X9294700Y-12500000D01*
X9250000Y-12455300D01*
X9205300Y-12500000D01*
X9250000Y-12544700D01*
X9304000Y-11794700D02*
X9348700Y-11750000D01*
X9304000Y-11705300D01*
X9259300Y-11750000D01*
X9304000Y-11794700D01*
X9327000Y-10994700D02*
X9371700Y-10950000D01*
X9327000Y-10905300D01*
X9282300Y-10950000D01*
X9327000Y-10994700D01*
X10373000Y-10944700D02*
X10417700Y-10900000D01*
X10373000Y-10855300D01*
X10328300Y-10900000D01*
X10373000Y-10944700D01*
X10627000Y-10944700D02*
X10671700Y-10900000D01*
X10627000Y-10855300D01*
X10582300Y-10900000D01*
X10627000Y-10944700D01*
X10787000Y-11805200D02*
X10831700Y-11760500D01*
X10787000Y-11715800D01*
X10742300Y-11760500D01*
X10787000Y-11805200D01*
X10973000Y-12594700D02*
X11017700Y-12550000D01*
X10973000Y-12505300D01*
X10928300Y-12550000D01*
X10973000Y-12594700D01*
X11041000Y-11805200D02*
X11085700Y-11760500D01*
X11041000Y-11715800D01*
X10996300Y-11760500D01*
X11041000Y-11805200D01*
X11227000Y-12594700D02*
X11271700Y-12550000D01*
X11227000Y-12505300D01*
X11182300Y-12550000D01*
X11227000Y-12594700D01*
X11873000Y-11194700D02*
X11917700Y-11150000D01*
X11873000Y-11105300D01*
X11828300Y-11150000D01*
X11873000Y-11194700D01*
X11996000Y-10394700D02*
X12040700Y-10350000D01*
X11996000Y-10305300D01*
X11951300Y-10350000D01*
X11996000Y-10394700D01*
X12127000Y-11194700D02*
X12171700Y-11150000D01*
X12127000Y-11105300D01*
X12082300Y-11150000D01*
X12127000Y-11194700D01*
X12250000Y-10394700D02*
X12294700Y-10350000D01*
X12250000Y-10305300D01*
X12205300Y-10350000D01*
X12250000Y-10394700D01*
X14346000Y-10894700D02*
X14390700Y-10850000D01*
X14346000Y-10805300D01*
X14301300Y-10850000D01*
X14346000Y-10894700D01*
X14600000Y-10894700D02*
X14644700Y-10850000D01*
X14600000Y-10805300D01*
X14555300Y-10850000D01*
X14600000Y-10894700D01*
D13*
X8909000Y-8584000D02*
X9041000Y-8716000D01*
X9041000Y-8584000D02*
X8909000Y-8716000D01*
X9041000Y-8650000D02*
G75*
G02*
X8909000Y-8650000I-66000J0D01*
G01*
X8909000Y-8650000D02*
G75*
G02*
X9041000Y-8650000I66000J0D01*
G01*
X8909000Y-9884000D02*
X9041000Y-10016000D01*
X9041000Y-9884000D02*
X8909000Y-10016000D01*
X9041000Y-9950000D02*
G75*
G02*
X8909000Y-9950000I-66000J0D01*
G01*
X8909000Y-9950000D02*
G75*
G02*
X9041000Y-9950000I66000J0D01*
G01*
X11159000Y-8584000D02*
X11291000Y-8716000D01*
X11291000Y-8584000D02*
X11159000Y-8716000D01*
X11291000Y-8650000D02*
G75*
G02*
X11159000Y-8650000I-66000J0D01*
G01*
X11159000Y-8650000D02*
G75*
G02*
X11291000Y-8650000I66000J0D01*
G01*
X11159000Y-9884000D02*
X11291000Y-10016000D01*
X11291000Y-9884000D02*
X11159000Y-10016000D01*
X11291000Y-9950000D02*
G75*
G02*
X11159000Y-9950000I-66000J0D01*
G01*
X11159000Y-9950000D02*
G75*
G02*
X11291000Y-9950000I66000J0D01*
G01*
D14*
X17295000Y-3620000D02*
X17455000Y-3780000D01*
X17455000Y-3620000D02*
X17295000Y-3780000D01*
X17375000Y-3620000D02*
X17375000Y-3780000D01*
X17295000Y-3700000D02*
X17455000Y-3700000D01*
X17295000Y-4220000D02*
X17455000Y-4380000D01*
X17455000Y-4220000D02*
X17295000Y-4380000D01*
X17375000Y-4220000D02*
X17375000Y-4380000D01*
X17295000Y-4300000D02*
X17455000Y-4300000D01*
X17765000Y-3920000D02*
X17925000Y-4080000D01*
X17925000Y-3920000D02*
X17765000Y-4080000D01*
X17845000Y-3920000D02*
X17845000Y-4080000D01*
X17765000Y-4000000D02*
X17925000Y-4000000D01*
D11*
X9350000Y-7300000D02*
X9550000Y-7500000D01*
X9550000Y-7300000D02*
X9350000Y-7500000D01*
X9520711Y-7470711D02*
X9520711Y-7329289D01*
X9379289Y-7329289D01*
X9379289Y-7470711D01*
X9520711Y-7470711D01*
X12200000Y-8500000D02*
X12400000Y-8700000D01*
X12400000Y-8500000D02*
X12200000Y-8700000D01*
X12370711Y-8670711D02*
X12370711Y-8529289D01*
X12229289Y-8529289D01*
X12229289Y-8670711D01*
X12370711Y-8670711D01*
X12250000Y-9250000D02*
X12450000Y-9450000D01*
X12450000Y-9250000D02*
X12250000Y-9450000D01*
X12420711Y-9420711D02*
X12420711Y-9279289D01*
X12279289Y-9279289D01*
X12279289Y-9420711D01*
X12420711Y-9420711D01*
X13100000Y-10900000D02*
X13300000Y-11100000D01*
X13300000Y-10900000D02*
X13100000Y-11100000D01*
X13270711Y-11070711D02*
X13270711Y-10929289D01*
X13129289Y-10929289D01*
X13129289Y-11070711D01*
X13270711Y-11070711D01*
X13400000Y-10100000D02*
X13600000Y-10300000D01*
X13600000Y-10100000D02*
X13400000Y-10300000D01*
X13570711Y-10270711D02*
X13570711Y-10129289D01*
X13429289Y-10129289D01*
X13429289Y-10270711D01*
X13570711Y-10270711D01*
X8658277Y-13363984D02*
X8658277Y-13163984D01*
X8658277Y-13163984D02*
X8705896Y-13163984D01*
X8705896Y-13163984D02*
X8734467Y-13173508D01*
X8734467Y-13173508D02*
X8753515Y-13192555D01*
X8753515Y-13192555D02*
X8763039Y-13211603D01*
X8763039Y-13211603D02*
X8772563Y-13249698D01*
X8772563Y-13249698D02*
X8772563Y-13278269D01*
X8772563Y-13278269D02*
X8763039Y-13316365D01*
X8763039Y-13316365D02*
X8753515Y-13335412D01*
X8753515Y-13335412D02*
X8734467Y-13354460D01*
X8734467Y-13354460D02*
X8705896Y-13363984D01*
X8705896Y-13363984D02*
X8658277Y-13363984D01*
X8858277Y-13363984D02*
X8858277Y-13230650D01*
X8858277Y-13268746D02*
X8867801Y-13249698D01*
X8867801Y-13249698D02*
X8877324Y-13240174D01*
X8877324Y-13240174D02*
X8896372Y-13230650D01*
X8896372Y-13230650D02*
X8915420Y-13230650D01*
X8982086Y-13363984D02*
X8982086Y-13230650D01*
X8982086Y-13163984D02*
X8972563Y-13173508D01*
X8972563Y-13173508D02*
X8982086Y-13183031D01*
X8982086Y-13183031D02*
X8991610Y-13173508D01*
X8991610Y-13173508D02*
X8982086Y-13163984D01*
X8982086Y-13163984D02*
X8982086Y-13183031D01*
X9105896Y-13363984D02*
X9086848Y-13354460D01*
X9086848Y-13354460D02*
X9077324Y-13335412D01*
X9077324Y-13335412D02*
X9077324Y-13163984D01*
X9210658Y-13363984D02*
X9191610Y-13354460D01*
X9191610Y-13354460D02*
X9182086Y-13335412D01*
X9182086Y-13335412D02*
X9182086Y-13163984D01*
X9439229Y-13363984D02*
X9439229Y-13163984D01*
X9439229Y-13163984D02*
X9505896Y-13306841D01*
X9505896Y-13306841D02*
X9572563Y-13163984D01*
X9572563Y-13163984D02*
X9572563Y-13363984D01*
X9753515Y-13363984D02*
X9753515Y-13259222D01*
X9753515Y-13259222D02*
X9743991Y-13240174D01*
X9743991Y-13240174D02*
X9724944Y-13230650D01*
X9724944Y-13230650D02*
X9686848Y-13230650D01*
X9686848Y-13230650D02*
X9667801Y-13240174D01*
X9753515Y-13354460D02*
X9734467Y-13363984D01*
X9734467Y-13363984D02*
X9686848Y-13363984D01*
X9686848Y-13363984D02*
X9667801Y-13354460D01*
X9667801Y-13354460D02*
X9658277Y-13335412D01*
X9658277Y-13335412D02*
X9658277Y-13316365D01*
X9658277Y-13316365D02*
X9667801Y-13297317D01*
X9667801Y-13297317D02*
X9686848Y-13287793D01*
X9686848Y-13287793D02*
X9734467Y-13287793D01*
X9734467Y-13287793D02*
X9753515Y-13278269D01*
X9848753Y-13230650D02*
X9848753Y-13430650D01*
X9848753Y-13240174D02*
X9867801Y-13230650D01*
X9867801Y-13230650D02*
X9905896Y-13230650D01*
X9905896Y-13230650D02*
X9924944Y-13240174D01*
X9924944Y-13240174D02*
X9934467Y-13249698D01*
X9934467Y-13249698D02*
X9943991Y-13268746D01*
X9943991Y-13268746D02*
X9943991Y-13325888D01*
X9943991Y-13325888D02*
X9934467Y-13344936D01*
X9934467Y-13344936D02*
X9924944Y-13354460D01*
X9924944Y-13354460D02*
X9905896Y-13363984D01*
X9905896Y-13363984D02*
X9867801Y-13363984D01*
X9867801Y-13363984D02*
X9848753Y-13354460D01*
X10029705Y-13344936D02*
X10039229Y-13354460D01*
X10039229Y-13354460D02*
X10029705Y-13363984D01*
X10029705Y-13363984D02*
X10020182Y-13354460D01*
X10020182Y-13354460D02*
X10029705Y-13344936D01*
X10029705Y-13344936D02*
X10029705Y-13363984D01*
X10029705Y-13240174D02*
X10039229Y-13249698D01*
X10039229Y-13249698D02*
X10029705Y-13259222D01*
X10029705Y-13259222D02*
X10020182Y-13249698D01*
X10020182Y-13249698D02*
X10029705Y-13240174D01*
X10029705Y-13240174D02*
X10029705Y-13259222D01*
D12*
X8377500Y-13682500D02*
X8397500Y-13702500D01*
X8397500Y-13682500D02*
X8377500Y-13702500D01*
D11*
X8696372Y-13583984D02*
X8715420Y-13583984D01*
X8715420Y-13583984D02*
X8734467Y-13593508D01*
X8734467Y-13593508D02*
X8743991Y-13603031D01*
X8743991Y-13603031D02*
X8753515Y-13622079D01*
X8753515Y-13622079D02*
X8763039Y-13660174D01*
X8763039Y-13660174D02*
X8763039Y-13707793D01*
X8763039Y-13707793D02*
X8753515Y-13745888D01*
X8753515Y-13745888D02*
X8743991Y-13764936D01*
X8743991Y-13764936D02*
X8734467Y-13774460D01*
X8734467Y-13774460D02*
X8715420Y-13783984D01*
X8715420Y-13783984D02*
X8696372Y-13783984D01*
X8696372Y-13783984D02*
X8677324Y-13774460D01*
X8677324Y-13774460D02*
X8667801Y-13764936D01*
X8667801Y-13764936D02*
X8658277Y-13745888D01*
X8658277Y-13745888D02*
X8648753Y-13707793D01*
X8648753Y-13707793D02*
X8648753Y-13660174D01*
X8648753Y-13660174D02*
X8658277Y-13622079D01*
X8658277Y-13622079D02*
X8667801Y-13603031D01*
X8667801Y-13603031D02*
X8677324Y-13593508D01*
X8677324Y-13593508D02*
X8696372Y-13583984D01*
X8848753Y-13764936D02*
X8858277Y-13774460D01*
X8858277Y-13774460D02*
X8848753Y-13783984D01*
X8848753Y-13783984D02*
X8839229Y-13774460D01*
X8839229Y-13774460D02*
X8848753Y-13764936D01*
X8848753Y-13764936D02*
X8848753Y-13783984D01*
X8934467Y-13603031D02*
X8943991Y-13593508D01*
X8943991Y-13593508D02*
X8963039Y-13583984D01*
X8963039Y-13583984D02*
X9010658Y-13583984D01*
X9010658Y-13583984D02*
X9029705Y-13593508D01*
X9029705Y-13593508D02*
X9039229Y-13603031D01*
X9039229Y-13603031D02*
X9048753Y-13622079D01*
X9048753Y-13622079D02*
X9048753Y-13641127D01*
X9048753Y-13641127D02*
X9039229Y-13669698D01*
X9039229Y-13669698D02*
X8924944Y-13783984D01*
X8924944Y-13783984D02*
X9048753Y-13783984D01*
X9172563Y-13583984D02*
X9191610Y-13583984D01*
X9191610Y-13583984D02*
X9210658Y-13593508D01*
X9210658Y-13593508D02*
X9220182Y-13603031D01*
X9220182Y-13603031D02*
X9229705Y-13622079D01*
X9229705Y-13622079D02*
X9239229Y-13660174D01*
X9239229Y-13660174D02*
X9239229Y-13707793D01*
X9239229Y-13707793D02*
X9229705Y-13745888D01*
X9229705Y-13745888D02*
X9220182Y-13764936D01*
X9220182Y-13764936D02*
X9210658Y-13774460D01*
X9210658Y-13774460D02*
X9191610Y-13783984D01*
X9191610Y-13783984D02*
X9172563Y-13783984D01*
X9172563Y-13783984D02*
X9153515Y-13774460D01*
X9153515Y-13774460D02*
X9143991Y-13764936D01*
X9143991Y-13764936D02*
X9134467Y-13745888D01*
X9134467Y-13745888D02*
X9124944Y-13707793D01*
X9124944Y-13707793D02*
X9124944Y-13660174D01*
X9124944Y-13660174D02*
X9134467Y-13622079D01*
X9134467Y-13622079D02*
X9143991Y-13603031D01*
X9143991Y-13603031D02*
X9153515Y-13593508D01*
X9153515Y-13593508D02*
X9172563Y-13583984D01*
X9363039Y-13583984D02*
X9382086Y-13583984D01*
X9382086Y-13583984D02*
X9401134Y-13593508D01*
X9401134Y-13593508D02*
X9410658Y-13603031D01*
X9410658Y-13603031D02*
X9420182Y-13622079D01*
X9420182Y-13622079D02*
X9429705Y-13660174D01*
X9429705Y-13660174D02*
X9429705Y-13707793D01*
X9429705Y-13707793D02*
X9420182Y-13745888D01*
X9420182Y-13745888D02*
X9410658Y-13764936D01*
X9410658Y-13764936D02*
X9401134Y-13774460D01*
X9401134Y-13774460D02*
X9382086Y-13783984D01*
X9382086Y-13783984D02*
X9363039Y-13783984D01*
X9363039Y-13783984D02*
X9343991Y-13774460D01*
X9343991Y-13774460D02*
X9334467Y-13764936D01*
X9334467Y-13764936D02*
X9324944Y-13745888D01*
X9324944Y-13745888D02*
X9315420Y-13707793D01*
X9315420Y-13707793D02*
X9315420Y-13660174D01*
X9315420Y-13660174D02*
X9324944Y-13622079D01*
X9324944Y-13622079D02*
X9334467Y-13603031D01*
X9334467Y-13603031D02*
X9343991Y-13593508D01*
X9343991Y-13593508D02*
X9363039Y-13583984D01*
X9515420Y-13783984D02*
X9515420Y-13650650D01*
X9515420Y-13669698D02*
X9524944Y-13660174D01*
X9524944Y-13660174D02*
X9543991Y-13650650D01*
X9543991Y-13650650D02*
X9572563Y-13650650D01*
X9572563Y-13650650D02*
X9591610Y-13660174D01*
X9591610Y-13660174D02*
X9601134Y-13679222D01*
X9601134Y-13679222D02*
X9601134Y-13783984D01*
X9601134Y-13679222D02*
X9610658Y-13660174D01*
X9610658Y-13660174D02*
X9629705Y-13650650D01*
X9629705Y-13650650D02*
X9658277Y-13650650D01*
X9658277Y-13650650D02*
X9677325Y-13660174D01*
X9677325Y-13660174D02*
X9686848Y-13679222D01*
X9686848Y-13679222D02*
X9686848Y-13783984D01*
X9782086Y-13783984D02*
X9782086Y-13650650D01*
X9782086Y-13669698D02*
X9791610Y-13660174D01*
X9791610Y-13660174D02*
X9810658Y-13650650D01*
X9810658Y-13650650D02*
X9839229Y-13650650D01*
X9839229Y-13650650D02*
X9858277Y-13660174D01*
X9858277Y-13660174D02*
X9867801Y-13679222D01*
X9867801Y-13679222D02*
X9867801Y-13783984D01*
X9867801Y-13679222D02*
X9877325Y-13660174D01*
X9877325Y-13660174D02*
X9896372Y-13650650D01*
X9896372Y-13650650D02*
X9924944Y-13650650D01*
X9924944Y-13650650D02*
X9943991Y-13660174D01*
X9943991Y-13660174D02*
X9953515Y-13679222D01*
X9953515Y-13679222D02*
X9953515Y-13783984D01*
X10343991Y-13574460D02*
X10172563Y-13831603D01*
X10601134Y-13583984D02*
X10620182Y-13583984D01*
X10620182Y-13583984D02*
X10639229Y-13593508D01*
X10639229Y-13593508D02*
X10648753Y-13603031D01*
X10648753Y-13603031D02*
X10658277Y-13622079D01*
X10658277Y-13622079D02*
X10667801Y-13660174D01*
X10667801Y-13660174D02*
X10667801Y-13707793D01*
X10667801Y-13707793D02*
X10658277Y-13745888D01*
X10658277Y-13745888D02*
X10648753Y-13764936D01*
X10648753Y-13764936D02*
X10639229Y-13774460D01*
X10639229Y-13774460D02*
X10620182Y-13783984D01*
X10620182Y-13783984D02*
X10601134Y-13783984D01*
X10601134Y-13783984D02*
X10582087Y-13774460D01*
X10582087Y-13774460D02*
X10572563Y-13764936D01*
X10572563Y-13764936D02*
X10563039Y-13745888D01*
X10563039Y-13745888D02*
X10553515Y-13707793D01*
X10553515Y-13707793D02*
X10553515Y-13660174D01*
X10553515Y-13660174D02*
X10563039Y-13622079D01*
X10563039Y-13622079D02*
X10572563Y-13603031D01*
X10572563Y-13603031D02*
X10582087Y-13593508D01*
X10582087Y-13593508D02*
X10601134Y-13583984D01*
X10753515Y-13764936D02*
X10763039Y-13774460D01*
X10763039Y-13774460D02*
X10753515Y-13783984D01*
X10753515Y-13783984D02*
X10743991Y-13774460D01*
X10743991Y-13774460D02*
X10753515Y-13764936D01*
X10753515Y-13764936D02*
X10753515Y-13783984D01*
X10886848Y-13583984D02*
X10905896Y-13583984D01*
X10905896Y-13583984D02*
X10924944Y-13593508D01*
X10924944Y-13593508D02*
X10934468Y-13603031D01*
X10934468Y-13603031D02*
X10943991Y-13622079D01*
X10943991Y-13622079D02*
X10953515Y-13660174D01*
X10953515Y-13660174D02*
X10953515Y-13707793D01*
X10953515Y-13707793D02*
X10943991Y-13745888D01*
X10943991Y-13745888D02*
X10934468Y-13764936D01*
X10934468Y-13764936D02*
X10924944Y-13774460D01*
X10924944Y-13774460D02*
X10905896Y-13783984D01*
X10905896Y-13783984D02*
X10886848Y-13783984D01*
X10886848Y-13783984D02*
X10867801Y-13774460D01*
X10867801Y-13774460D02*
X10858277Y-13764936D01*
X10858277Y-13764936D02*
X10848753Y-13745888D01*
X10848753Y-13745888D02*
X10839229Y-13707793D01*
X10839229Y-13707793D02*
X10839229Y-13660174D01*
X10839229Y-13660174D02*
X10848753Y-13622079D01*
X10848753Y-13622079D02*
X10858277Y-13603031D01*
X10858277Y-13603031D02*
X10867801Y-13593508D01*
X10867801Y-13593508D02*
X10886848Y-13583984D01*
X11077325Y-13583984D02*
X11096372Y-13583984D01*
X11096372Y-13583984D02*
X11115420Y-13593508D01*
X11115420Y-13593508D02*
X11124944Y-13603031D01*
X11124944Y-13603031D02*
X11134468Y-13622079D01*
X11134468Y-13622079D02*
X11143991Y-13660174D01*
X11143991Y-13660174D02*
X11143991Y-13707793D01*
X11143991Y-13707793D02*
X11134468Y-13745888D01*
X11134468Y-13745888D02*
X11124944Y-13764936D01*
X11124944Y-13764936D02*
X11115420Y-13774460D01*
X11115420Y-13774460D02*
X11096372Y-13783984D01*
X11096372Y-13783984D02*
X11077325Y-13783984D01*
X11077325Y-13783984D02*
X11058277Y-13774460D01*
X11058277Y-13774460D02*
X11048753Y-13764936D01*
X11048753Y-13764936D02*
X11039229Y-13745888D01*
X11039229Y-13745888D02*
X11029706Y-13707793D01*
X11029706Y-13707793D02*
X11029706Y-13660174D01*
X11029706Y-13660174D02*
X11039229Y-13622079D01*
X11039229Y-13622079D02*
X11048753Y-13603031D01*
X11048753Y-13603031D02*
X11058277Y-13593508D01*
X11058277Y-13593508D02*
X11077325Y-13583984D01*
X11210658Y-13583984D02*
X11343991Y-13583984D01*
X11343991Y-13583984D02*
X11258277Y-13783984D01*
X11429706Y-13783984D02*
X11467801Y-13783984D01*
X11467801Y-13783984D02*
X11486848Y-13774460D01*
X11486848Y-13774460D02*
X11496372Y-13764936D01*
X11496372Y-13764936D02*
X11515420Y-13736365D01*
X11515420Y-13736365D02*
X11524944Y-13698269D01*
X11524944Y-13698269D02*
X11524944Y-13622079D01*
X11524944Y-13622079D02*
X11515420Y-13603031D01*
X11515420Y-13603031D02*
X11505896Y-13593508D01*
X11505896Y-13593508D02*
X11486848Y-13583984D01*
X11486848Y-13583984D02*
X11448753Y-13583984D01*
X11448753Y-13583984D02*
X11429706Y-13593508D01*
X11429706Y-13593508D02*
X11420182Y-13603031D01*
X11420182Y-13603031D02*
X11410658Y-13622079D01*
X11410658Y-13622079D02*
X11410658Y-13669698D01*
X11410658Y-13669698D02*
X11420182Y-13688746D01*
X11420182Y-13688746D02*
X11429706Y-13698269D01*
X11429706Y-13698269D02*
X11448753Y-13707793D01*
X11448753Y-13707793D02*
X11486848Y-13707793D01*
X11486848Y-13707793D02*
X11505896Y-13698269D01*
X11505896Y-13698269D02*
X11515420Y-13688746D01*
X11515420Y-13688746D02*
X11524944Y-13669698D01*
X11601134Y-13583984D02*
X11601134Y-13622079D01*
X11677325Y-13583984D02*
X11677325Y-13622079D01*
X11972563Y-13860174D02*
X11963039Y-13850650D01*
X11963039Y-13850650D02*
X11943991Y-13822079D01*
X11943991Y-13822079D02*
X11934468Y-13803031D01*
X11934468Y-13803031D02*
X11924944Y-13774460D01*
X11924944Y-13774460D02*
X11915420Y-13726841D01*
X11915420Y-13726841D02*
X11915420Y-13688746D01*
X11915420Y-13688746D02*
X11924944Y-13641127D01*
X11924944Y-13641127D02*
X11934468Y-13612555D01*
X11934468Y-13612555D02*
X11943991Y-13593508D01*
X11943991Y-13593508D02*
X11963039Y-13564936D01*
X11963039Y-13564936D02*
X11972563Y-13555412D01*
X12153515Y-13783984D02*
X12039229Y-13783984D01*
X12096372Y-13783984D02*
X12096372Y-13583984D01*
X12096372Y-13583984D02*
X12077325Y-13612555D01*
X12077325Y-13612555D02*
X12058277Y-13631603D01*
X12058277Y-13631603D02*
X12039229Y-13641127D01*
X12229706Y-13603031D02*
X12239229Y-13593508D01*
X12239229Y-13593508D02*
X12258277Y-13583984D01*
X12258277Y-13583984D02*
X12305896Y-13583984D01*
X12305896Y-13583984D02*
X12324944Y-13593508D01*
X12324944Y-13593508D02*
X12334468Y-13603031D01*
X12334468Y-13603031D02*
X12343991Y-13622079D01*
X12343991Y-13622079D02*
X12343991Y-13641127D01*
X12343991Y-13641127D02*
X12334468Y-13669698D01*
X12334468Y-13669698D02*
X12220182Y-13783984D01*
X12220182Y-13783984D02*
X12343991Y-13783984D01*
X12582087Y-13783984D02*
X12582087Y-13583984D01*
X12667801Y-13783984D02*
X12667801Y-13679222D01*
X12667801Y-13679222D02*
X12658277Y-13660174D01*
X12658277Y-13660174D02*
X12639230Y-13650650D01*
X12639230Y-13650650D02*
X12610658Y-13650650D01*
X12610658Y-13650650D02*
X12591610Y-13660174D01*
X12591610Y-13660174D02*
X12582087Y-13669698D01*
X12791610Y-13783984D02*
X12772563Y-13774460D01*
X12772563Y-13774460D02*
X12763039Y-13764936D01*
X12763039Y-13764936D02*
X12753515Y-13745888D01*
X12753515Y-13745888D02*
X12753515Y-13688746D01*
X12753515Y-13688746D02*
X12763039Y-13669698D01*
X12763039Y-13669698D02*
X12772563Y-13660174D01*
X12772563Y-13660174D02*
X12791610Y-13650650D01*
X12791610Y-13650650D02*
X12820182Y-13650650D01*
X12820182Y-13650650D02*
X12839230Y-13660174D01*
X12839230Y-13660174D02*
X12848753Y-13669698D01*
X12848753Y-13669698D02*
X12858277Y-13688746D01*
X12858277Y-13688746D02*
X12858277Y-13745888D01*
X12858277Y-13745888D02*
X12848753Y-13764936D01*
X12848753Y-13764936D02*
X12839230Y-13774460D01*
X12839230Y-13774460D02*
X12820182Y-13783984D01*
X12820182Y-13783984D02*
X12791610Y-13783984D01*
X12972563Y-13783984D02*
X12953515Y-13774460D01*
X12953515Y-13774460D02*
X12943991Y-13755412D01*
X12943991Y-13755412D02*
X12943991Y-13583984D01*
X13124944Y-13774460D02*
X13105896Y-13783984D01*
X13105896Y-13783984D02*
X13067801Y-13783984D01*
X13067801Y-13783984D02*
X13048753Y-13774460D01*
X13048753Y-13774460D02*
X13039230Y-13755412D01*
X13039230Y-13755412D02*
X13039230Y-13679222D01*
X13039230Y-13679222D02*
X13048753Y-13660174D01*
X13048753Y-13660174D02*
X13067801Y-13650650D01*
X13067801Y-13650650D02*
X13105896Y-13650650D01*
X13105896Y-13650650D02*
X13124944Y-13660174D01*
X13124944Y-13660174D02*
X13134468Y-13679222D01*
X13134468Y-13679222D02*
X13134468Y-13698269D01*
X13134468Y-13698269D02*
X13039230Y-13717317D01*
X13210658Y-13774460D02*
X13229706Y-13783984D01*
X13229706Y-13783984D02*
X13267801Y-13783984D01*
X13267801Y-13783984D02*
X13286849Y-13774460D01*
X13286849Y-13774460D02*
X13296372Y-13755412D01*
X13296372Y-13755412D02*
X13296372Y-13745888D01*
X13296372Y-13745888D02*
X13286849Y-13726841D01*
X13286849Y-13726841D02*
X13267801Y-13717317D01*
X13267801Y-13717317D02*
X13239230Y-13717317D01*
X13239230Y-13717317D02*
X13220182Y-13707793D01*
X13220182Y-13707793D02*
X13210658Y-13688746D01*
X13210658Y-13688746D02*
X13210658Y-13679222D01*
X13210658Y-13679222D02*
X13220182Y-13660174D01*
X13220182Y-13660174D02*
X13239230Y-13650650D01*
X13239230Y-13650650D02*
X13267801Y-13650650D01*
X13267801Y-13650650D02*
X13286849Y-13660174D01*
X13363039Y-13860174D02*
X13372563Y-13850650D01*
X13372563Y-13850650D02*
X13391611Y-13822079D01*
X13391611Y-13822079D02*
X13401134Y-13803031D01*
X13401134Y-13803031D02*
X13410658Y-13774460D01*
X13410658Y-13774460D02*
X13420182Y-13726841D01*
X13420182Y-13726841D02*
X13420182Y-13688746D01*
X13420182Y-13688746D02*
X13410658Y-13641127D01*
X13410658Y-13641127D02*
X13401134Y-13612555D01*
X13401134Y-13612555D02*
X13391611Y-13593508D01*
X13391611Y-13593508D02*
X13372563Y-13564936D01*
X13372563Y-13564936D02*
X13363039Y-13555412D01*
D12*
X8397500Y-13956500D02*
G75*
G02*
X8367500Y-13956500I-15000J0D01*
G01*
X8367500Y-13956500D02*
G75*
G02*
X8397500Y-13956500I15000J0D01*
G01*
D11*
X8696372Y-13847984D02*
X8715420Y-13847984D01*
X8715420Y-13847984D02*
X8734467Y-13857508D01*
X8734467Y-13857508D02*
X8743991Y-13867031D01*
X8743991Y-13867031D02*
X8753515Y-13886079D01*
X8753515Y-13886079D02*
X8763039Y-13924174D01*
X8763039Y-13924174D02*
X8763039Y-13971793D01*
X8763039Y-13971793D02*
X8753515Y-14009888D01*
X8753515Y-14009888D02*
X8743991Y-14028936D01*
X8743991Y-14028936D02*
X8734467Y-14038460D01*
X8734467Y-14038460D02*
X8715420Y-14047984D01*
X8715420Y-14047984D02*
X8696372Y-14047984D01*
X8696372Y-14047984D02*
X8677324Y-14038460D01*
X8677324Y-14038460D02*
X8667801Y-14028936D01*
X8667801Y-14028936D02*
X8658277Y-14009888D01*
X8658277Y-14009888D02*
X8648753Y-13971793D01*
X8648753Y-13971793D02*
X8648753Y-13924174D01*
X8648753Y-13924174D02*
X8658277Y-13886079D01*
X8658277Y-13886079D02*
X8667801Y-13867031D01*
X8667801Y-13867031D02*
X8677324Y-13857508D01*
X8677324Y-13857508D02*
X8696372Y-13847984D01*
X8848753Y-14028936D02*
X8858277Y-14038460D01*
X8858277Y-14038460D02*
X8848753Y-14047984D01*
X8848753Y-14047984D02*
X8839229Y-14038460D01*
X8839229Y-14038460D02*
X8848753Y-14028936D01*
X8848753Y-14028936D02*
X8848753Y-14047984D01*
X8924944Y-13847984D02*
X9048753Y-13847984D01*
X9048753Y-13847984D02*
X8982086Y-13924174D01*
X8982086Y-13924174D02*
X9010658Y-13924174D01*
X9010658Y-13924174D02*
X9029705Y-13933698D01*
X9029705Y-13933698D02*
X9039229Y-13943222D01*
X9039229Y-13943222D02*
X9048753Y-13962269D01*
X9048753Y-13962269D02*
X9048753Y-14009888D01*
X9048753Y-14009888D02*
X9039229Y-14028936D01*
X9039229Y-14028936D02*
X9029705Y-14038460D01*
X9029705Y-14038460D02*
X9010658Y-14047984D01*
X9010658Y-14047984D02*
X8953515Y-14047984D01*
X8953515Y-14047984D02*
X8934467Y-14038460D01*
X8934467Y-14038460D02*
X8924944Y-14028936D01*
X9172563Y-13847984D02*
X9191610Y-13847984D01*
X9191610Y-13847984D02*
X9210658Y-13857508D01*
X9210658Y-13857508D02*
X9220182Y-13867031D01*
X9220182Y-13867031D02*
X9229705Y-13886079D01*
X9229705Y-13886079D02*
X9239229Y-13924174D01*
X9239229Y-13924174D02*
X9239229Y-13971793D01*
X9239229Y-13971793D02*
X9229705Y-14009888D01*
X9229705Y-14009888D02*
X9220182Y-14028936D01*
X9220182Y-14028936D02*
X9210658Y-14038460D01*
X9210658Y-14038460D02*
X9191610Y-14047984D01*
X9191610Y-14047984D02*
X9172563Y-14047984D01*
X9172563Y-14047984D02*
X9153515Y-14038460D01*
X9153515Y-14038460D02*
X9143991Y-14028936D01*
X9143991Y-14028936D02*
X9134467Y-14009888D01*
X9134467Y-14009888D02*
X9124944Y-13971793D01*
X9124944Y-13971793D02*
X9124944Y-13924174D01*
X9124944Y-13924174D02*
X9134467Y-13886079D01*
X9134467Y-13886079D02*
X9143991Y-13867031D01*
X9143991Y-13867031D02*
X9153515Y-13857508D01*
X9153515Y-13857508D02*
X9172563Y-13847984D01*
X9363039Y-13847984D02*
X9382086Y-13847984D01*
X9382086Y-13847984D02*
X9401134Y-13857508D01*
X9401134Y-13857508D02*
X9410658Y-13867031D01*
X9410658Y-13867031D02*
X9420182Y-13886079D01*
X9420182Y-13886079D02*
X9429705Y-13924174D01*
X9429705Y-13924174D02*
X9429705Y-13971793D01*
X9429705Y-13971793D02*
X9420182Y-14009888D01*
X9420182Y-14009888D02*
X9410658Y-14028936D01*
X9410658Y-14028936D02*
X9401134Y-14038460D01*
X9401134Y-14038460D02*
X9382086Y-14047984D01*
X9382086Y-14047984D02*
X9363039Y-14047984D01*
X9363039Y-14047984D02*
X9343991Y-14038460D01*
X9343991Y-14038460D02*
X9334467Y-14028936D01*
X9334467Y-14028936D02*
X9324944Y-14009888D01*
X9324944Y-14009888D02*
X9315420Y-13971793D01*
X9315420Y-13971793D02*
X9315420Y-13924174D01*
X9315420Y-13924174D02*
X9324944Y-13886079D01*
X9324944Y-13886079D02*
X9334467Y-13867031D01*
X9334467Y-13867031D02*
X9343991Y-13857508D01*
X9343991Y-13857508D02*
X9363039Y-13847984D01*
X9515420Y-14047984D02*
X9515420Y-13914650D01*
X9515420Y-13933698D02*
X9524944Y-13924174D01*
X9524944Y-13924174D02*
X9543991Y-13914650D01*
X9543991Y-13914650D02*
X9572563Y-13914650D01*
X9572563Y-13914650D02*
X9591610Y-13924174D01*
X9591610Y-13924174D02*
X9601134Y-13943222D01*
X9601134Y-13943222D02*
X9601134Y-14047984D01*
X9601134Y-13943222D02*
X9610658Y-13924174D01*
X9610658Y-13924174D02*
X9629705Y-13914650D01*
X9629705Y-13914650D02*
X9658277Y-13914650D01*
X9658277Y-13914650D02*
X9677325Y-13924174D01*
X9677325Y-13924174D02*
X9686848Y-13943222D01*
X9686848Y-13943222D02*
X9686848Y-14047984D01*
X9782086Y-14047984D02*
X9782086Y-13914650D01*
X9782086Y-13933698D02*
X9791610Y-13924174D01*
X9791610Y-13924174D02*
X9810658Y-13914650D01*
X9810658Y-13914650D02*
X9839229Y-13914650D01*
X9839229Y-13914650D02*
X9858277Y-13924174D01*
X9858277Y-13924174D02*
X9867801Y-13943222D01*
X9867801Y-13943222D02*
X9867801Y-14047984D01*
X9867801Y-13943222D02*
X9877325Y-13924174D01*
X9877325Y-13924174D02*
X9896372Y-13914650D01*
X9896372Y-13914650D02*
X9924944Y-13914650D01*
X9924944Y-13914650D02*
X9943991Y-13924174D01*
X9943991Y-13924174D02*
X9953515Y-13943222D01*
X9953515Y-13943222D02*
X9953515Y-14047984D01*
X10343991Y-13838460D02*
X10172563Y-14095603D01*
X10601134Y-13847984D02*
X10620182Y-13847984D01*
X10620182Y-13847984D02*
X10639229Y-13857508D01*
X10639229Y-13857508D02*
X10648753Y-13867031D01*
X10648753Y-13867031D02*
X10658277Y-13886079D01*
X10658277Y-13886079D02*
X10667801Y-13924174D01*
X10667801Y-13924174D02*
X10667801Y-13971793D01*
X10667801Y-13971793D02*
X10658277Y-14009888D01*
X10658277Y-14009888D02*
X10648753Y-14028936D01*
X10648753Y-14028936D02*
X10639229Y-14038460D01*
X10639229Y-14038460D02*
X10620182Y-14047984D01*
X10620182Y-14047984D02*
X10601134Y-14047984D01*
X10601134Y-14047984D02*
X10582087Y-14038460D01*
X10582087Y-14038460D02*
X10572563Y-14028936D01*
X10572563Y-14028936D02*
X10563039Y-14009888D01*
X10563039Y-14009888D02*
X10553515Y-13971793D01*
X10553515Y-13971793D02*
X10553515Y-13924174D01*
X10553515Y-13924174D02*
X10563039Y-13886079D01*
X10563039Y-13886079D02*
X10572563Y-13867031D01*
X10572563Y-13867031D02*
X10582087Y-13857508D01*
X10582087Y-13857508D02*
X10601134Y-13847984D01*
X10753515Y-14028936D02*
X10763039Y-14038460D01*
X10763039Y-14038460D02*
X10753515Y-14047984D01*
X10753515Y-14047984D02*
X10743991Y-14038460D01*
X10743991Y-14038460D02*
X10753515Y-14028936D01*
X10753515Y-14028936D02*
X10753515Y-14047984D01*
X10886848Y-13847984D02*
X10905896Y-13847984D01*
X10905896Y-13847984D02*
X10924944Y-13857508D01*
X10924944Y-13857508D02*
X10934468Y-13867031D01*
X10934468Y-13867031D02*
X10943991Y-13886079D01*
X10943991Y-13886079D02*
X10953515Y-13924174D01*
X10953515Y-13924174D02*
X10953515Y-13971793D01*
X10953515Y-13971793D02*
X10943991Y-14009888D01*
X10943991Y-14009888D02*
X10934468Y-14028936D01*
X10934468Y-14028936D02*
X10924944Y-14038460D01*
X10924944Y-14038460D02*
X10905896Y-14047984D01*
X10905896Y-14047984D02*
X10886848Y-14047984D01*
X10886848Y-14047984D02*
X10867801Y-14038460D01*
X10867801Y-14038460D02*
X10858277Y-14028936D01*
X10858277Y-14028936D02*
X10848753Y-14009888D01*
X10848753Y-14009888D02*
X10839229Y-13971793D01*
X10839229Y-13971793D02*
X10839229Y-13924174D01*
X10839229Y-13924174D02*
X10848753Y-13886079D01*
X10848753Y-13886079D02*
X10858277Y-13867031D01*
X10858277Y-13867031D02*
X10867801Y-13857508D01*
X10867801Y-13857508D02*
X10886848Y-13847984D01*
X11143991Y-14047984D02*
X11029706Y-14047984D01*
X11086848Y-14047984D02*
X11086848Y-13847984D01*
X11086848Y-13847984D02*
X11067801Y-13876555D01*
X11067801Y-13876555D02*
X11048753Y-13895603D01*
X11048753Y-13895603D02*
X11029706Y-13905127D01*
X11334467Y-14047984D02*
X11220182Y-14047984D01*
X11277325Y-14047984D02*
X11277325Y-13847984D01*
X11277325Y-13847984D02*
X11258277Y-13876555D01*
X11258277Y-13876555D02*
X11239229Y-13895603D01*
X11239229Y-13895603D02*
X11220182Y-13905127D01*
X11448753Y-13933698D02*
X11429706Y-13924174D01*
X11429706Y-13924174D02*
X11420182Y-13914650D01*
X11420182Y-13914650D02*
X11410658Y-13895603D01*
X11410658Y-13895603D02*
X11410658Y-13886079D01*
X11410658Y-13886079D02*
X11420182Y-13867031D01*
X11420182Y-13867031D02*
X11429706Y-13857508D01*
X11429706Y-13857508D02*
X11448753Y-13847984D01*
X11448753Y-13847984D02*
X11486848Y-13847984D01*
X11486848Y-13847984D02*
X11505896Y-13857508D01*
X11505896Y-13857508D02*
X11515420Y-13867031D01*
X11515420Y-13867031D02*
X11524944Y-13886079D01*
X11524944Y-13886079D02*
X11524944Y-13895603D01*
X11524944Y-13895603D02*
X11515420Y-13914650D01*
X11515420Y-13914650D02*
X11505896Y-13924174D01*
X11505896Y-13924174D02*
X11486848Y-13933698D01*
X11486848Y-13933698D02*
X11448753Y-13933698D01*
X11448753Y-13933698D02*
X11429706Y-13943222D01*
X11429706Y-13943222D02*
X11420182Y-13952746D01*
X11420182Y-13952746D02*
X11410658Y-13971793D01*
X11410658Y-13971793D02*
X11410658Y-14009888D01*
X11410658Y-14009888D02*
X11420182Y-14028936D01*
X11420182Y-14028936D02*
X11429706Y-14038460D01*
X11429706Y-14038460D02*
X11448753Y-14047984D01*
X11448753Y-14047984D02*
X11486848Y-14047984D01*
X11486848Y-14047984D02*
X11505896Y-14038460D01*
X11505896Y-14038460D02*
X11515420Y-14028936D01*
X11515420Y-14028936D02*
X11524944Y-14009888D01*
X11524944Y-14009888D02*
X11524944Y-13971793D01*
X11524944Y-13971793D02*
X11515420Y-13952746D01*
X11515420Y-13952746D02*
X11505896Y-13943222D01*
X11505896Y-13943222D02*
X11486848Y-13933698D01*
X11601134Y-13847984D02*
X11601134Y-13886079D01*
X11677325Y-13847984D02*
X11677325Y-13886079D01*
X11972563Y-14124174D02*
X11963039Y-14114650D01*
X11963039Y-14114650D02*
X11943991Y-14086079D01*
X11943991Y-14086079D02*
X11934468Y-14067031D01*
X11934468Y-14067031D02*
X11924944Y-14038460D01*
X11924944Y-14038460D02*
X11915420Y-13990841D01*
X11915420Y-13990841D02*
X11915420Y-13952746D01*
X11915420Y-13952746D02*
X11924944Y-13905127D01*
X11924944Y-13905127D02*
X11934468Y-13876555D01*
X11934468Y-13876555D02*
X11943991Y-13857508D01*
X11943991Y-13857508D02*
X11963039Y-13828936D01*
X11963039Y-13828936D02*
X11972563Y-13819412D01*
X12153515Y-14047984D02*
X12039229Y-14047984D01*
X12096372Y-14047984D02*
X12096372Y-13847984D01*
X12096372Y-13847984D02*
X12077325Y-13876555D01*
X12077325Y-13876555D02*
X12058277Y-13895603D01*
X12058277Y-13895603D02*
X12039229Y-13905127D01*
X12220182Y-13847984D02*
X12353515Y-13847984D01*
X12353515Y-13847984D02*
X12267801Y-14047984D01*
X12410658Y-13847984D02*
X12534468Y-13847984D01*
X12534468Y-13847984D02*
X12467801Y-13924174D01*
X12467801Y-13924174D02*
X12496372Y-13924174D01*
X12496372Y-13924174D02*
X12515420Y-13933698D01*
X12515420Y-13933698D02*
X12524944Y-13943222D01*
X12524944Y-13943222D02*
X12534468Y-13962269D01*
X12534468Y-13962269D02*
X12534468Y-14009888D01*
X12534468Y-14009888D02*
X12524944Y-14028936D01*
X12524944Y-14028936D02*
X12515420Y-14038460D01*
X12515420Y-14038460D02*
X12496372Y-14047984D01*
X12496372Y-14047984D02*
X12439229Y-14047984D01*
X12439229Y-14047984D02*
X12420182Y-14038460D01*
X12420182Y-14038460D02*
X12410658Y-14028936D01*
X12772563Y-14047984D02*
X12772563Y-13847984D01*
X12858277Y-14047984D02*
X12858277Y-13943222D01*
X12858277Y-13943222D02*
X12848753Y-13924174D01*
X12848753Y-13924174D02*
X12829706Y-13914650D01*
X12829706Y-13914650D02*
X12801134Y-13914650D01*
X12801134Y-13914650D02*
X12782087Y-13924174D01*
X12782087Y-13924174D02*
X12772563Y-13933698D01*
X12982087Y-14047984D02*
X12963039Y-14038460D01*
X12963039Y-14038460D02*
X12953515Y-14028936D01*
X12953515Y-14028936D02*
X12943991Y-14009888D01*
X12943991Y-14009888D02*
X12943991Y-13952746D01*
X12943991Y-13952746D02*
X12953515Y-13933698D01*
X12953515Y-13933698D02*
X12963039Y-13924174D01*
X12963039Y-13924174D02*
X12982087Y-13914650D01*
X12982087Y-13914650D02*
X13010658Y-13914650D01*
X13010658Y-13914650D02*
X13029706Y-13924174D01*
X13029706Y-13924174D02*
X13039230Y-13933698D01*
X13039230Y-13933698D02*
X13048753Y-13952746D01*
X13048753Y-13952746D02*
X13048753Y-14009888D01*
X13048753Y-14009888D02*
X13039230Y-14028936D01*
X13039230Y-14028936D02*
X13029706Y-14038460D01*
X13029706Y-14038460D02*
X13010658Y-14047984D01*
X13010658Y-14047984D02*
X12982087Y-14047984D01*
X13163039Y-14047984D02*
X13143991Y-14038460D01*
X13143991Y-14038460D02*
X13134468Y-14019412D01*
X13134468Y-14019412D02*
X13134468Y-13847984D01*
X13315420Y-14038460D02*
X13296372Y-14047984D01*
X13296372Y-14047984D02*
X13258277Y-14047984D01*
X13258277Y-14047984D02*
X13239230Y-14038460D01*
X13239230Y-14038460D02*
X13229706Y-14019412D01*
X13229706Y-14019412D02*
X13229706Y-13943222D01*
X13229706Y-13943222D02*
X13239230Y-13924174D01*
X13239230Y-13924174D02*
X13258277Y-13914650D01*
X13258277Y-13914650D02*
X13296372Y-13914650D01*
X13296372Y-13914650D02*
X13315420Y-13924174D01*
X13315420Y-13924174D02*
X13324944Y-13943222D01*
X13324944Y-13943222D02*
X13324944Y-13962269D01*
X13324944Y-13962269D02*
X13229706Y-13981317D01*
X13401134Y-14038460D02*
X13420182Y-14047984D01*
X13420182Y-14047984D02*
X13458277Y-14047984D01*
X13458277Y-14047984D02*
X13477325Y-14038460D01*
X13477325Y-14038460D02*
X13486849Y-14019412D01*
X13486849Y-14019412D02*
X13486849Y-14009888D01*
X13486849Y-14009888D02*
X13477325Y-13990841D01*
X13477325Y-13990841D02*
X13458277Y-13981317D01*
X13458277Y-13981317D02*
X13429706Y-13981317D01*
X13429706Y-13981317D02*
X13410658Y-13971793D01*
X13410658Y-13971793D02*
X13401134Y-13952746D01*
X13401134Y-13952746D02*
X13401134Y-13943222D01*
X13401134Y-13943222D02*
X13410658Y-13924174D01*
X13410658Y-13924174D02*
X13429706Y-13914650D01*
X13429706Y-13914650D02*
X13458277Y-13914650D01*
X13458277Y-13914650D02*
X13477325Y-13924174D01*
X13553515Y-14124174D02*
X13563039Y-14114650D01*
X13563039Y-14114650D02*
X13582087Y-14086079D01*
X13582087Y-14086079D02*
X13591611Y-14067031D01*
X13591611Y-14067031D02*
X13601134Y-14038460D01*
X13601134Y-14038460D02*
X13610658Y-13990841D01*
X13610658Y-13990841D02*
X13610658Y-13952746D01*
X13610658Y-13952746D02*
X13601134Y-13905127D01*
X13601134Y-13905127D02*
X13591611Y-13876555D01*
X13591611Y-13876555D02*
X13582087Y-13857508D01*
X13582087Y-13857508D02*
X13563039Y-13828936D01*
X13563039Y-13828936D02*
X13553515Y-13819412D01*
D12*
X8377180Y-14200180D02*
X8377180Y-14240820D01*
X8356860Y-14220500D02*
X8397500Y-14220500D01*
D11*
X8696372Y-14111984D02*
X8715420Y-14111984D01*
X8715420Y-14111984D02*
X8734467Y-14121508D01*
X8734467Y-14121508D02*
X8743991Y-14131031D01*
X8743991Y-14131031D02*
X8753515Y-14150079D01*
X8753515Y-14150079D02*
X8763039Y-14188174D01*
X8763039Y-14188174D02*
X8763039Y-14235793D01*
X8763039Y-14235793D02*
X8753515Y-14273888D01*
X8753515Y-14273888D02*
X8743991Y-14292936D01*
X8743991Y-14292936D02*
X8734467Y-14302460D01*
X8734467Y-14302460D02*
X8715420Y-14311984D01*
X8715420Y-14311984D02*
X8696372Y-14311984D01*
X8696372Y-14311984D02*
X8677324Y-14302460D01*
X8677324Y-14302460D02*
X8667801Y-14292936D01*
X8667801Y-14292936D02*
X8658277Y-14273888D01*
X8658277Y-14273888D02*
X8648753Y-14235793D01*
X8648753Y-14235793D02*
X8648753Y-14188174D01*
X8648753Y-14188174D02*
X8658277Y-14150079D01*
X8658277Y-14150079D02*
X8667801Y-14131031D01*
X8667801Y-14131031D02*
X8677324Y-14121508D01*
X8677324Y-14121508D02*
X8696372Y-14111984D01*
X8848753Y-14292936D02*
X8858277Y-14302460D01*
X8858277Y-14302460D02*
X8848753Y-14311984D01*
X8848753Y-14311984D02*
X8839229Y-14302460D01*
X8839229Y-14302460D02*
X8848753Y-14292936D01*
X8848753Y-14292936D02*
X8848753Y-14311984D01*
X9029705Y-14178650D02*
X9029705Y-14311984D01*
X8982086Y-14102460D02*
X8934467Y-14245317D01*
X8934467Y-14245317D02*
X9058277Y-14245317D01*
X9172563Y-14111984D02*
X9191610Y-14111984D01*
X9191610Y-14111984D02*
X9210658Y-14121508D01*
X9210658Y-14121508D02*
X9220182Y-14131031D01*
X9220182Y-14131031D02*
X9229705Y-14150079D01*
X9229705Y-14150079D02*
X9239229Y-14188174D01*
X9239229Y-14188174D02*
X9239229Y-14235793D01*
X9239229Y-14235793D02*
X9229705Y-14273888D01*
X9229705Y-14273888D02*
X9220182Y-14292936D01*
X9220182Y-14292936D02*
X9210658Y-14302460D01*
X9210658Y-14302460D02*
X9191610Y-14311984D01*
X9191610Y-14311984D02*
X9172563Y-14311984D01*
X9172563Y-14311984D02*
X9153515Y-14302460D01*
X9153515Y-14302460D02*
X9143991Y-14292936D01*
X9143991Y-14292936D02*
X9134467Y-14273888D01*
X9134467Y-14273888D02*
X9124944Y-14235793D01*
X9124944Y-14235793D02*
X9124944Y-14188174D01*
X9124944Y-14188174D02*
X9134467Y-14150079D01*
X9134467Y-14150079D02*
X9143991Y-14131031D01*
X9143991Y-14131031D02*
X9153515Y-14121508D01*
X9153515Y-14121508D02*
X9172563Y-14111984D01*
X9410658Y-14111984D02*
X9372563Y-14111984D01*
X9372563Y-14111984D02*
X9353515Y-14121508D01*
X9353515Y-14121508D02*
X9343991Y-14131031D01*
X9343991Y-14131031D02*
X9324944Y-14159603D01*
X9324944Y-14159603D02*
X9315420Y-14197698D01*
X9315420Y-14197698D02*
X9315420Y-14273888D01*
X9315420Y-14273888D02*
X9324944Y-14292936D01*
X9324944Y-14292936D02*
X9334467Y-14302460D01*
X9334467Y-14302460D02*
X9353515Y-14311984D01*
X9353515Y-14311984D02*
X9391610Y-14311984D01*
X9391610Y-14311984D02*
X9410658Y-14302460D01*
X9410658Y-14302460D02*
X9420182Y-14292936D01*
X9420182Y-14292936D02*
X9429705Y-14273888D01*
X9429705Y-14273888D02*
X9429705Y-14226269D01*
X9429705Y-14226269D02*
X9420182Y-14207222D01*
X9420182Y-14207222D02*
X9410658Y-14197698D01*
X9410658Y-14197698D02*
X9391610Y-14188174D01*
X9391610Y-14188174D02*
X9353515Y-14188174D01*
X9353515Y-14188174D02*
X9334467Y-14197698D01*
X9334467Y-14197698D02*
X9324944Y-14207222D01*
X9324944Y-14207222D02*
X9315420Y-14226269D01*
X9515420Y-14311984D02*
X9515420Y-14178650D01*
X9515420Y-14197698D02*
X9524944Y-14188174D01*
X9524944Y-14188174D02*
X9543991Y-14178650D01*
X9543991Y-14178650D02*
X9572563Y-14178650D01*
X9572563Y-14178650D02*
X9591610Y-14188174D01*
X9591610Y-14188174D02*
X9601134Y-14207222D01*
X9601134Y-14207222D02*
X9601134Y-14311984D01*
X9601134Y-14207222D02*
X9610658Y-14188174D01*
X9610658Y-14188174D02*
X9629705Y-14178650D01*
X9629705Y-14178650D02*
X9658277Y-14178650D01*
X9658277Y-14178650D02*
X9677325Y-14188174D01*
X9677325Y-14188174D02*
X9686848Y-14207222D01*
X9686848Y-14207222D02*
X9686848Y-14311984D01*
X9782086Y-14311984D02*
X9782086Y-14178650D01*
X9782086Y-14197698D02*
X9791610Y-14188174D01*
X9791610Y-14188174D02*
X9810658Y-14178650D01*
X9810658Y-14178650D02*
X9839229Y-14178650D01*
X9839229Y-14178650D02*
X9858277Y-14188174D01*
X9858277Y-14188174D02*
X9867801Y-14207222D01*
X9867801Y-14207222D02*
X9867801Y-14311984D01*
X9867801Y-14207222D02*
X9877325Y-14188174D01*
X9877325Y-14188174D02*
X9896372Y-14178650D01*
X9896372Y-14178650D02*
X9924944Y-14178650D01*
X9924944Y-14178650D02*
X9943991Y-14188174D01*
X9943991Y-14188174D02*
X9953515Y-14207222D01*
X9953515Y-14207222D02*
X9953515Y-14311984D01*
X10343991Y-14102460D02*
X10172563Y-14359603D01*
X10601134Y-14111984D02*
X10620182Y-14111984D01*
X10620182Y-14111984D02*
X10639229Y-14121508D01*
X10639229Y-14121508D02*
X10648753Y-14131031D01*
X10648753Y-14131031D02*
X10658277Y-14150079D01*
X10658277Y-14150079D02*
X10667801Y-14188174D01*
X10667801Y-14188174D02*
X10667801Y-14235793D01*
X10667801Y-14235793D02*
X10658277Y-14273888D01*
X10658277Y-14273888D02*
X10648753Y-14292936D01*
X10648753Y-14292936D02*
X10639229Y-14302460D01*
X10639229Y-14302460D02*
X10620182Y-14311984D01*
X10620182Y-14311984D02*
X10601134Y-14311984D01*
X10601134Y-14311984D02*
X10582087Y-14302460D01*
X10582087Y-14302460D02*
X10572563Y-14292936D01*
X10572563Y-14292936D02*
X10563039Y-14273888D01*
X10563039Y-14273888D02*
X10553515Y-14235793D01*
X10553515Y-14235793D02*
X10553515Y-14188174D01*
X10553515Y-14188174D02*
X10563039Y-14150079D01*
X10563039Y-14150079D02*
X10572563Y-14131031D01*
X10572563Y-14131031D02*
X10582087Y-14121508D01*
X10582087Y-14121508D02*
X10601134Y-14111984D01*
X10753515Y-14292936D02*
X10763039Y-14302460D01*
X10763039Y-14302460D02*
X10753515Y-14311984D01*
X10753515Y-14311984D02*
X10743991Y-14302460D01*
X10743991Y-14302460D02*
X10753515Y-14292936D01*
X10753515Y-14292936D02*
X10753515Y-14311984D01*
X10886848Y-14111984D02*
X10905896Y-14111984D01*
X10905896Y-14111984D02*
X10924944Y-14121508D01*
X10924944Y-14121508D02*
X10934468Y-14131031D01*
X10934468Y-14131031D02*
X10943991Y-14150079D01*
X10943991Y-14150079D02*
X10953515Y-14188174D01*
X10953515Y-14188174D02*
X10953515Y-14235793D01*
X10953515Y-14235793D02*
X10943991Y-14273888D01*
X10943991Y-14273888D02*
X10934468Y-14292936D01*
X10934468Y-14292936D02*
X10924944Y-14302460D01*
X10924944Y-14302460D02*
X10905896Y-14311984D01*
X10905896Y-14311984D02*
X10886848Y-14311984D01*
X10886848Y-14311984D02*
X10867801Y-14302460D01*
X10867801Y-14302460D02*
X10858277Y-14292936D01*
X10858277Y-14292936D02*
X10848753Y-14273888D01*
X10848753Y-14273888D02*
X10839229Y-14235793D01*
X10839229Y-14235793D02*
X10839229Y-14188174D01*
X10839229Y-14188174D02*
X10848753Y-14150079D01*
X10848753Y-14150079D02*
X10858277Y-14131031D01*
X10858277Y-14131031D02*
X10867801Y-14121508D01*
X10867801Y-14121508D02*
X10886848Y-14111984D01*
X11143991Y-14311984D02*
X11029706Y-14311984D01*
X11086848Y-14311984D02*
X11086848Y-14111984D01*
X11086848Y-14111984D02*
X11067801Y-14140555D01*
X11067801Y-14140555D02*
X11048753Y-14159603D01*
X11048753Y-14159603D02*
X11029706Y-14169127D01*
X11315420Y-14111984D02*
X11277325Y-14111984D01*
X11277325Y-14111984D02*
X11258277Y-14121508D01*
X11258277Y-14121508D02*
X11248753Y-14131031D01*
X11248753Y-14131031D02*
X11229706Y-14159603D01*
X11229706Y-14159603D02*
X11220182Y-14197698D01*
X11220182Y-14197698D02*
X11220182Y-14273888D01*
X11220182Y-14273888D02*
X11229706Y-14292936D01*
X11229706Y-14292936D02*
X11239229Y-14302460D01*
X11239229Y-14302460D02*
X11258277Y-14311984D01*
X11258277Y-14311984D02*
X11296372Y-14311984D01*
X11296372Y-14311984D02*
X11315420Y-14302460D01*
X11315420Y-14302460D02*
X11324944Y-14292936D01*
X11324944Y-14292936D02*
X11334467Y-14273888D01*
X11334467Y-14273888D02*
X11334467Y-14226269D01*
X11334467Y-14226269D02*
X11324944Y-14207222D01*
X11324944Y-14207222D02*
X11315420Y-14197698D01*
X11315420Y-14197698D02*
X11296372Y-14188174D01*
X11296372Y-14188174D02*
X11258277Y-14188174D01*
X11258277Y-14188174D02*
X11239229Y-14197698D01*
X11239229Y-14197698D02*
X11229706Y-14207222D01*
X11229706Y-14207222D02*
X11220182Y-14226269D01*
X11458277Y-14111984D02*
X11477325Y-14111984D01*
X11477325Y-14111984D02*
X11496372Y-14121508D01*
X11496372Y-14121508D02*
X11505896Y-14131031D01*
X11505896Y-14131031D02*
X11515420Y-14150079D01*
X11515420Y-14150079D02*
X11524944Y-14188174D01*
X11524944Y-14188174D02*
X11524944Y-14235793D01*
X11524944Y-14235793D02*
X11515420Y-14273888D01*
X11515420Y-14273888D02*
X11505896Y-14292936D01*
X11505896Y-14292936D02*
X11496372Y-14302460D01*
X11496372Y-14302460D02*
X11477325Y-14311984D01*
X11477325Y-14311984D02*
X11458277Y-14311984D01*
X11458277Y-14311984D02*
X11439229Y-14302460D01*
X11439229Y-14302460D02*
X11429706Y-14292936D01*
X11429706Y-14292936D02*
X11420182Y-14273888D01*
X11420182Y-14273888D02*
X11410658Y-14235793D01*
X11410658Y-14235793D02*
X11410658Y-14188174D01*
X11410658Y-14188174D02*
X11420182Y-14150079D01*
X11420182Y-14150079D02*
X11429706Y-14131031D01*
X11429706Y-14131031D02*
X11439229Y-14121508D01*
X11439229Y-14121508D02*
X11458277Y-14111984D01*
X11601134Y-14111984D02*
X11601134Y-14150079D01*
X11677325Y-14111984D02*
X11677325Y-14150079D01*
X11972563Y-14388174D02*
X11963039Y-14378650D01*
X11963039Y-14378650D02*
X11943991Y-14350079D01*
X11943991Y-14350079D02*
X11934468Y-14331031D01*
X11934468Y-14331031D02*
X11924944Y-14302460D01*
X11924944Y-14302460D02*
X11915420Y-14254841D01*
X11915420Y-14254841D02*
X11915420Y-14216746D01*
X11915420Y-14216746D02*
X11924944Y-14169127D01*
X11924944Y-14169127D02*
X11934468Y-14140555D01*
X11934468Y-14140555D02*
X11943991Y-14121508D01*
X11943991Y-14121508D02*
X11963039Y-14092936D01*
X11963039Y-14092936D02*
X11972563Y-14083412D01*
X12143991Y-14111984D02*
X12048753Y-14111984D01*
X12048753Y-14111984D02*
X12039229Y-14207222D01*
X12039229Y-14207222D02*
X12048753Y-14197698D01*
X12048753Y-14197698D02*
X12067801Y-14188174D01*
X12067801Y-14188174D02*
X12115420Y-14188174D01*
X12115420Y-14188174D02*
X12134468Y-14197698D01*
X12134468Y-14197698D02*
X12143991Y-14207222D01*
X12143991Y-14207222D02*
X12153515Y-14226269D01*
X12153515Y-14226269D02*
X12153515Y-14273888D01*
X12153515Y-14273888D02*
X12143991Y-14292936D01*
X12143991Y-14292936D02*
X12134468Y-14302460D01*
X12134468Y-14302460D02*
X12115420Y-14311984D01*
X12115420Y-14311984D02*
X12067801Y-14311984D01*
X12067801Y-14311984D02*
X12048753Y-14302460D01*
X12048753Y-14302460D02*
X12039229Y-14292936D01*
X12391610Y-14311984D02*
X12391610Y-14111984D01*
X12477325Y-14311984D02*
X12477325Y-14207222D01*
X12477325Y-14207222D02*
X12467801Y-14188174D01*
X12467801Y-14188174D02*
X12448753Y-14178650D01*
X12448753Y-14178650D02*
X12420182Y-14178650D01*
X12420182Y-14178650D02*
X12401134Y-14188174D01*
X12401134Y-14188174D02*
X12391610Y-14197698D01*
X12601134Y-14311984D02*
X12582087Y-14302460D01*
X12582087Y-14302460D02*
X12572563Y-14292936D01*
X12572563Y-14292936D02*
X12563039Y-14273888D01*
X12563039Y-14273888D02*
X12563039Y-14216746D01*
X12563039Y-14216746D02*
X12572563Y-14197698D01*
X12572563Y-14197698D02*
X12582087Y-14188174D01*
X12582087Y-14188174D02*
X12601134Y-14178650D01*
X12601134Y-14178650D02*
X12629706Y-14178650D01*
X12629706Y-14178650D02*
X12648753Y-14188174D01*
X12648753Y-14188174D02*
X12658277Y-14197698D01*
X12658277Y-14197698D02*
X12667801Y-14216746D01*
X12667801Y-14216746D02*
X12667801Y-14273888D01*
X12667801Y-14273888D02*
X12658277Y-14292936D01*
X12658277Y-14292936D02*
X12648753Y-14302460D01*
X12648753Y-14302460D02*
X12629706Y-14311984D01*
X12629706Y-14311984D02*
X12601134Y-14311984D01*
X12782087Y-14311984D02*
X12763039Y-14302460D01*
X12763039Y-14302460D02*
X12753515Y-14283412D01*
X12753515Y-14283412D02*
X12753515Y-14111984D01*
X12934468Y-14302460D02*
X12915420Y-14311984D01*
X12915420Y-14311984D02*
X12877325Y-14311984D01*
X12877325Y-14311984D02*
X12858277Y-14302460D01*
X12858277Y-14302460D02*
X12848753Y-14283412D01*
X12848753Y-14283412D02*
X12848753Y-14207222D01*
X12848753Y-14207222D02*
X12858277Y-14188174D01*
X12858277Y-14188174D02*
X12877325Y-14178650D01*
X12877325Y-14178650D02*
X12915420Y-14178650D01*
X12915420Y-14178650D02*
X12934468Y-14188174D01*
X12934468Y-14188174D02*
X12943991Y-14207222D01*
X12943991Y-14207222D02*
X12943991Y-14226269D01*
X12943991Y-14226269D02*
X12848753Y-14245317D01*
X13020182Y-14302460D02*
X13039230Y-14311984D01*
X13039230Y-14311984D02*
X13077325Y-14311984D01*
X13077325Y-14311984D02*
X13096372Y-14302460D01*
X13096372Y-14302460D02*
X13105896Y-14283412D01*
X13105896Y-14283412D02*
X13105896Y-14273888D01*
X13105896Y-14273888D02*
X13096372Y-14254841D01*
X13096372Y-14254841D02*
X13077325Y-14245317D01*
X13077325Y-14245317D02*
X13048753Y-14245317D01*
X13048753Y-14245317D02*
X13029706Y-14235793D01*
X13029706Y-14235793D02*
X13020182Y-14216746D01*
X13020182Y-14216746D02*
X13020182Y-14207222D01*
X13020182Y-14207222D02*
X13029706Y-14188174D01*
X13029706Y-14188174D02*
X13048753Y-14178650D01*
X13048753Y-14178650D02*
X13077325Y-14178650D01*
X13077325Y-14178650D02*
X13096372Y-14188174D01*
X13172563Y-14388174D02*
X13182087Y-14378650D01*
X13182087Y-14378650D02*
X13201134Y-14350079D01*
X13201134Y-14350079D02*
X13210658Y-14331031D01*
X13210658Y-14331031D02*
X13220182Y-14302460D01*
X13220182Y-14302460D02*
X13229706Y-14254841D01*
X13229706Y-14254841D02*
X13229706Y-14216746D01*
X13229706Y-14216746D02*
X13220182Y-14169127D01*
X13220182Y-14169127D02*
X13210658Y-14140555D01*
X13210658Y-14140555D02*
X13201134Y-14121508D01*
X13201134Y-14121508D02*
X13182087Y-14092936D01*
X13182087Y-14092936D02*
X13172563Y-14083412D01*
D12*
X8385784Y-14512784D02*
X8385784Y-14456215D01*
X8329215Y-14456215D01*
X8329215Y-14512784D01*
X8385784Y-14512784D01*
D11*
X8696372Y-14375984D02*
X8715420Y-14375984D01*
X8715420Y-14375984D02*
X8734467Y-14385508D01*
X8734467Y-14385508D02*
X8743991Y-14395031D01*
X8743991Y-14395031D02*
X8753515Y-14414079D01*
X8753515Y-14414079D02*
X8763039Y-14452174D01*
X8763039Y-14452174D02*
X8763039Y-14499793D01*
X8763039Y-14499793D02*
X8753515Y-14537888D01*
X8753515Y-14537888D02*
X8743991Y-14556936D01*
X8743991Y-14556936D02*
X8734467Y-14566460D01*
X8734467Y-14566460D02*
X8715420Y-14575984D01*
X8715420Y-14575984D02*
X8696372Y-14575984D01*
X8696372Y-14575984D02*
X8677324Y-14566460D01*
X8677324Y-14566460D02*
X8667801Y-14556936D01*
X8667801Y-14556936D02*
X8658277Y-14537888D01*
X8658277Y-14537888D02*
X8648753Y-14499793D01*
X8648753Y-14499793D02*
X8648753Y-14452174D01*
X8648753Y-14452174D02*
X8658277Y-14414079D01*
X8658277Y-14414079D02*
X8667801Y-14395031D01*
X8667801Y-14395031D02*
X8677324Y-14385508D01*
X8677324Y-14385508D02*
X8696372Y-14375984D01*
X8848753Y-14556936D02*
X8858277Y-14566460D01*
X8858277Y-14566460D02*
X8848753Y-14575984D01*
X8848753Y-14575984D02*
X8839229Y-14566460D01*
X8839229Y-14566460D02*
X8848753Y-14556936D01*
X8848753Y-14556936D02*
X8848753Y-14575984D01*
X8972563Y-14461698D02*
X8953515Y-14452174D01*
X8953515Y-14452174D02*
X8943991Y-14442650D01*
X8943991Y-14442650D02*
X8934467Y-14423603D01*
X8934467Y-14423603D02*
X8934467Y-14414079D01*
X8934467Y-14414079D02*
X8943991Y-14395031D01*
X8943991Y-14395031D02*
X8953515Y-14385508D01*
X8953515Y-14385508D02*
X8972563Y-14375984D01*
X8972563Y-14375984D02*
X9010658Y-14375984D01*
X9010658Y-14375984D02*
X9029705Y-14385508D01*
X9029705Y-14385508D02*
X9039229Y-14395031D01*
X9039229Y-14395031D02*
X9048753Y-14414079D01*
X9048753Y-14414079D02*
X9048753Y-14423603D01*
X9048753Y-14423603D02*
X9039229Y-14442650D01*
X9039229Y-14442650D02*
X9029705Y-14452174D01*
X9029705Y-14452174D02*
X9010658Y-14461698D01*
X9010658Y-14461698D02*
X8972563Y-14461698D01*
X8972563Y-14461698D02*
X8953515Y-14471222D01*
X8953515Y-14471222D02*
X8943991Y-14480746D01*
X8943991Y-14480746D02*
X8934467Y-14499793D01*
X8934467Y-14499793D02*
X8934467Y-14537888D01*
X8934467Y-14537888D02*
X8943991Y-14556936D01*
X8943991Y-14556936D02*
X8953515Y-14566460D01*
X8953515Y-14566460D02*
X8972563Y-14575984D01*
X8972563Y-14575984D02*
X9010658Y-14575984D01*
X9010658Y-14575984D02*
X9029705Y-14566460D01*
X9029705Y-14566460D02*
X9039229Y-14556936D01*
X9039229Y-14556936D02*
X9048753Y-14537888D01*
X9048753Y-14537888D02*
X9048753Y-14499793D01*
X9048753Y-14499793D02*
X9039229Y-14480746D01*
X9039229Y-14480746D02*
X9029705Y-14471222D01*
X9029705Y-14471222D02*
X9010658Y-14461698D01*
X9172563Y-14375984D02*
X9191610Y-14375984D01*
X9191610Y-14375984D02*
X9210658Y-14385508D01*
X9210658Y-14385508D02*
X9220182Y-14395031D01*
X9220182Y-14395031D02*
X9229705Y-14414079D01*
X9229705Y-14414079D02*
X9239229Y-14452174D01*
X9239229Y-14452174D02*
X9239229Y-14499793D01*
X9239229Y-14499793D02*
X9229705Y-14537888D01*
X9229705Y-14537888D02*
X9220182Y-14556936D01*
X9220182Y-14556936D02*
X9210658Y-14566460D01*
X9210658Y-14566460D02*
X9191610Y-14575984D01*
X9191610Y-14575984D02*
X9172563Y-14575984D01*
X9172563Y-14575984D02*
X9153515Y-14566460D01*
X9153515Y-14566460D02*
X9143991Y-14556936D01*
X9143991Y-14556936D02*
X9134467Y-14537888D01*
X9134467Y-14537888D02*
X9124944Y-14499793D01*
X9124944Y-14499793D02*
X9124944Y-14452174D01*
X9124944Y-14452174D02*
X9134467Y-14414079D01*
X9134467Y-14414079D02*
X9143991Y-14395031D01*
X9143991Y-14395031D02*
X9153515Y-14385508D01*
X9153515Y-14385508D02*
X9172563Y-14375984D01*
X9363039Y-14375984D02*
X9382086Y-14375984D01*
X9382086Y-14375984D02*
X9401134Y-14385508D01*
X9401134Y-14385508D02*
X9410658Y-14395031D01*
X9410658Y-14395031D02*
X9420182Y-14414079D01*
X9420182Y-14414079D02*
X9429705Y-14452174D01*
X9429705Y-14452174D02*
X9429705Y-14499793D01*
X9429705Y-14499793D02*
X9420182Y-14537888D01*
X9420182Y-14537888D02*
X9410658Y-14556936D01*
X9410658Y-14556936D02*
X9401134Y-14566460D01*
X9401134Y-14566460D02*
X9382086Y-14575984D01*
X9382086Y-14575984D02*
X9363039Y-14575984D01*
X9363039Y-14575984D02*
X9343991Y-14566460D01*
X9343991Y-14566460D02*
X9334467Y-14556936D01*
X9334467Y-14556936D02*
X9324944Y-14537888D01*
X9324944Y-14537888D02*
X9315420Y-14499793D01*
X9315420Y-14499793D02*
X9315420Y-14452174D01*
X9315420Y-14452174D02*
X9324944Y-14414079D01*
X9324944Y-14414079D02*
X9334467Y-14395031D01*
X9334467Y-14395031D02*
X9343991Y-14385508D01*
X9343991Y-14385508D02*
X9363039Y-14375984D01*
X9515420Y-14575984D02*
X9515420Y-14442650D01*
X9515420Y-14461698D02*
X9524944Y-14452174D01*
X9524944Y-14452174D02*
X9543991Y-14442650D01*
X9543991Y-14442650D02*
X9572563Y-14442650D01*
X9572563Y-14442650D02*
X9591610Y-14452174D01*
X9591610Y-14452174D02*
X9601134Y-14471222D01*
X9601134Y-14471222D02*
X9601134Y-14575984D01*
X9601134Y-14471222D02*
X9610658Y-14452174D01*
X9610658Y-14452174D02*
X9629705Y-14442650D01*
X9629705Y-14442650D02*
X9658277Y-14442650D01*
X9658277Y-14442650D02*
X9677325Y-14452174D01*
X9677325Y-14452174D02*
X9686848Y-14471222D01*
X9686848Y-14471222D02*
X9686848Y-14575984D01*
X9782086Y-14575984D02*
X9782086Y-14442650D01*
X9782086Y-14461698D02*
X9791610Y-14452174D01*
X9791610Y-14452174D02*
X9810658Y-14442650D01*
X9810658Y-14442650D02*
X9839229Y-14442650D01*
X9839229Y-14442650D02*
X9858277Y-14452174D01*
X9858277Y-14452174D02*
X9867801Y-14471222D01*
X9867801Y-14471222D02*
X9867801Y-14575984D01*
X9867801Y-14471222D02*
X9877325Y-14452174D01*
X9877325Y-14452174D02*
X9896372Y-14442650D01*
X9896372Y-14442650D02*
X9924944Y-14442650D01*
X9924944Y-14442650D02*
X9943991Y-14452174D01*
X9943991Y-14452174D02*
X9953515Y-14471222D01*
X9953515Y-14471222D02*
X9953515Y-14575984D01*
X10343991Y-14366460D02*
X10172563Y-14623603D01*
X10601134Y-14375984D02*
X10620182Y-14375984D01*
X10620182Y-14375984D02*
X10639229Y-14385508D01*
X10639229Y-14385508D02*
X10648753Y-14395031D01*
X10648753Y-14395031D02*
X10658277Y-14414079D01*
X10658277Y-14414079D02*
X10667801Y-14452174D01*
X10667801Y-14452174D02*
X10667801Y-14499793D01*
X10667801Y-14499793D02*
X10658277Y-14537888D01*
X10658277Y-14537888D02*
X10648753Y-14556936D01*
X10648753Y-14556936D02*
X10639229Y-14566460D01*
X10639229Y-14566460D02*
X10620182Y-14575984D01*
X10620182Y-14575984D02*
X10601134Y-14575984D01*
X10601134Y-14575984D02*
X10582087Y-14566460D01*
X10582087Y-14566460D02*
X10572563Y-14556936D01*
X10572563Y-14556936D02*
X10563039Y-14537888D01*
X10563039Y-14537888D02*
X10553515Y-14499793D01*
X10553515Y-14499793D02*
X10553515Y-14452174D01*
X10553515Y-14452174D02*
X10563039Y-14414079D01*
X10563039Y-14414079D02*
X10572563Y-14395031D01*
X10572563Y-14395031D02*
X10582087Y-14385508D01*
X10582087Y-14385508D02*
X10601134Y-14375984D01*
X10753515Y-14556936D02*
X10763039Y-14566460D01*
X10763039Y-14566460D02*
X10753515Y-14575984D01*
X10753515Y-14575984D02*
X10743991Y-14566460D01*
X10743991Y-14566460D02*
X10753515Y-14556936D01*
X10753515Y-14556936D02*
X10753515Y-14575984D01*
X10886848Y-14375984D02*
X10905896Y-14375984D01*
X10905896Y-14375984D02*
X10924944Y-14385508D01*
X10924944Y-14385508D02*
X10934468Y-14395031D01*
X10934468Y-14395031D02*
X10943991Y-14414079D01*
X10943991Y-14414079D02*
X10953515Y-14452174D01*
X10953515Y-14452174D02*
X10953515Y-14499793D01*
X10953515Y-14499793D02*
X10943991Y-14537888D01*
X10943991Y-14537888D02*
X10934468Y-14556936D01*
X10934468Y-14556936D02*
X10924944Y-14566460D01*
X10924944Y-14566460D02*
X10905896Y-14575984D01*
X10905896Y-14575984D02*
X10886848Y-14575984D01*
X10886848Y-14575984D02*
X10867801Y-14566460D01*
X10867801Y-14566460D02*
X10858277Y-14556936D01*
X10858277Y-14556936D02*
X10848753Y-14537888D01*
X10848753Y-14537888D02*
X10839229Y-14499793D01*
X10839229Y-14499793D02*
X10839229Y-14452174D01*
X10839229Y-14452174D02*
X10848753Y-14414079D01*
X10848753Y-14414079D02*
X10858277Y-14395031D01*
X10858277Y-14395031D02*
X10867801Y-14385508D01*
X10867801Y-14385508D02*
X10886848Y-14375984D01*
X11020182Y-14375984D02*
X11143991Y-14375984D01*
X11143991Y-14375984D02*
X11077325Y-14452174D01*
X11077325Y-14452174D02*
X11105896Y-14452174D01*
X11105896Y-14452174D02*
X11124944Y-14461698D01*
X11124944Y-14461698D02*
X11134468Y-14471222D01*
X11134468Y-14471222D02*
X11143991Y-14490269D01*
X11143991Y-14490269D02*
X11143991Y-14537888D01*
X11143991Y-14537888D02*
X11134468Y-14556936D01*
X11134468Y-14556936D02*
X11124944Y-14566460D01*
X11124944Y-14566460D02*
X11105896Y-14575984D01*
X11105896Y-14575984D02*
X11048753Y-14575984D01*
X11048753Y-14575984D02*
X11029706Y-14566460D01*
X11029706Y-14566460D02*
X11020182Y-14556936D01*
X11334467Y-14575984D02*
X11220182Y-14575984D01*
X11277325Y-14575984D02*
X11277325Y-14375984D01*
X11277325Y-14375984D02*
X11258277Y-14404555D01*
X11258277Y-14404555D02*
X11239229Y-14423603D01*
X11239229Y-14423603D02*
X11220182Y-14433127D01*
X11515420Y-14375984D02*
X11420182Y-14375984D01*
X11420182Y-14375984D02*
X11410658Y-14471222D01*
X11410658Y-14471222D02*
X11420182Y-14461698D01*
X11420182Y-14461698D02*
X11439229Y-14452174D01*
X11439229Y-14452174D02*
X11486848Y-14452174D01*
X11486848Y-14452174D02*
X11505896Y-14461698D01*
X11505896Y-14461698D02*
X11515420Y-14471222D01*
X11515420Y-14471222D02*
X11524944Y-14490269D01*
X11524944Y-14490269D02*
X11524944Y-14537888D01*
X11524944Y-14537888D02*
X11515420Y-14556936D01*
X11515420Y-14556936D02*
X11505896Y-14566460D01*
X11505896Y-14566460D02*
X11486848Y-14575984D01*
X11486848Y-14575984D02*
X11439229Y-14575984D01*
X11439229Y-14575984D02*
X11420182Y-14566460D01*
X11420182Y-14566460D02*
X11410658Y-14556936D01*
X11601134Y-14375984D02*
X11601134Y-14414079D01*
X11677325Y-14375984D02*
X11677325Y-14414079D01*
X11972563Y-14652174D02*
X11963039Y-14642650D01*
X11963039Y-14642650D02*
X11943991Y-14614079D01*
X11943991Y-14614079D02*
X11934468Y-14595031D01*
X11934468Y-14595031D02*
X11924944Y-14566460D01*
X11924944Y-14566460D02*
X11915420Y-14518841D01*
X11915420Y-14518841D02*
X11915420Y-14480746D01*
X11915420Y-14480746D02*
X11924944Y-14433127D01*
X11924944Y-14433127D02*
X11934468Y-14404555D01*
X11934468Y-14404555D02*
X11943991Y-14385508D01*
X11943991Y-14385508D02*
X11963039Y-14356936D01*
X11963039Y-14356936D02*
X11972563Y-14347412D01*
X12153515Y-14575984D02*
X12039229Y-14575984D01*
X12096372Y-14575984D02*
X12096372Y-14375984D01*
X12096372Y-14375984D02*
X12077325Y-14404555D01*
X12077325Y-14404555D02*
X12058277Y-14423603D01*
X12058277Y-14423603D02*
X12039229Y-14433127D01*
X12324944Y-14375984D02*
X12286848Y-14375984D01*
X12286848Y-14375984D02*
X12267801Y-14385508D01*
X12267801Y-14385508D02*
X12258277Y-14395031D01*
X12258277Y-14395031D02*
X12239229Y-14423603D01*
X12239229Y-14423603D02*
X12229706Y-14461698D01*
X12229706Y-14461698D02*
X12229706Y-14537888D01*
X12229706Y-14537888D02*
X12239229Y-14556936D01*
X12239229Y-14556936D02*
X12248753Y-14566460D01*
X12248753Y-14566460D02*
X12267801Y-14575984D01*
X12267801Y-14575984D02*
X12305896Y-14575984D01*
X12305896Y-14575984D02*
X12324944Y-14566460D01*
X12324944Y-14566460D02*
X12334468Y-14556936D01*
X12334468Y-14556936D02*
X12343991Y-14537888D01*
X12343991Y-14537888D02*
X12343991Y-14490269D01*
X12343991Y-14490269D02*
X12334468Y-14471222D01*
X12334468Y-14471222D02*
X12324944Y-14461698D01*
X12324944Y-14461698D02*
X12305896Y-14452174D01*
X12305896Y-14452174D02*
X12267801Y-14452174D01*
X12267801Y-14452174D02*
X12248753Y-14461698D01*
X12248753Y-14461698D02*
X12239229Y-14471222D01*
X12239229Y-14471222D02*
X12229706Y-14490269D01*
X12582087Y-14575984D02*
X12582087Y-14375984D01*
X12667801Y-14575984D02*
X12667801Y-14471222D01*
X12667801Y-14471222D02*
X12658277Y-14452174D01*
X12658277Y-14452174D02*
X12639230Y-14442650D01*
X12639230Y-14442650D02*
X12610658Y-14442650D01*
X12610658Y-14442650D02*
X12591610Y-14452174D01*
X12591610Y-14452174D02*
X12582087Y-14461698D01*
X12791610Y-14575984D02*
X12772563Y-14566460D01*
X12772563Y-14566460D02*
X12763039Y-14556936D01*
X12763039Y-14556936D02*
X12753515Y-14537888D01*
X12753515Y-14537888D02*
X12753515Y-14480746D01*
X12753515Y-14480746D02*
X12763039Y-14461698D01*
X12763039Y-14461698D02*
X12772563Y-14452174D01*
X12772563Y-14452174D02*
X12791610Y-14442650D01*
X12791610Y-14442650D02*
X12820182Y-14442650D01*
X12820182Y-14442650D02*
X12839230Y-14452174D01*
X12839230Y-14452174D02*
X12848753Y-14461698D01*
X12848753Y-14461698D02*
X12858277Y-14480746D01*
X12858277Y-14480746D02*
X12858277Y-14537888D01*
X12858277Y-14537888D02*
X12848753Y-14556936D01*
X12848753Y-14556936D02*
X12839230Y-14566460D01*
X12839230Y-14566460D02*
X12820182Y-14575984D01*
X12820182Y-14575984D02*
X12791610Y-14575984D01*
X12972563Y-14575984D02*
X12953515Y-14566460D01*
X12953515Y-14566460D02*
X12943991Y-14547412D01*
X12943991Y-14547412D02*
X12943991Y-14375984D01*
X13124944Y-14566460D02*
X13105896Y-14575984D01*
X13105896Y-14575984D02*
X13067801Y-14575984D01*
X13067801Y-14575984D02*
X13048753Y-14566460D01*
X13048753Y-14566460D02*
X13039230Y-14547412D01*
X13039230Y-14547412D02*
X13039230Y-14471222D01*
X13039230Y-14471222D02*
X13048753Y-14452174D01*
X13048753Y-14452174D02*
X13067801Y-14442650D01*
X13067801Y-14442650D02*
X13105896Y-14442650D01*
X13105896Y-14442650D02*
X13124944Y-14452174D01*
X13124944Y-14452174D02*
X13134468Y-14471222D01*
X13134468Y-14471222D02*
X13134468Y-14490269D01*
X13134468Y-14490269D02*
X13039230Y-14509317D01*
X13210658Y-14566460D02*
X13229706Y-14575984D01*
X13229706Y-14575984D02*
X13267801Y-14575984D01*
X13267801Y-14575984D02*
X13286849Y-14566460D01*
X13286849Y-14566460D02*
X13296372Y-14547412D01*
X13296372Y-14547412D02*
X13296372Y-14537888D01*
X13296372Y-14537888D02*
X13286849Y-14518841D01*
X13286849Y-14518841D02*
X13267801Y-14509317D01*
X13267801Y-14509317D02*
X13239230Y-14509317D01*
X13239230Y-14509317D02*
X13220182Y-14499793D01*
X13220182Y-14499793D02*
X13210658Y-14480746D01*
X13210658Y-14480746D02*
X13210658Y-14471222D01*
X13210658Y-14471222D02*
X13220182Y-14452174D01*
X13220182Y-14452174D02*
X13239230Y-14442650D01*
X13239230Y-14442650D02*
X13267801Y-14442650D01*
X13267801Y-14442650D02*
X13286849Y-14452174D01*
X13363039Y-14652174D02*
X13372563Y-14642650D01*
X13372563Y-14642650D02*
X13391611Y-14614079D01*
X13391611Y-14614079D02*
X13401134Y-14595031D01*
X13401134Y-14595031D02*
X13410658Y-14566460D01*
X13410658Y-14566460D02*
X13420182Y-14518841D01*
X13420182Y-14518841D02*
X13420182Y-14480746D01*
X13420182Y-14480746D02*
X13410658Y-14433127D01*
X13410658Y-14433127D02*
X13401134Y-14404555D01*
X13401134Y-14404555D02*
X13391611Y-14385508D01*
X13391611Y-14385508D02*
X13372563Y-14356936D01*
X13372563Y-14356936D02*
X13363039Y-14347412D01*
D12*
X8352800Y-14793200D02*
X8397500Y-14748500D01*
X8352800Y-14703800D01*
X8308100Y-14748500D01*
X8352800Y-14793200D01*
D11*
X8696372Y-14639984D02*
X8715420Y-14639984D01*
X8715420Y-14639984D02*
X8734467Y-14649508D01*
X8734467Y-14649508D02*
X8743991Y-14659031D01*
X8743991Y-14659031D02*
X8753515Y-14678079D01*
X8753515Y-14678079D02*
X8763039Y-14716174D01*
X8763039Y-14716174D02*
X8763039Y-14763793D01*
X8763039Y-14763793D02*
X8753515Y-14801888D01*
X8753515Y-14801888D02*
X8743991Y-14820936D01*
X8743991Y-14820936D02*
X8734467Y-14830460D01*
X8734467Y-14830460D02*
X8715420Y-14839984D01*
X8715420Y-14839984D02*
X8696372Y-14839984D01*
X8696372Y-14839984D02*
X8677324Y-14830460D01*
X8677324Y-14830460D02*
X8667801Y-14820936D01*
X8667801Y-14820936D02*
X8658277Y-14801888D01*
X8658277Y-14801888D02*
X8648753Y-14763793D01*
X8648753Y-14763793D02*
X8648753Y-14716174D01*
X8648753Y-14716174D02*
X8658277Y-14678079D01*
X8658277Y-14678079D02*
X8667801Y-14659031D01*
X8667801Y-14659031D02*
X8677324Y-14649508D01*
X8677324Y-14649508D02*
X8696372Y-14639984D01*
X8848753Y-14820936D02*
X8858277Y-14830460D01*
X8858277Y-14830460D02*
X8848753Y-14839984D01*
X8848753Y-14839984D02*
X8839229Y-14830460D01*
X8839229Y-14830460D02*
X8848753Y-14820936D01*
X8848753Y-14820936D02*
X8848753Y-14839984D01*
X8972563Y-14725698D02*
X8953515Y-14716174D01*
X8953515Y-14716174D02*
X8943991Y-14706650D01*
X8943991Y-14706650D02*
X8934467Y-14687603D01*
X8934467Y-14687603D02*
X8934467Y-14678079D01*
X8934467Y-14678079D02*
X8943991Y-14659031D01*
X8943991Y-14659031D02*
X8953515Y-14649508D01*
X8953515Y-14649508D02*
X8972563Y-14639984D01*
X8972563Y-14639984D02*
X9010658Y-14639984D01*
X9010658Y-14639984D02*
X9029705Y-14649508D01*
X9029705Y-14649508D02*
X9039229Y-14659031D01*
X9039229Y-14659031D02*
X9048753Y-14678079D01*
X9048753Y-14678079D02*
X9048753Y-14687603D01*
X9048753Y-14687603D02*
X9039229Y-14706650D01*
X9039229Y-14706650D02*
X9029705Y-14716174D01*
X9029705Y-14716174D02*
X9010658Y-14725698D01*
X9010658Y-14725698D02*
X8972563Y-14725698D01*
X8972563Y-14725698D02*
X8953515Y-14735222D01*
X8953515Y-14735222D02*
X8943991Y-14744746D01*
X8943991Y-14744746D02*
X8934467Y-14763793D01*
X8934467Y-14763793D02*
X8934467Y-14801888D01*
X8934467Y-14801888D02*
X8943991Y-14820936D01*
X8943991Y-14820936D02*
X8953515Y-14830460D01*
X8953515Y-14830460D02*
X8972563Y-14839984D01*
X8972563Y-14839984D02*
X9010658Y-14839984D01*
X9010658Y-14839984D02*
X9029705Y-14830460D01*
X9029705Y-14830460D02*
X9039229Y-14820936D01*
X9039229Y-14820936D02*
X9048753Y-14801888D01*
X9048753Y-14801888D02*
X9048753Y-14763793D01*
X9048753Y-14763793D02*
X9039229Y-14744746D01*
X9039229Y-14744746D02*
X9029705Y-14735222D01*
X9029705Y-14735222D02*
X9010658Y-14725698D01*
X9143991Y-14839984D02*
X9182086Y-14839984D01*
X9182086Y-14839984D02*
X9201134Y-14830460D01*
X9201134Y-14830460D02*
X9210658Y-14820936D01*
X9210658Y-14820936D02*
X9229705Y-14792365D01*
X9229705Y-14792365D02*
X9239229Y-14754269D01*
X9239229Y-14754269D02*
X9239229Y-14678079D01*
X9239229Y-14678079D02*
X9229705Y-14659031D01*
X9229705Y-14659031D02*
X9220182Y-14649508D01*
X9220182Y-14649508D02*
X9201134Y-14639984D01*
X9201134Y-14639984D02*
X9163039Y-14639984D01*
X9163039Y-14639984D02*
X9143991Y-14649508D01*
X9143991Y-14649508D02*
X9134467Y-14659031D01*
X9134467Y-14659031D02*
X9124944Y-14678079D01*
X9124944Y-14678079D02*
X9124944Y-14725698D01*
X9124944Y-14725698D02*
X9134467Y-14744746D01*
X9134467Y-14744746D02*
X9143991Y-14754269D01*
X9143991Y-14754269D02*
X9163039Y-14763793D01*
X9163039Y-14763793D02*
X9201134Y-14763793D01*
X9201134Y-14763793D02*
X9220182Y-14754269D01*
X9220182Y-14754269D02*
X9229705Y-14744746D01*
X9229705Y-14744746D02*
X9239229Y-14725698D01*
X9410658Y-14706650D02*
X9410658Y-14839984D01*
X9363039Y-14630460D02*
X9315420Y-14773317D01*
X9315420Y-14773317D02*
X9439229Y-14773317D01*
X9515420Y-14839984D02*
X9515420Y-14706650D01*
X9515420Y-14725698D02*
X9524944Y-14716174D01*
X9524944Y-14716174D02*
X9543991Y-14706650D01*
X9543991Y-14706650D02*
X9572563Y-14706650D01*
X9572563Y-14706650D02*
X9591610Y-14716174D01*
X9591610Y-14716174D02*
X9601134Y-14735222D01*
X9601134Y-14735222D02*
X9601134Y-14839984D01*
X9601134Y-14735222D02*
X9610658Y-14716174D01*
X9610658Y-14716174D02*
X9629705Y-14706650D01*
X9629705Y-14706650D02*
X9658277Y-14706650D01*
X9658277Y-14706650D02*
X9677325Y-14716174D01*
X9677325Y-14716174D02*
X9686848Y-14735222D01*
X9686848Y-14735222D02*
X9686848Y-14839984D01*
X9782086Y-14839984D02*
X9782086Y-14706650D01*
X9782086Y-14725698D02*
X9791610Y-14716174D01*
X9791610Y-14716174D02*
X9810658Y-14706650D01*
X9810658Y-14706650D02*
X9839229Y-14706650D01*
X9839229Y-14706650D02*
X9858277Y-14716174D01*
X9858277Y-14716174D02*
X9867801Y-14735222D01*
X9867801Y-14735222D02*
X9867801Y-14839984D01*
X9867801Y-14735222D02*
X9877325Y-14716174D01*
X9877325Y-14716174D02*
X9896372Y-14706650D01*
X9896372Y-14706650D02*
X9924944Y-14706650D01*
X9924944Y-14706650D02*
X9943991Y-14716174D01*
X9943991Y-14716174D02*
X9953515Y-14735222D01*
X9953515Y-14735222D02*
X9953515Y-14839984D01*
X10343991Y-14630460D02*
X10172563Y-14887603D01*
X10601134Y-14639984D02*
X10620182Y-14639984D01*
X10620182Y-14639984D02*
X10639229Y-14649508D01*
X10639229Y-14649508D02*
X10648753Y-14659031D01*
X10648753Y-14659031D02*
X10658277Y-14678079D01*
X10658277Y-14678079D02*
X10667801Y-14716174D01*
X10667801Y-14716174D02*
X10667801Y-14763793D01*
X10667801Y-14763793D02*
X10658277Y-14801888D01*
X10658277Y-14801888D02*
X10648753Y-14820936D01*
X10648753Y-14820936D02*
X10639229Y-14830460D01*
X10639229Y-14830460D02*
X10620182Y-14839984D01*
X10620182Y-14839984D02*
X10601134Y-14839984D01*
X10601134Y-14839984D02*
X10582087Y-14830460D01*
X10582087Y-14830460D02*
X10572563Y-14820936D01*
X10572563Y-14820936D02*
X10563039Y-14801888D01*
X10563039Y-14801888D02*
X10553515Y-14763793D01*
X10553515Y-14763793D02*
X10553515Y-14716174D01*
X10553515Y-14716174D02*
X10563039Y-14678079D01*
X10563039Y-14678079D02*
X10572563Y-14659031D01*
X10572563Y-14659031D02*
X10582087Y-14649508D01*
X10582087Y-14649508D02*
X10601134Y-14639984D01*
X10753515Y-14820936D02*
X10763039Y-14830460D01*
X10763039Y-14830460D02*
X10753515Y-14839984D01*
X10753515Y-14839984D02*
X10743991Y-14830460D01*
X10743991Y-14830460D02*
X10753515Y-14820936D01*
X10753515Y-14820936D02*
X10753515Y-14839984D01*
X10886848Y-14639984D02*
X10905896Y-14639984D01*
X10905896Y-14639984D02*
X10924944Y-14649508D01*
X10924944Y-14649508D02*
X10934468Y-14659031D01*
X10934468Y-14659031D02*
X10943991Y-14678079D01*
X10943991Y-14678079D02*
X10953515Y-14716174D01*
X10953515Y-14716174D02*
X10953515Y-14763793D01*
X10953515Y-14763793D02*
X10943991Y-14801888D01*
X10943991Y-14801888D02*
X10934468Y-14820936D01*
X10934468Y-14820936D02*
X10924944Y-14830460D01*
X10924944Y-14830460D02*
X10905896Y-14839984D01*
X10905896Y-14839984D02*
X10886848Y-14839984D01*
X10886848Y-14839984D02*
X10867801Y-14830460D01*
X10867801Y-14830460D02*
X10858277Y-14820936D01*
X10858277Y-14820936D02*
X10848753Y-14801888D01*
X10848753Y-14801888D02*
X10839229Y-14763793D01*
X10839229Y-14763793D02*
X10839229Y-14716174D01*
X10839229Y-14716174D02*
X10848753Y-14678079D01*
X10848753Y-14678079D02*
X10858277Y-14659031D01*
X10858277Y-14659031D02*
X10867801Y-14649508D01*
X10867801Y-14649508D02*
X10886848Y-14639984D01*
X11020182Y-14639984D02*
X11143991Y-14639984D01*
X11143991Y-14639984D02*
X11077325Y-14716174D01*
X11077325Y-14716174D02*
X11105896Y-14716174D01*
X11105896Y-14716174D02*
X11124944Y-14725698D01*
X11124944Y-14725698D02*
X11134468Y-14735222D01*
X11134468Y-14735222D02*
X11143991Y-14754269D01*
X11143991Y-14754269D02*
X11143991Y-14801888D01*
X11143991Y-14801888D02*
X11134468Y-14820936D01*
X11134468Y-14820936D02*
X11124944Y-14830460D01*
X11124944Y-14830460D02*
X11105896Y-14839984D01*
X11105896Y-14839984D02*
X11048753Y-14839984D01*
X11048753Y-14839984D02*
X11029706Y-14830460D01*
X11029706Y-14830460D02*
X11020182Y-14820936D01*
X11324944Y-14639984D02*
X11229706Y-14639984D01*
X11229706Y-14639984D02*
X11220182Y-14735222D01*
X11220182Y-14735222D02*
X11229706Y-14725698D01*
X11229706Y-14725698D02*
X11248753Y-14716174D01*
X11248753Y-14716174D02*
X11296372Y-14716174D01*
X11296372Y-14716174D02*
X11315420Y-14725698D01*
X11315420Y-14725698D02*
X11324944Y-14735222D01*
X11324944Y-14735222D02*
X11334467Y-14754269D01*
X11334467Y-14754269D02*
X11334467Y-14801888D01*
X11334467Y-14801888D02*
X11324944Y-14820936D01*
X11324944Y-14820936D02*
X11315420Y-14830460D01*
X11315420Y-14830460D02*
X11296372Y-14839984D01*
X11296372Y-14839984D02*
X11248753Y-14839984D01*
X11248753Y-14839984D02*
X11229706Y-14830460D01*
X11229706Y-14830460D02*
X11220182Y-14820936D01*
X11410658Y-14659031D02*
X11420182Y-14649508D01*
X11420182Y-14649508D02*
X11439229Y-14639984D01*
X11439229Y-14639984D02*
X11486848Y-14639984D01*
X11486848Y-14639984D02*
X11505896Y-14649508D01*
X11505896Y-14649508D02*
X11515420Y-14659031D01*
X11515420Y-14659031D02*
X11524944Y-14678079D01*
X11524944Y-14678079D02*
X11524944Y-14697127D01*
X11524944Y-14697127D02*
X11515420Y-14725698D01*
X11515420Y-14725698D02*
X11401134Y-14839984D01*
X11401134Y-14839984D02*
X11524944Y-14839984D01*
X11601134Y-14639984D02*
X11601134Y-14678079D01*
X11677325Y-14639984D02*
X11677325Y-14678079D01*
X11972563Y-14916174D02*
X11963039Y-14906650D01*
X11963039Y-14906650D02*
X11943991Y-14878079D01*
X11943991Y-14878079D02*
X11934468Y-14859031D01*
X11934468Y-14859031D02*
X11924944Y-14830460D01*
X11924944Y-14830460D02*
X11915420Y-14782841D01*
X11915420Y-14782841D02*
X11915420Y-14744746D01*
X11915420Y-14744746D02*
X11924944Y-14697127D01*
X11924944Y-14697127D02*
X11934468Y-14668555D01*
X11934468Y-14668555D02*
X11943991Y-14649508D01*
X11943991Y-14649508D02*
X11963039Y-14620936D01*
X11963039Y-14620936D02*
X11972563Y-14611412D01*
X12153515Y-14839984D02*
X12039229Y-14839984D01*
X12096372Y-14839984D02*
X12096372Y-14639984D01*
X12096372Y-14639984D02*
X12077325Y-14668555D01*
X12077325Y-14668555D02*
X12058277Y-14687603D01*
X12058277Y-14687603D02*
X12039229Y-14697127D01*
X12267801Y-14725698D02*
X12248753Y-14716174D01*
X12248753Y-14716174D02*
X12239229Y-14706650D01*
X12239229Y-14706650D02*
X12229706Y-14687603D01*
X12229706Y-14687603D02*
X12229706Y-14678079D01*
X12229706Y-14678079D02*
X12239229Y-14659031D01*
X12239229Y-14659031D02*
X12248753Y-14649508D01*
X12248753Y-14649508D02*
X12267801Y-14639984D01*
X12267801Y-14639984D02*
X12305896Y-14639984D01*
X12305896Y-14639984D02*
X12324944Y-14649508D01*
X12324944Y-14649508D02*
X12334468Y-14659031D01*
X12334468Y-14659031D02*
X12343991Y-14678079D01*
X12343991Y-14678079D02*
X12343991Y-14687603D01*
X12343991Y-14687603D02*
X12334468Y-14706650D01*
X12334468Y-14706650D02*
X12324944Y-14716174D01*
X12324944Y-14716174D02*
X12305896Y-14725698D01*
X12305896Y-14725698D02*
X12267801Y-14725698D01*
X12267801Y-14725698D02*
X12248753Y-14735222D01*
X12248753Y-14735222D02*
X12239229Y-14744746D01*
X12239229Y-14744746D02*
X12229706Y-14763793D01*
X12229706Y-14763793D02*
X12229706Y-14801888D01*
X12229706Y-14801888D02*
X12239229Y-14820936D01*
X12239229Y-14820936D02*
X12248753Y-14830460D01*
X12248753Y-14830460D02*
X12267801Y-14839984D01*
X12267801Y-14839984D02*
X12305896Y-14839984D01*
X12305896Y-14839984D02*
X12324944Y-14830460D01*
X12324944Y-14830460D02*
X12334468Y-14820936D01*
X12334468Y-14820936D02*
X12343991Y-14801888D01*
X12343991Y-14801888D02*
X12343991Y-14763793D01*
X12343991Y-14763793D02*
X12334468Y-14744746D01*
X12334468Y-14744746D02*
X12324944Y-14735222D01*
X12324944Y-14735222D02*
X12305896Y-14725698D01*
X12582087Y-14839984D02*
X12582087Y-14639984D01*
X12667801Y-14839984D02*
X12667801Y-14735222D01*
X12667801Y-14735222D02*
X12658277Y-14716174D01*
X12658277Y-14716174D02*
X12639230Y-14706650D01*
X12639230Y-14706650D02*
X12610658Y-14706650D01*
X12610658Y-14706650D02*
X12591610Y-14716174D01*
X12591610Y-14716174D02*
X12582087Y-14725698D01*
X12791610Y-14839984D02*
X12772563Y-14830460D01*
X12772563Y-14830460D02*
X12763039Y-14820936D01*
X12763039Y-14820936D02*
X12753515Y-14801888D01*
X12753515Y-14801888D02*
X12753515Y-14744746D01*
X12753515Y-14744746D02*
X12763039Y-14725698D01*
X12763039Y-14725698D02*
X12772563Y-14716174D01*
X12772563Y-14716174D02*
X12791610Y-14706650D01*
X12791610Y-14706650D02*
X12820182Y-14706650D01*
X12820182Y-14706650D02*
X12839230Y-14716174D01*
X12839230Y-14716174D02*
X12848753Y-14725698D01*
X12848753Y-14725698D02*
X12858277Y-14744746D01*
X12858277Y-14744746D02*
X12858277Y-14801888D01*
X12858277Y-14801888D02*
X12848753Y-14820936D01*
X12848753Y-14820936D02*
X12839230Y-14830460D01*
X12839230Y-14830460D02*
X12820182Y-14839984D01*
X12820182Y-14839984D02*
X12791610Y-14839984D01*
X12972563Y-14839984D02*
X12953515Y-14830460D01*
X12953515Y-14830460D02*
X12943991Y-14811412D01*
X12943991Y-14811412D02*
X12943991Y-14639984D01*
X13124944Y-14830460D02*
X13105896Y-14839984D01*
X13105896Y-14839984D02*
X13067801Y-14839984D01*
X13067801Y-14839984D02*
X13048753Y-14830460D01*
X13048753Y-14830460D02*
X13039230Y-14811412D01*
X13039230Y-14811412D02*
X13039230Y-14735222D01*
X13039230Y-14735222D02*
X13048753Y-14716174D01*
X13048753Y-14716174D02*
X13067801Y-14706650D01*
X13067801Y-14706650D02*
X13105896Y-14706650D01*
X13105896Y-14706650D02*
X13124944Y-14716174D01*
X13124944Y-14716174D02*
X13134468Y-14735222D01*
X13134468Y-14735222D02*
X13134468Y-14754269D01*
X13134468Y-14754269D02*
X13039230Y-14773317D01*
X13210658Y-14830460D02*
X13229706Y-14839984D01*
X13229706Y-14839984D02*
X13267801Y-14839984D01*
X13267801Y-14839984D02*
X13286849Y-14830460D01*
X13286849Y-14830460D02*
X13296372Y-14811412D01*
X13296372Y-14811412D02*
X13296372Y-14801888D01*
X13296372Y-14801888D02*
X13286849Y-14782841D01*
X13286849Y-14782841D02*
X13267801Y-14773317D01*
X13267801Y-14773317D02*
X13239230Y-14773317D01*
X13239230Y-14773317D02*
X13220182Y-14763793D01*
X13220182Y-14763793D02*
X13210658Y-14744746D01*
X13210658Y-14744746D02*
X13210658Y-14735222D01*
X13210658Y-14735222D02*
X13220182Y-14716174D01*
X13220182Y-14716174D02*
X13239230Y-14706650D01*
X13239230Y-14706650D02*
X13267801Y-14706650D01*
X13267801Y-14706650D02*
X13286849Y-14716174D01*
X13363039Y-14916174D02*
X13372563Y-14906650D01*
X13372563Y-14906650D02*
X13391611Y-14878079D01*
X13391611Y-14878079D02*
X13401134Y-14859031D01*
X13401134Y-14859031D02*
X13410658Y-14830460D01*
X13410658Y-14830460D02*
X13420182Y-14782841D01*
X13420182Y-14782841D02*
X13420182Y-14744746D01*
X13420182Y-14744746D02*
X13410658Y-14697127D01*
X13410658Y-14697127D02*
X13401134Y-14668555D01*
X13401134Y-14668555D02*
X13391611Y-14649508D01*
X13391611Y-14649508D02*
X13372563Y-14620936D01*
X13372563Y-14620936D02*
X13363039Y-14611412D01*
D13*
X8265500Y-14946500D02*
X8397500Y-15078500D01*
X8397500Y-14946500D02*
X8265500Y-15078500D01*
X8397500Y-15012500D02*
G75*
G02*
X8265500Y-15012500I-66000J0D01*
G01*
X8265500Y-15012500D02*
G75*
G02*
X8397500Y-15012500I66000J0D01*
G01*
D11*
X8763039Y-15103984D02*
X8648753Y-15103984D01*
X8705896Y-15103984D02*
X8705896Y-14903984D01*
X8705896Y-14903984D02*
X8686848Y-14932555D01*
X8686848Y-14932555D02*
X8667801Y-14951603D01*
X8667801Y-14951603D02*
X8648753Y-14961127D01*
X8848753Y-15084936D02*
X8858277Y-15094460D01*
X8858277Y-15094460D02*
X8848753Y-15103984D01*
X8848753Y-15103984D02*
X8839229Y-15094460D01*
X8839229Y-15094460D02*
X8848753Y-15084936D01*
X8848753Y-15084936D02*
X8848753Y-15103984D01*
X8924944Y-14903984D02*
X9048753Y-14903984D01*
X9048753Y-14903984D02*
X8982086Y-14980174D01*
X8982086Y-14980174D02*
X9010658Y-14980174D01*
X9010658Y-14980174D02*
X9029705Y-14989698D01*
X9029705Y-14989698D02*
X9039229Y-14999222D01*
X9039229Y-14999222D02*
X9048753Y-15018269D01*
X9048753Y-15018269D02*
X9048753Y-15065888D01*
X9048753Y-15065888D02*
X9039229Y-15084936D01*
X9039229Y-15084936D02*
X9029705Y-15094460D01*
X9029705Y-15094460D02*
X9010658Y-15103984D01*
X9010658Y-15103984D02*
X8953515Y-15103984D01*
X8953515Y-15103984D02*
X8934467Y-15094460D01*
X8934467Y-15094460D02*
X8924944Y-15084936D01*
X9124944Y-14923031D02*
X9134467Y-14913508D01*
X9134467Y-14913508D02*
X9153515Y-14903984D01*
X9153515Y-14903984D02*
X9201134Y-14903984D01*
X9201134Y-14903984D02*
X9220182Y-14913508D01*
X9220182Y-14913508D02*
X9229705Y-14923031D01*
X9229705Y-14923031D02*
X9239229Y-14942079D01*
X9239229Y-14942079D02*
X9239229Y-14961127D01*
X9239229Y-14961127D02*
X9229705Y-14989698D01*
X9229705Y-14989698D02*
X9115420Y-15103984D01*
X9115420Y-15103984D02*
X9239229Y-15103984D01*
X9363039Y-14903984D02*
X9382086Y-14903984D01*
X9382086Y-14903984D02*
X9401134Y-14913508D01*
X9401134Y-14913508D02*
X9410658Y-14923031D01*
X9410658Y-14923031D02*
X9420182Y-14942079D01*
X9420182Y-14942079D02*
X9429705Y-14980174D01*
X9429705Y-14980174D02*
X9429705Y-15027793D01*
X9429705Y-15027793D02*
X9420182Y-15065888D01*
X9420182Y-15065888D02*
X9410658Y-15084936D01*
X9410658Y-15084936D02*
X9401134Y-15094460D01*
X9401134Y-15094460D02*
X9382086Y-15103984D01*
X9382086Y-15103984D02*
X9363039Y-15103984D01*
X9363039Y-15103984D02*
X9343991Y-15094460D01*
X9343991Y-15094460D02*
X9334467Y-15084936D01*
X9334467Y-15084936D02*
X9324944Y-15065888D01*
X9324944Y-15065888D02*
X9315420Y-15027793D01*
X9315420Y-15027793D02*
X9315420Y-14980174D01*
X9315420Y-14980174D02*
X9324944Y-14942079D01*
X9324944Y-14942079D02*
X9334467Y-14923031D01*
X9334467Y-14923031D02*
X9343991Y-14913508D01*
X9343991Y-14913508D02*
X9363039Y-14903984D01*
X9515420Y-15103984D02*
X9515420Y-14970650D01*
X9515420Y-14989698D02*
X9524944Y-14980174D01*
X9524944Y-14980174D02*
X9543991Y-14970650D01*
X9543991Y-14970650D02*
X9572563Y-14970650D01*
X9572563Y-14970650D02*
X9591610Y-14980174D01*
X9591610Y-14980174D02*
X9601134Y-14999222D01*
X9601134Y-14999222D02*
X9601134Y-15103984D01*
X9601134Y-14999222D02*
X9610658Y-14980174D01*
X9610658Y-14980174D02*
X9629705Y-14970650D01*
X9629705Y-14970650D02*
X9658277Y-14970650D01*
X9658277Y-14970650D02*
X9677325Y-14980174D01*
X9677325Y-14980174D02*
X9686848Y-14999222D01*
X9686848Y-14999222D02*
X9686848Y-15103984D01*
X9782086Y-15103984D02*
X9782086Y-14970650D01*
X9782086Y-14989698D02*
X9791610Y-14980174D01*
X9791610Y-14980174D02*
X9810658Y-14970650D01*
X9810658Y-14970650D02*
X9839229Y-14970650D01*
X9839229Y-14970650D02*
X9858277Y-14980174D01*
X9858277Y-14980174D02*
X9867801Y-14999222D01*
X9867801Y-14999222D02*
X9867801Y-15103984D01*
X9867801Y-14999222D02*
X9877325Y-14980174D01*
X9877325Y-14980174D02*
X9896372Y-14970650D01*
X9896372Y-14970650D02*
X9924944Y-14970650D01*
X9924944Y-14970650D02*
X9943991Y-14980174D01*
X9943991Y-14980174D02*
X9953515Y-14999222D01*
X9953515Y-14999222D02*
X9953515Y-15103984D01*
X10343991Y-14894460D02*
X10172563Y-15151603D01*
X10601134Y-14903984D02*
X10620182Y-14903984D01*
X10620182Y-14903984D02*
X10639229Y-14913508D01*
X10639229Y-14913508D02*
X10648753Y-14923031D01*
X10648753Y-14923031D02*
X10658277Y-14942079D01*
X10658277Y-14942079D02*
X10667801Y-14980174D01*
X10667801Y-14980174D02*
X10667801Y-15027793D01*
X10667801Y-15027793D02*
X10658277Y-15065888D01*
X10658277Y-15065888D02*
X10648753Y-15084936D01*
X10648753Y-15084936D02*
X10639229Y-15094460D01*
X10639229Y-15094460D02*
X10620182Y-15103984D01*
X10620182Y-15103984D02*
X10601134Y-15103984D01*
X10601134Y-15103984D02*
X10582087Y-15094460D01*
X10582087Y-15094460D02*
X10572563Y-15084936D01*
X10572563Y-15084936D02*
X10563039Y-15065888D01*
X10563039Y-15065888D02*
X10553515Y-15027793D01*
X10553515Y-15027793D02*
X10553515Y-14980174D01*
X10553515Y-14980174D02*
X10563039Y-14942079D01*
X10563039Y-14942079D02*
X10572563Y-14923031D01*
X10572563Y-14923031D02*
X10582087Y-14913508D01*
X10582087Y-14913508D02*
X10601134Y-14903984D01*
X10753515Y-15084936D02*
X10763039Y-15094460D01*
X10763039Y-15094460D02*
X10753515Y-15103984D01*
X10753515Y-15103984D02*
X10743991Y-15094460D01*
X10743991Y-15094460D02*
X10753515Y-15084936D01*
X10753515Y-15084936D02*
X10753515Y-15103984D01*
X10886848Y-14903984D02*
X10905896Y-14903984D01*
X10905896Y-14903984D02*
X10924944Y-14913508D01*
X10924944Y-14913508D02*
X10934468Y-14923031D01*
X10934468Y-14923031D02*
X10943991Y-14942079D01*
X10943991Y-14942079D02*
X10953515Y-14980174D01*
X10953515Y-14980174D02*
X10953515Y-15027793D01*
X10953515Y-15027793D02*
X10943991Y-15065888D01*
X10943991Y-15065888D02*
X10934468Y-15084936D01*
X10934468Y-15084936D02*
X10924944Y-15094460D01*
X10924944Y-15094460D02*
X10905896Y-15103984D01*
X10905896Y-15103984D02*
X10886848Y-15103984D01*
X10886848Y-15103984D02*
X10867801Y-15094460D01*
X10867801Y-15094460D02*
X10858277Y-15084936D01*
X10858277Y-15084936D02*
X10848753Y-15065888D01*
X10848753Y-15065888D02*
X10839229Y-15027793D01*
X10839229Y-15027793D02*
X10839229Y-14980174D01*
X10839229Y-14980174D02*
X10848753Y-14942079D01*
X10848753Y-14942079D02*
X10858277Y-14923031D01*
X10858277Y-14923031D02*
X10867801Y-14913508D01*
X10867801Y-14913508D02*
X10886848Y-14903984D01*
X11134468Y-14903984D02*
X11039229Y-14903984D01*
X11039229Y-14903984D02*
X11029706Y-14999222D01*
X11029706Y-14999222D02*
X11039229Y-14989698D01*
X11039229Y-14989698D02*
X11058277Y-14980174D01*
X11058277Y-14980174D02*
X11105896Y-14980174D01*
X11105896Y-14980174D02*
X11124944Y-14989698D01*
X11124944Y-14989698D02*
X11134468Y-14999222D01*
X11134468Y-14999222D02*
X11143991Y-15018269D01*
X11143991Y-15018269D02*
X11143991Y-15065888D01*
X11143991Y-15065888D02*
X11134468Y-15084936D01*
X11134468Y-15084936D02*
X11124944Y-15094460D01*
X11124944Y-15094460D02*
X11105896Y-15103984D01*
X11105896Y-15103984D02*
X11058277Y-15103984D01*
X11058277Y-15103984D02*
X11039229Y-15094460D01*
X11039229Y-15094460D02*
X11029706Y-15084936D01*
X11220182Y-14923031D02*
X11229706Y-14913508D01*
X11229706Y-14913508D02*
X11248753Y-14903984D01*
X11248753Y-14903984D02*
X11296372Y-14903984D01*
X11296372Y-14903984D02*
X11315420Y-14913508D01*
X11315420Y-14913508D02*
X11324944Y-14923031D01*
X11324944Y-14923031D02*
X11334467Y-14942079D01*
X11334467Y-14942079D02*
X11334467Y-14961127D01*
X11334467Y-14961127D02*
X11324944Y-14989698D01*
X11324944Y-14989698D02*
X11210658Y-15103984D01*
X11210658Y-15103984D02*
X11334467Y-15103984D01*
X11458277Y-14903984D02*
X11477325Y-14903984D01*
X11477325Y-14903984D02*
X11496372Y-14913508D01*
X11496372Y-14913508D02*
X11505896Y-14923031D01*
X11505896Y-14923031D02*
X11515420Y-14942079D01*
X11515420Y-14942079D02*
X11524944Y-14980174D01*
X11524944Y-14980174D02*
X11524944Y-15027793D01*
X11524944Y-15027793D02*
X11515420Y-15065888D01*
X11515420Y-15065888D02*
X11505896Y-15084936D01*
X11505896Y-15084936D02*
X11496372Y-15094460D01*
X11496372Y-15094460D02*
X11477325Y-15103984D01*
X11477325Y-15103984D02*
X11458277Y-15103984D01*
X11458277Y-15103984D02*
X11439229Y-15094460D01*
X11439229Y-15094460D02*
X11429706Y-15084936D01*
X11429706Y-15084936D02*
X11420182Y-15065888D01*
X11420182Y-15065888D02*
X11410658Y-15027793D01*
X11410658Y-15027793D02*
X11410658Y-14980174D01*
X11410658Y-14980174D02*
X11420182Y-14942079D01*
X11420182Y-14942079D02*
X11429706Y-14923031D01*
X11429706Y-14923031D02*
X11439229Y-14913508D01*
X11439229Y-14913508D02*
X11458277Y-14903984D01*
X11601134Y-14903984D02*
X11601134Y-14942079D01*
X11677325Y-14903984D02*
X11677325Y-14942079D01*
X11972563Y-15180174D02*
X11963039Y-15170650D01*
X11963039Y-15170650D02*
X11943991Y-15142079D01*
X11943991Y-15142079D02*
X11934468Y-15123031D01*
X11934468Y-15123031D02*
X11924944Y-15094460D01*
X11924944Y-15094460D02*
X11915420Y-15046841D01*
X11915420Y-15046841D02*
X11915420Y-15008746D01*
X11915420Y-15008746D02*
X11924944Y-14961127D01*
X11924944Y-14961127D02*
X11934468Y-14932555D01*
X11934468Y-14932555D02*
X11943991Y-14913508D01*
X11943991Y-14913508D02*
X11963039Y-14884936D01*
X11963039Y-14884936D02*
X11972563Y-14875412D01*
X12134468Y-14970650D02*
X12134468Y-15103984D01*
X12086848Y-14894460D02*
X12039229Y-15037317D01*
X12039229Y-15037317D02*
X12163039Y-15037317D01*
X12391610Y-15103984D02*
X12391610Y-14903984D01*
X12477325Y-15103984D02*
X12477325Y-14999222D01*
X12477325Y-14999222D02*
X12467801Y-14980174D01*
X12467801Y-14980174D02*
X12448753Y-14970650D01*
X12448753Y-14970650D02*
X12420182Y-14970650D01*
X12420182Y-14970650D02*
X12401134Y-14980174D01*
X12401134Y-14980174D02*
X12391610Y-14989698D01*
X12601134Y-15103984D02*
X12582087Y-15094460D01*
X12582087Y-15094460D02*
X12572563Y-15084936D01*
X12572563Y-15084936D02*
X12563039Y-15065888D01*
X12563039Y-15065888D02*
X12563039Y-15008746D01*
X12563039Y-15008746D02*
X12572563Y-14989698D01*
X12572563Y-14989698D02*
X12582087Y-14980174D01*
X12582087Y-14980174D02*
X12601134Y-14970650D01*
X12601134Y-14970650D02*
X12629706Y-14970650D01*
X12629706Y-14970650D02*
X12648753Y-14980174D01*
X12648753Y-14980174D02*
X12658277Y-14989698D01*
X12658277Y-14989698D02*
X12667801Y-15008746D01*
X12667801Y-15008746D02*
X12667801Y-15065888D01*
X12667801Y-15065888D02*
X12658277Y-15084936D01*
X12658277Y-15084936D02*
X12648753Y-15094460D01*
X12648753Y-15094460D02*
X12629706Y-15103984D01*
X12629706Y-15103984D02*
X12601134Y-15103984D01*
X12782087Y-15103984D02*
X12763039Y-15094460D01*
X12763039Y-15094460D02*
X12753515Y-15075412D01*
X12753515Y-15075412D02*
X12753515Y-14903984D01*
X12934468Y-15094460D02*
X12915420Y-15103984D01*
X12915420Y-15103984D02*
X12877325Y-15103984D01*
X12877325Y-15103984D02*
X12858277Y-15094460D01*
X12858277Y-15094460D02*
X12848753Y-15075412D01*
X12848753Y-15075412D02*
X12848753Y-14999222D01*
X12848753Y-14999222D02*
X12858277Y-14980174D01*
X12858277Y-14980174D02*
X12877325Y-14970650D01*
X12877325Y-14970650D02*
X12915420Y-14970650D01*
X12915420Y-14970650D02*
X12934468Y-14980174D01*
X12934468Y-14980174D02*
X12943991Y-14999222D01*
X12943991Y-14999222D02*
X12943991Y-15018269D01*
X12943991Y-15018269D02*
X12848753Y-15037317D01*
X13020182Y-15094460D02*
X13039230Y-15103984D01*
X13039230Y-15103984D02*
X13077325Y-15103984D01*
X13077325Y-15103984D02*
X13096372Y-15094460D01*
X13096372Y-15094460D02*
X13105896Y-15075412D01*
X13105896Y-15075412D02*
X13105896Y-15065888D01*
X13105896Y-15065888D02*
X13096372Y-15046841D01*
X13096372Y-15046841D02*
X13077325Y-15037317D01*
X13077325Y-15037317D02*
X13048753Y-15037317D01*
X13048753Y-15037317D02*
X13029706Y-15027793D01*
X13029706Y-15027793D02*
X13020182Y-15008746D01*
X13020182Y-15008746D02*
X13020182Y-14999222D01*
X13020182Y-14999222D02*
X13029706Y-14980174D01*
X13029706Y-14980174D02*
X13048753Y-14970650D01*
X13048753Y-14970650D02*
X13077325Y-14970650D01*
X13077325Y-14970650D02*
X13096372Y-14980174D01*
X13172563Y-15180174D02*
X13182087Y-15170650D01*
X13182087Y-15170650D02*
X13201134Y-15142079D01*
X13201134Y-15142079D02*
X13210658Y-15123031D01*
X13210658Y-15123031D02*
X13220182Y-15094460D01*
X13220182Y-15094460D02*
X13229706Y-15046841D01*
X13229706Y-15046841D02*
X13229706Y-15008746D01*
X13229706Y-15008746D02*
X13220182Y-14961127D01*
X13220182Y-14961127D02*
X13210658Y-14932555D01*
X13210658Y-14932555D02*
X13201134Y-14913508D01*
X13201134Y-14913508D02*
X13182087Y-14884936D01*
X13182087Y-14884936D02*
X13172563Y-14875412D01*
D14*
X8237500Y-15196500D02*
X8397500Y-15356500D01*
X8397500Y-15196500D02*
X8237500Y-15356500D01*
X8317500Y-15196500D02*
X8317500Y-15356500D01*
X8237500Y-15276500D02*
X8397500Y-15276500D01*
D11*
X8763039Y-15367984D02*
X8648753Y-15367984D01*
X8705896Y-15367984D02*
X8705896Y-15167984D01*
X8705896Y-15167984D02*
X8686848Y-15196555D01*
X8686848Y-15196555D02*
X8667801Y-15215603D01*
X8667801Y-15215603D02*
X8648753Y-15225127D01*
X8848753Y-15348936D02*
X8858277Y-15358460D01*
X8858277Y-15358460D02*
X8848753Y-15367984D01*
X8848753Y-15367984D02*
X8839229Y-15358460D01*
X8839229Y-15358460D02*
X8848753Y-15348936D01*
X8848753Y-15348936D02*
X8848753Y-15367984D01*
X9029705Y-15167984D02*
X8991610Y-15167984D01*
X8991610Y-15167984D02*
X8972563Y-15177508D01*
X8972563Y-15177508D02*
X8963039Y-15187031D01*
X8963039Y-15187031D02*
X8943991Y-15215603D01*
X8943991Y-15215603D02*
X8934467Y-15253698D01*
X8934467Y-15253698D02*
X8934467Y-15329888D01*
X8934467Y-15329888D02*
X8943991Y-15348936D01*
X8943991Y-15348936D02*
X8953515Y-15358460D01*
X8953515Y-15358460D02*
X8972563Y-15367984D01*
X8972563Y-15367984D02*
X9010658Y-15367984D01*
X9010658Y-15367984D02*
X9029705Y-15358460D01*
X9029705Y-15358460D02*
X9039229Y-15348936D01*
X9039229Y-15348936D02*
X9048753Y-15329888D01*
X9048753Y-15329888D02*
X9048753Y-15282269D01*
X9048753Y-15282269D02*
X9039229Y-15263222D01*
X9039229Y-15263222D02*
X9029705Y-15253698D01*
X9029705Y-15253698D02*
X9010658Y-15244174D01*
X9010658Y-15244174D02*
X8972563Y-15244174D01*
X8972563Y-15244174D02*
X8953515Y-15253698D01*
X8953515Y-15253698D02*
X8943991Y-15263222D01*
X8943991Y-15263222D02*
X8934467Y-15282269D01*
X9172563Y-15167984D02*
X9191610Y-15167984D01*
X9191610Y-15167984D02*
X9210658Y-15177508D01*
X9210658Y-15177508D02*
X9220182Y-15187031D01*
X9220182Y-15187031D02*
X9229705Y-15206079D01*
X9229705Y-15206079D02*
X9239229Y-15244174D01*
X9239229Y-15244174D02*
X9239229Y-15291793D01*
X9239229Y-15291793D02*
X9229705Y-15329888D01*
X9229705Y-15329888D02*
X9220182Y-15348936D01*
X9220182Y-15348936D02*
X9210658Y-15358460D01*
X9210658Y-15358460D02*
X9191610Y-15367984D01*
X9191610Y-15367984D02*
X9172563Y-15367984D01*
X9172563Y-15367984D02*
X9153515Y-15358460D01*
X9153515Y-15358460D02*
X9143991Y-15348936D01*
X9143991Y-15348936D02*
X9134467Y-15329888D01*
X9134467Y-15329888D02*
X9124944Y-15291793D01*
X9124944Y-15291793D02*
X9124944Y-15244174D01*
X9124944Y-15244174D02*
X9134467Y-15206079D01*
X9134467Y-15206079D02*
X9143991Y-15187031D01*
X9143991Y-15187031D02*
X9153515Y-15177508D01*
X9153515Y-15177508D02*
X9172563Y-15167984D01*
X9363039Y-15167984D02*
X9382086Y-15167984D01*
X9382086Y-15167984D02*
X9401134Y-15177508D01*
X9401134Y-15177508D02*
X9410658Y-15187031D01*
X9410658Y-15187031D02*
X9420182Y-15206079D01*
X9420182Y-15206079D02*
X9429705Y-15244174D01*
X9429705Y-15244174D02*
X9429705Y-15291793D01*
X9429705Y-15291793D02*
X9420182Y-15329888D01*
X9420182Y-15329888D02*
X9410658Y-15348936D01*
X9410658Y-15348936D02*
X9401134Y-15358460D01*
X9401134Y-15358460D02*
X9382086Y-15367984D01*
X9382086Y-15367984D02*
X9363039Y-15367984D01*
X9363039Y-15367984D02*
X9343991Y-15358460D01*
X9343991Y-15358460D02*
X9334467Y-15348936D01*
X9334467Y-15348936D02*
X9324944Y-15329888D01*
X9324944Y-15329888D02*
X9315420Y-15291793D01*
X9315420Y-15291793D02*
X9315420Y-15244174D01*
X9315420Y-15244174D02*
X9324944Y-15206079D01*
X9324944Y-15206079D02*
X9334467Y-15187031D01*
X9334467Y-15187031D02*
X9343991Y-15177508D01*
X9343991Y-15177508D02*
X9363039Y-15167984D01*
X9515420Y-15367984D02*
X9515420Y-15234650D01*
X9515420Y-15253698D02*
X9524944Y-15244174D01*
X9524944Y-15244174D02*
X9543991Y-15234650D01*
X9543991Y-15234650D02*
X9572563Y-15234650D01*
X9572563Y-15234650D02*
X9591610Y-15244174D01*
X9591610Y-15244174D02*
X9601134Y-15263222D01*
X9601134Y-15263222D02*
X9601134Y-15367984D01*
X9601134Y-15263222D02*
X9610658Y-15244174D01*
X9610658Y-15244174D02*
X9629705Y-15234650D01*
X9629705Y-15234650D02*
X9658277Y-15234650D01*
X9658277Y-15234650D02*
X9677325Y-15244174D01*
X9677325Y-15244174D02*
X9686848Y-15263222D01*
X9686848Y-15263222D02*
X9686848Y-15367984D01*
X9782086Y-15367984D02*
X9782086Y-15234650D01*
X9782086Y-15253698D02*
X9791610Y-15244174D01*
X9791610Y-15244174D02*
X9810658Y-15234650D01*
X9810658Y-15234650D02*
X9839229Y-15234650D01*
X9839229Y-15234650D02*
X9858277Y-15244174D01*
X9858277Y-15244174D02*
X9867801Y-15263222D01*
X9867801Y-15263222D02*
X9867801Y-15367984D01*
X9867801Y-15263222D02*
X9877325Y-15244174D01*
X9877325Y-15244174D02*
X9896372Y-15234650D01*
X9896372Y-15234650D02*
X9924944Y-15234650D01*
X9924944Y-15234650D02*
X9943991Y-15244174D01*
X9943991Y-15244174D02*
X9953515Y-15263222D01*
X9953515Y-15263222D02*
X9953515Y-15367984D01*
X10343991Y-15158460D02*
X10172563Y-15415603D01*
X10601134Y-15167984D02*
X10620182Y-15167984D01*
X10620182Y-15167984D02*
X10639229Y-15177508D01*
X10639229Y-15177508D02*
X10648753Y-15187031D01*
X10648753Y-15187031D02*
X10658277Y-15206079D01*
X10658277Y-15206079D02*
X10667801Y-15244174D01*
X10667801Y-15244174D02*
X10667801Y-15291793D01*
X10667801Y-15291793D02*
X10658277Y-15329888D01*
X10658277Y-15329888D02*
X10648753Y-15348936D01*
X10648753Y-15348936D02*
X10639229Y-15358460D01*
X10639229Y-15358460D02*
X10620182Y-15367984D01*
X10620182Y-15367984D02*
X10601134Y-15367984D01*
X10601134Y-15367984D02*
X10582087Y-15358460D01*
X10582087Y-15358460D02*
X10572563Y-15348936D01*
X10572563Y-15348936D02*
X10563039Y-15329888D01*
X10563039Y-15329888D02*
X10553515Y-15291793D01*
X10553515Y-15291793D02*
X10553515Y-15244174D01*
X10553515Y-15244174D02*
X10563039Y-15206079D01*
X10563039Y-15206079D02*
X10572563Y-15187031D01*
X10572563Y-15187031D02*
X10582087Y-15177508D01*
X10582087Y-15177508D02*
X10601134Y-15167984D01*
X10753515Y-15348936D02*
X10763039Y-15358460D01*
X10763039Y-15358460D02*
X10753515Y-15367984D01*
X10753515Y-15367984D02*
X10743991Y-15358460D01*
X10743991Y-15358460D02*
X10753515Y-15348936D01*
X10753515Y-15348936D02*
X10753515Y-15367984D01*
X10886848Y-15167984D02*
X10905896Y-15167984D01*
X10905896Y-15167984D02*
X10924944Y-15177508D01*
X10924944Y-15177508D02*
X10934468Y-15187031D01*
X10934468Y-15187031D02*
X10943991Y-15206079D01*
X10943991Y-15206079D02*
X10953515Y-15244174D01*
X10953515Y-15244174D02*
X10953515Y-15291793D01*
X10953515Y-15291793D02*
X10943991Y-15329888D01*
X10943991Y-15329888D02*
X10934468Y-15348936D01*
X10934468Y-15348936D02*
X10924944Y-15358460D01*
X10924944Y-15358460D02*
X10905896Y-15367984D01*
X10905896Y-15367984D02*
X10886848Y-15367984D01*
X10886848Y-15367984D02*
X10867801Y-15358460D01*
X10867801Y-15358460D02*
X10858277Y-15348936D01*
X10858277Y-15348936D02*
X10848753Y-15329888D01*
X10848753Y-15329888D02*
X10839229Y-15291793D01*
X10839229Y-15291793D02*
X10839229Y-15244174D01*
X10839229Y-15244174D02*
X10848753Y-15206079D01*
X10848753Y-15206079D02*
X10858277Y-15187031D01*
X10858277Y-15187031D02*
X10867801Y-15177508D01*
X10867801Y-15177508D02*
X10886848Y-15167984D01*
X11124944Y-15167984D02*
X11086848Y-15167984D01*
X11086848Y-15167984D02*
X11067801Y-15177508D01*
X11067801Y-15177508D02*
X11058277Y-15187031D01*
X11058277Y-15187031D02*
X11039229Y-15215603D01*
X11039229Y-15215603D02*
X11029706Y-15253698D01*
X11029706Y-15253698D02*
X11029706Y-15329888D01*
X11029706Y-15329888D02*
X11039229Y-15348936D01*
X11039229Y-15348936D02*
X11048753Y-15358460D01*
X11048753Y-15358460D02*
X11067801Y-15367984D01*
X11067801Y-15367984D02*
X11105896Y-15367984D01*
X11105896Y-15367984D02*
X11124944Y-15358460D01*
X11124944Y-15358460D02*
X11134468Y-15348936D01*
X11134468Y-15348936D02*
X11143991Y-15329888D01*
X11143991Y-15329888D02*
X11143991Y-15282269D01*
X11143991Y-15282269D02*
X11134468Y-15263222D01*
X11134468Y-15263222D02*
X11124944Y-15253698D01*
X11124944Y-15253698D02*
X11105896Y-15244174D01*
X11105896Y-15244174D02*
X11067801Y-15244174D01*
X11067801Y-15244174D02*
X11048753Y-15253698D01*
X11048753Y-15253698D02*
X11039229Y-15263222D01*
X11039229Y-15263222D02*
X11029706Y-15282269D01*
X11210658Y-15167984D02*
X11334467Y-15167984D01*
X11334467Y-15167984D02*
X11267801Y-15244174D01*
X11267801Y-15244174D02*
X11296372Y-15244174D01*
X11296372Y-15244174D02*
X11315420Y-15253698D01*
X11315420Y-15253698D02*
X11324944Y-15263222D01*
X11324944Y-15263222D02*
X11334467Y-15282269D01*
X11334467Y-15282269D02*
X11334467Y-15329888D01*
X11334467Y-15329888D02*
X11324944Y-15348936D01*
X11324944Y-15348936D02*
X11315420Y-15358460D01*
X11315420Y-15358460D02*
X11296372Y-15367984D01*
X11296372Y-15367984D02*
X11239229Y-15367984D01*
X11239229Y-15367984D02*
X11220182Y-15358460D01*
X11220182Y-15358460D02*
X11210658Y-15348936D01*
X11458277Y-15167984D02*
X11477325Y-15167984D01*
X11477325Y-15167984D02*
X11496372Y-15177508D01*
X11496372Y-15177508D02*
X11505896Y-15187031D01*
X11505896Y-15187031D02*
X11515420Y-15206079D01*
X11515420Y-15206079D02*
X11524944Y-15244174D01*
X11524944Y-15244174D02*
X11524944Y-15291793D01*
X11524944Y-15291793D02*
X11515420Y-15329888D01*
X11515420Y-15329888D02*
X11505896Y-15348936D01*
X11505896Y-15348936D02*
X11496372Y-15358460D01*
X11496372Y-15358460D02*
X11477325Y-15367984D01*
X11477325Y-15367984D02*
X11458277Y-15367984D01*
X11458277Y-15367984D02*
X11439229Y-15358460D01*
X11439229Y-15358460D02*
X11429706Y-15348936D01*
X11429706Y-15348936D02*
X11420182Y-15329888D01*
X11420182Y-15329888D02*
X11410658Y-15291793D01*
X11410658Y-15291793D02*
X11410658Y-15244174D01*
X11410658Y-15244174D02*
X11420182Y-15206079D01*
X11420182Y-15206079D02*
X11429706Y-15187031D01*
X11429706Y-15187031D02*
X11439229Y-15177508D01*
X11439229Y-15177508D02*
X11458277Y-15167984D01*
X11601134Y-15167984D02*
X11601134Y-15206079D01*
X11677325Y-15167984D02*
X11677325Y-15206079D01*
X11972563Y-15444174D02*
X11963039Y-15434650D01*
X11963039Y-15434650D02*
X11943991Y-15406079D01*
X11943991Y-15406079D02*
X11934468Y-15387031D01*
X11934468Y-15387031D02*
X11924944Y-15358460D01*
X11924944Y-15358460D02*
X11915420Y-15310841D01*
X11915420Y-15310841D02*
X11915420Y-15272746D01*
X11915420Y-15272746D02*
X11924944Y-15225127D01*
X11924944Y-15225127D02*
X11934468Y-15196555D01*
X11934468Y-15196555D02*
X11943991Y-15177508D01*
X11943991Y-15177508D02*
X11963039Y-15148936D01*
X11963039Y-15148936D02*
X11972563Y-15139412D01*
X12029706Y-15167984D02*
X12153515Y-15167984D01*
X12153515Y-15167984D02*
X12086848Y-15244174D01*
X12086848Y-15244174D02*
X12115420Y-15244174D01*
X12115420Y-15244174D02*
X12134468Y-15253698D01*
X12134468Y-15253698D02*
X12143991Y-15263222D01*
X12143991Y-15263222D02*
X12153515Y-15282269D01*
X12153515Y-15282269D02*
X12153515Y-15329888D01*
X12153515Y-15329888D02*
X12143991Y-15348936D01*
X12143991Y-15348936D02*
X12134468Y-15358460D01*
X12134468Y-15358460D02*
X12115420Y-15367984D01*
X12115420Y-15367984D02*
X12058277Y-15367984D01*
X12058277Y-15367984D02*
X12039229Y-15358460D01*
X12039229Y-15358460D02*
X12029706Y-15348936D01*
X12391610Y-15367984D02*
X12391610Y-15167984D01*
X12477325Y-15367984D02*
X12477325Y-15263222D01*
X12477325Y-15263222D02*
X12467801Y-15244174D01*
X12467801Y-15244174D02*
X12448753Y-15234650D01*
X12448753Y-15234650D02*
X12420182Y-15234650D01*
X12420182Y-15234650D02*
X12401134Y-15244174D01*
X12401134Y-15244174D02*
X12391610Y-15253698D01*
X12601134Y-15367984D02*
X12582087Y-15358460D01*
X12582087Y-15358460D02*
X12572563Y-15348936D01*
X12572563Y-15348936D02*
X12563039Y-15329888D01*
X12563039Y-15329888D02*
X12563039Y-15272746D01*
X12563039Y-15272746D02*
X12572563Y-15253698D01*
X12572563Y-15253698D02*
X12582087Y-15244174D01*
X12582087Y-15244174D02*
X12601134Y-15234650D01*
X12601134Y-15234650D02*
X12629706Y-15234650D01*
X12629706Y-15234650D02*
X12648753Y-15244174D01*
X12648753Y-15244174D02*
X12658277Y-15253698D01*
X12658277Y-15253698D02*
X12667801Y-15272746D01*
X12667801Y-15272746D02*
X12667801Y-15329888D01*
X12667801Y-15329888D02*
X12658277Y-15348936D01*
X12658277Y-15348936D02*
X12648753Y-15358460D01*
X12648753Y-15358460D02*
X12629706Y-15367984D01*
X12629706Y-15367984D02*
X12601134Y-15367984D01*
X12782087Y-15367984D02*
X12763039Y-15358460D01*
X12763039Y-15358460D02*
X12753515Y-15339412D01*
X12753515Y-15339412D02*
X12753515Y-15167984D01*
X12934468Y-15358460D02*
X12915420Y-15367984D01*
X12915420Y-15367984D02*
X12877325Y-15367984D01*
X12877325Y-15367984D02*
X12858277Y-15358460D01*
X12858277Y-15358460D02*
X12848753Y-15339412D01*
X12848753Y-15339412D02*
X12848753Y-15263222D01*
X12848753Y-15263222D02*
X12858277Y-15244174D01*
X12858277Y-15244174D02*
X12877325Y-15234650D01*
X12877325Y-15234650D02*
X12915420Y-15234650D01*
X12915420Y-15234650D02*
X12934468Y-15244174D01*
X12934468Y-15244174D02*
X12943991Y-15263222D01*
X12943991Y-15263222D02*
X12943991Y-15282269D01*
X12943991Y-15282269D02*
X12848753Y-15301317D01*
X13020182Y-15358460D02*
X13039230Y-15367984D01*
X13039230Y-15367984D02*
X13077325Y-15367984D01*
X13077325Y-15367984D02*
X13096372Y-15358460D01*
X13096372Y-15358460D02*
X13105896Y-15339412D01*
X13105896Y-15339412D02*
X13105896Y-15329888D01*
X13105896Y-15329888D02*
X13096372Y-15310841D01*
X13096372Y-15310841D02*
X13077325Y-15301317D01*
X13077325Y-15301317D02*
X13048753Y-15301317D01*
X13048753Y-15301317D02*
X13029706Y-15291793D01*
X13029706Y-15291793D02*
X13020182Y-15272746D01*
X13020182Y-15272746D02*
X13020182Y-15263222D01*
X13020182Y-15263222D02*
X13029706Y-15244174D01*
X13029706Y-15244174D02*
X13048753Y-15234650D01*
X13048753Y-15234650D02*
X13077325Y-15234650D01*
X13077325Y-15234650D02*
X13096372Y-15244174D01*
X13172563Y-15444174D02*
X13182087Y-15434650D01*
X13182087Y-15434650D02*
X13201134Y-15406079D01*
X13201134Y-15406079D02*
X13210658Y-15387031D01*
X13210658Y-15387031D02*
X13220182Y-15358460D01*
X13220182Y-15358460D02*
X13229706Y-15310841D01*
X13229706Y-15310841D02*
X13229706Y-15272746D01*
X13229706Y-15272746D02*
X13220182Y-15225127D01*
X13220182Y-15225127D02*
X13210658Y-15196555D01*
X13210658Y-15196555D02*
X13201134Y-15177508D01*
X13201134Y-15177508D02*
X13182087Y-15148936D01*
X13182087Y-15148936D02*
X13172563Y-15139412D01*
X8197500Y-15456500D02*
X8397500Y-15656500D01*
X8397500Y-15456500D02*
X8197500Y-15656500D01*
X8368211Y-15627211D02*
X8368211Y-15485789D01*
X8226789Y-15485789D01*
X8226789Y-15627211D01*
X8368211Y-15627211D01*
X8648753Y-15467031D02*
X8658277Y-15457508D01*
X8658277Y-15457508D02*
X8677324Y-15447984D01*
X8677324Y-15447984D02*
X8724944Y-15447984D01*
X8724944Y-15447984D02*
X8743991Y-15457508D01*
X8743991Y-15457508D02*
X8753515Y-15467031D01*
X8753515Y-15467031D02*
X8763039Y-15486079D01*
X8763039Y-15486079D02*
X8763039Y-15505127D01*
X8763039Y-15505127D02*
X8753515Y-15533698D01*
X8753515Y-15533698D02*
X8639229Y-15647984D01*
X8639229Y-15647984D02*
X8763039Y-15647984D01*
X8848753Y-15628936D02*
X8858277Y-15638460D01*
X8858277Y-15638460D02*
X8848753Y-15647984D01*
X8848753Y-15647984D02*
X8839229Y-15638460D01*
X8839229Y-15638460D02*
X8848753Y-15628936D01*
X8848753Y-15628936D02*
X8848753Y-15647984D01*
X8982086Y-15447984D02*
X9001134Y-15447984D01*
X9001134Y-15447984D02*
X9020182Y-15457508D01*
X9020182Y-15457508D02*
X9029705Y-15467031D01*
X9029705Y-15467031D02*
X9039229Y-15486079D01*
X9039229Y-15486079D02*
X9048753Y-15524174D01*
X9048753Y-15524174D02*
X9048753Y-15571793D01*
X9048753Y-15571793D02*
X9039229Y-15609888D01*
X9039229Y-15609888D02*
X9029705Y-15628936D01*
X9029705Y-15628936D02*
X9020182Y-15638460D01*
X9020182Y-15638460D02*
X9001134Y-15647984D01*
X9001134Y-15647984D02*
X8982086Y-15647984D01*
X8982086Y-15647984D02*
X8963039Y-15638460D01*
X8963039Y-15638460D02*
X8953515Y-15628936D01*
X8953515Y-15628936D02*
X8943991Y-15609888D01*
X8943991Y-15609888D02*
X8934467Y-15571793D01*
X8934467Y-15571793D02*
X8934467Y-15524174D01*
X8934467Y-15524174D02*
X8943991Y-15486079D01*
X8943991Y-15486079D02*
X8953515Y-15467031D01*
X8953515Y-15467031D02*
X8963039Y-15457508D01*
X8963039Y-15457508D02*
X8982086Y-15447984D01*
X9172563Y-15447984D02*
X9191610Y-15447984D01*
X9191610Y-15447984D02*
X9210658Y-15457508D01*
X9210658Y-15457508D02*
X9220182Y-15467031D01*
X9220182Y-15467031D02*
X9229705Y-15486079D01*
X9229705Y-15486079D02*
X9239229Y-15524174D01*
X9239229Y-15524174D02*
X9239229Y-15571793D01*
X9239229Y-15571793D02*
X9229705Y-15609888D01*
X9229705Y-15609888D02*
X9220182Y-15628936D01*
X9220182Y-15628936D02*
X9210658Y-15638460D01*
X9210658Y-15638460D02*
X9191610Y-15647984D01*
X9191610Y-15647984D02*
X9172563Y-15647984D01*
X9172563Y-15647984D02*
X9153515Y-15638460D01*
X9153515Y-15638460D02*
X9143991Y-15628936D01*
X9143991Y-15628936D02*
X9134467Y-15609888D01*
X9134467Y-15609888D02*
X9124944Y-15571793D01*
X9124944Y-15571793D02*
X9124944Y-15524174D01*
X9124944Y-15524174D02*
X9134467Y-15486079D01*
X9134467Y-15486079D02*
X9143991Y-15467031D01*
X9143991Y-15467031D02*
X9153515Y-15457508D01*
X9153515Y-15457508D02*
X9172563Y-15447984D01*
X9363039Y-15447984D02*
X9382086Y-15447984D01*
X9382086Y-15447984D02*
X9401134Y-15457508D01*
X9401134Y-15457508D02*
X9410658Y-15467031D01*
X9410658Y-15467031D02*
X9420182Y-15486079D01*
X9420182Y-15486079D02*
X9429705Y-15524174D01*
X9429705Y-15524174D02*
X9429705Y-15571793D01*
X9429705Y-15571793D02*
X9420182Y-15609888D01*
X9420182Y-15609888D02*
X9410658Y-15628936D01*
X9410658Y-15628936D02*
X9401134Y-15638460D01*
X9401134Y-15638460D02*
X9382086Y-15647984D01*
X9382086Y-15647984D02*
X9363039Y-15647984D01*
X9363039Y-15647984D02*
X9343991Y-15638460D01*
X9343991Y-15638460D02*
X9334467Y-15628936D01*
X9334467Y-15628936D02*
X9324944Y-15609888D01*
X9324944Y-15609888D02*
X9315420Y-15571793D01*
X9315420Y-15571793D02*
X9315420Y-15524174D01*
X9315420Y-15524174D02*
X9324944Y-15486079D01*
X9324944Y-15486079D02*
X9334467Y-15467031D01*
X9334467Y-15467031D02*
X9343991Y-15457508D01*
X9343991Y-15457508D02*
X9363039Y-15447984D01*
X9515420Y-15647984D02*
X9515420Y-15514650D01*
X9515420Y-15533698D02*
X9524944Y-15524174D01*
X9524944Y-15524174D02*
X9543991Y-15514650D01*
X9543991Y-15514650D02*
X9572563Y-15514650D01*
X9572563Y-15514650D02*
X9591610Y-15524174D01*
X9591610Y-15524174D02*
X9601134Y-15543222D01*
X9601134Y-15543222D02*
X9601134Y-15647984D01*
X9601134Y-15543222D02*
X9610658Y-15524174D01*
X9610658Y-15524174D02*
X9629705Y-15514650D01*
X9629705Y-15514650D02*
X9658277Y-15514650D01*
X9658277Y-15514650D02*
X9677325Y-15524174D01*
X9677325Y-15524174D02*
X9686848Y-15543222D01*
X9686848Y-15543222D02*
X9686848Y-15647984D01*
X9782086Y-15647984D02*
X9782086Y-15514650D01*
X9782086Y-15533698D02*
X9791610Y-15524174D01*
X9791610Y-15524174D02*
X9810658Y-15514650D01*
X9810658Y-15514650D02*
X9839229Y-15514650D01*
X9839229Y-15514650D02*
X9858277Y-15524174D01*
X9858277Y-15524174D02*
X9867801Y-15543222D01*
X9867801Y-15543222D02*
X9867801Y-15647984D01*
X9867801Y-15543222D02*
X9877325Y-15524174D01*
X9877325Y-15524174D02*
X9896372Y-15514650D01*
X9896372Y-15514650D02*
X9924944Y-15514650D01*
X9924944Y-15514650D02*
X9943991Y-15524174D01*
X9943991Y-15524174D02*
X9953515Y-15543222D01*
X9953515Y-15543222D02*
X9953515Y-15647984D01*
X10343991Y-15438460D02*
X10172563Y-15695603D01*
X10601134Y-15447984D02*
X10620182Y-15447984D01*
X10620182Y-15447984D02*
X10639229Y-15457508D01*
X10639229Y-15457508D02*
X10648753Y-15467031D01*
X10648753Y-15467031D02*
X10658277Y-15486079D01*
X10658277Y-15486079D02*
X10667801Y-15524174D01*
X10667801Y-15524174D02*
X10667801Y-15571793D01*
X10667801Y-15571793D02*
X10658277Y-15609888D01*
X10658277Y-15609888D02*
X10648753Y-15628936D01*
X10648753Y-15628936D02*
X10639229Y-15638460D01*
X10639229Y-15638460D02*
X10620182Y-15647984D01*
X10620182Y-15647984D02*
X10601134Y-15647984D01*
X10601134Y-15647984D02*
X10582087Y-15638460D01*
X10582087Y-15638460D02*
X10572563Y-15628936D01*
X10572563Y-15628936D02*
X10563039Y-15609888D01*
X10563039Y-15609888D02*
X10553515Y-15571793D01*
X10553515Y-15571793D02*
X10553515Y-15524174D01*
X10553515Y-15524174D02*
X10563039Y-15486079D01*
X10563039Y-15486079D02*
X10572563Y-15467031D01*
X10572563Y-15467031D02*
X10582087Y-15457508D01*
X10582087Y-15457508D02*
X10601134Y-15447984D01*
X10753515Y-15628936D02*
X10763039Y-15638460D01*
X10763039Y-15638460D02*
X10753515Y-15647984D01*
X10753515Y-15647984D02*
X10743991Y-15638460D01*
X10743991Y-15638460D02*
X10753515Y-15628936D01*
X10753515Y-15628936D02*
X10753515Y-15647984D01*
X10886848Y-15447984D02*
X10905896Y-15447984D01*
X10905896Y-15447984D02*
X10924944Y-15457508D01*
X10924944Y-15457508D02*
X10934468Y-15467031D01*
X10934468Y-15467031D02*
X10943991Y-15486079D01*
X10943991Y-15486079D02*
X10953515Y-15524174D01*
X10953515Y-15524174D02*
X10953515Y-15571793D01*
X10953515Y-15571793D02*
X10943991Y-15609888D01*
X10943991Y-15609888D02*
X10934468Y-15628936D01*
X10934468Y-15628936D02*
X10924944Y-15638460D01*
X10924944Y-15638460D02*
X10905896Y-15647984D01*
X10905896Y-15647984D02*
X10886848Y-15647984D01*
X10886848Y-15647984D02*
X10867801Y-15638460D01*
X10867801Y-15638460D02*
X10858277Y-15628936D01*
X10858277Y-15628936D02*
X10848753Y-15609888D01*
X10848753Y-15609888D02*
X10839229Y-15571793D01*
X10839229Y-15571793D02*
X10839229Y-15524174D01*
X10839229Y-15524174D02*
X10848753Y-15486079D01*
X10848753Y-15486079D02*
X10858277Y-15467031D01*
X10858277Y-15467031D02*
X10867801Y-15457508D01*
X10867801Y-15457508D02*
X10886848Y-15447984D01*
X11020182Y-15447984D02*
X11153515Y-15447984D01*
X11153515Y-15447984D02*
X11067801Y-15647984D01*
X11258277Y-15533698D02*
X11239229Y-15524174D01*
X11239229Y-15524174D02*
X11229706Y-15514650D01*
X11229706Y-15514650D02*
X11220182Y-15495603D01*
X11220182Y-15495603D02*
X11220182Y-15486079D01*
X11220182Y-15486079D02*
X11229706Y-15467031D01*
X11229706Y-15467031D02*
X11239229Y-15457508D01*
X11239229Y-15457508D02*
X11258277Y-15447984D01*
X11258277Y-15447984D02*
X11296372Y-15447984D01*
X11296372Y-15447984D02*
X11315420Y-15457508D01*
X11315420Y-15457508D02*
X11324944Y-15467031D01*
X11324944Y-15467031D02*
X11334467Y-15486079D01*
X11334467Y-15486079D02*
X11334467Y-15495603D01*
X11334467Y-15495603D02*
X11324944Y-15514650D01*
X11324944Y-15514650D02*
X11315420Y-15524174D01*
X11315420Y-15524174D02*
X11296372Y-15533698D01*
X11296372Y-15533698D02*
X11258277Y-15533698D01*
X11258277Y-15533698D02*
X11239229Y-15543222D01*
X11239229Y-15543222D02*
X11229706Y-15552746D01*
X11229706Y-15552746D02*
X11220182Y-15571793D01*
X11220182Y-15571793D02*
X11220182Y-15609888D01*
X11220182Y-15609888D02*
X11229706Y-15628936D01*
X11229706Y-15628936D02*
X11239229Y-15638460D01*
X11239229Y-15638460D02*
X11258277Y-15647984D01*
X11258277Y-15647984D02*
X11296372Y-15647984D01*
X11296372Y-15647984D02*
X11315420Y-15638460D01*
X11315420Y-15638460D02*
X11324944Y-15628936D01*
X11324944Y-15628936D02*
X11334467Y-15609888D01*
X11334467Y-15609888D02*
X11334467Y-15571793D01*
X11334467Y-15571793D02*
X11324944Y-15552746D01*
X11324944Y-15552746D02*
X11315420Y-15543222D01*
X11315420Y-15543222D02*
X11296372Y-15533698D01*
X11401134Y-15447984D02*
X11534467Y-15447984D01*
X11534467Y-15447984D02*
X11448753Y-15647984D01*
X11601134Y-15447984D02*
X11601134Y-15486079D01*
X11677325Y-15447984D02*
X11677325Y-15486079D01*
X11972563Y-15724174D02*
X11963039Y-15714650D01*
X11963039Y-15714650D02*
X11943991Y-15686079D01*
X11943991Y-15686079D02*
X11934468Y-15667031D01*
X11934468Y-15667031D02*
X11924944Y-15638460D01*
X11924944Y-15638460D02*
X11915420Y-15590841D01*
X11915420Y-15590841D02*
X11915420Y-15552746D01*
X11915420Y-15552746D02*
X11924944Y-15505127D01*
X11924944Y-15505127D02*
X11934468Y-15476555D01*
X11934468Y-15476555D02*
X11943991Y-15457508D01*
X11943991Y-15457508D02*
X11963039Y-15428936D01*
X11963039Y-15428936D02*
X11972563Y-15419412D01*
X12143991Y-15447984D02*
X12048753Y-15447984D01*
X12048753Y-15447984D02*
X12039229Y-15543222D01*
X12039229Y-15543222D02*
X12048753Y-15533698D01*
X12048753Y-15533698D02*
X12067801Y-15524174D01*
X12067801Y-15524174D02*
X12115420Y-15524174D01*
X12115420Y-15524174D02*
X12134468Y-15533698D01*
X12134468Y-15533698D02*
X12143991Y-15543222D01*
X12143991Y-15543222D02*
X12153515Y-15562269D01*
X12153515Y-15562269D02*
X12153515Y-15609888D01*
X12153515Y-15609888D02*
X12143991Y-15628936D01*
X12143991Y-15628936D02*
X12134468Y-15638460D01*
X12134468Y-15638460D02*
X12115420Y-15647984D01*
X12115420Y-15647984D02*
X12067801Y-15647984D01*
X12067801Y-15647984D02*
X12048753Y-15638460D01*
X12048753Y-15638460D02*
X12039229Y-15628936D01*
X12391610Y-15647984D02*
X12391610Y-15447984D01*
X12477325Y-15647984D02*
X12477325Y-15543222D01*
X12477325Y-15543222D02*
X12467801Y-15524174D01*
X12467801Y-15524174D02*
X12448753Y-15514650D01*
X12448753Y-15514650D02*
X12420182Y-15514650D01*
X12420182Y-15514650D02*
X12401134Y-15524174D01*
X12401134Y-15524174D02*
X12391610Y-15533698D01*
X12601134Y-15647984D02*
X12582087Y-15638460D01*
X12582087Y-15638460D02*
X12572563Y-15628936D01*
X12572563Y-15628936D02*
X12563039Y-15609888D01*
X12563039Y-15609888D02*
X12563039Y-15552746D01*
X12563039Y-15552746D02*
X12572563Y-15533698D01*
X12572563Y-15533698D02*
X12582087Y-15524174D01*
X12582087Y-15524174D02*
X12601134Y-15514650D01*
X12601134Y-15514650D02*
X12629706Y-15514650D01*
X12629706Y-15514650D02*
X12648753Y-15524174D01*
X12648753Y-15524174D02*
X12658277Y-15533698D01*
X12658277Y-15533698D02*
X12667801Y-15552746D01*
X12667801Y-15552746D02*
X12667801Y-15609888D01*
X12667801Y-15609888D02*
X12658277Y-15628936D01*
X12658277Y-15628936D02*
X12648753Y-15638460D01*
X12648753Y-15638460D02*
X12629706Y-15647984D01*
X12629706Y-15647984D02*
X12601134Y-15647984D01*
X12782087Y-15647984D02*
X12763039Y-15638460D01*
X12763039Y-15638460D02*
X12753515Y-15619412D01*
X12753515Y-15619412D02*
X12753515Y-15447984D01*
X12934468Y-15638460D02*
X12915420Y-15647984D01*
X12915420Y-15647984D02*
X12877325Y-15647984D01*
X12877325Y-15647984D02*
X12858277Y-15638460D01*
X12858277Y-15638460D02*
X12848753Y-15619412D01*
X12848753Y-15619412D02*
X12848753Y-15543222D01*
X12848753Y-15543222D02*
X12858277Y-15524174D01*
X12858277Y-15524174D02*
X12877325Y-15514650D01*
X12877325Y-15514650D02*
X12915420Y-15514650D01*
X12915420Y-15514650D02*
X12934468Y-15524174D01*
X12934468Y-15524174D02*
X12943991Y-15543222D01*
X12943991Y-15543222D02*
X12943991Y-15562269D01*
X12943991Y-15562269D02*
X12848753Y-15581317D01*
X13020182Y-15638460D02*
X13039230Y-15647984D01*
X13039230Y-15647984D02*
X13077325Y-15647984D01*
X13077325Y-15647984D02*
X13096372Y-15638460D01*
X13096372Y-15638460D02*
X13105896Y-15619412D01*
X13105896Y-15619412D02*
X13105896Y-15609888D01*
X13105896Y-15609888D02*
X13096372Y-15590841D01*
X13096372Y-15590841D02*
X13077325Y-15581317D01*
X13077325Y-15581317D02*
X13048753Y-15581317D01*
X13048753Y-15581317D02*
X13029706Y-15571793D01*
X13029706Y-15571793D02*
X13020182Y-15552746D01*
X13020182Y-15552746D02*
X13020182Y-15543222D01*
X13020182Y-15543222D02*
X13029706Y-15524174D01*
X13029706Y-15524174D02*
X13048753Y-15514650D01*
X13048753Y-15514650D02*
X13077325Y-15514650D01*
X13077325Y-15514650D02*
X13096372Y-15524174D01*
X13172563Y-15724174D02*
X13182087Y-15714650D01*
X13182087Y-15714650D02*
X13201134Y-15686079D01*
X13201134Y-15686079D02*
X13210658Y-15667031D01*
X13210658Y-15667031D02*
X13220182Y-15638460D01*
X13220182Y-15638460D02*
X13229706Y-15590841D01*
X13229706Y-15590841D02*
X13229706Y-15552746D01*
X13229706Y-15552746D02*
X13220182Y-15505127D01*
X13220182Y-15505127D02*
X13210658Y-15476555D01*
X13210658Y-15476555D02*
X13201134Y-15457508D01*
X13201134Y-15457508D02*
X13182087Y-15428936D01*
X13182087Y-15428936D02*
X13172563Y-15419412D01*
M02*
